<svg width="29" height="20" viewBox="0 0 29 20" fill="none" xmlns="http://www.w3.org/2000/svg">
<g clip-path="url(#clip0_1511_52)">
<path d="M15.4118 2.3H21.5883C21.816 2.3 22 2.00948 22 1.65006C22 1.29063 21.816 1 21.5883 1H15.4118C15.1841 1 15 1.29063 15 1.65006C15 2.00948 15.1841 2.3 15.4118 2.3Z" fill="#457FCA"/>
<path d="M25.353 9H15.6471C15.2893 9 15 9.29052 15 9.64994C15 10.0094 15.2893 10.3 15.6471 10.3H25.353C25.7108 10.3 26 10.0094 26 9.64994C26 9.29052 25.7108 9 25.353 9Z" fill="#457FCA"/>
<path d="M28.6471 17.6387H15.853C15.3814 17.6387 15 17.9293 15 18.2887C15 18.6482 15.3814 18.9387 15.853 18.9387H28.6471C29.1188 18.9387 29.5 18.6482 29.5 18.2887C29.5 17.9293 29.1188 17.6387 28.6471 17.6387Z" fill="#457FCA"/>
<path d="M6.00391 18L5.99906 1" stroke="#457FCA" stroke-width="1.3" stroke-linecap="round" stroke-linejoin="round"/>
<path d="M1 13L6 18L11 13" stroke="#457FCA" stroke-width="1.3" stroke-linecap="round" stroke-linejoin="round"/>
</g>
<defs>
<clipPath id="clip0_1511_52">
<rect width="29" height="20" fill="white"/>
</clipPath>
</defs>
</svg>
