<svg width="19" height="19" viewBox="0 0 19 19" fill="none" xmlns="http://www.w3.org/2000/svg">
  <g clip-path="url(#clip0_1312_819)">
    <path d="M7.125 0H1.78125C0.799009 0 0 0.799009 0 1.78125V7.125C0 8.10724 0.799009 8.90625 1.78125 8.90625H7.125C8.10724 8.90625 8.90625 8.10724 8.90625 7.125V1.78125C8.90625 0.799009 8.10724 0 7.125 0ZM7.71875 7.125C7.71875 7.45232 7.45261 7.71875 7.125 7.71875H1.78125C1.45364 7.71875 1.1875 7.45232 1.1875 7.125V1.78125C1.1875 1.45393 1.45364 1.1875 1.78125 1.1875H7.125C7.45261 1.1875 7.71875 1.45393 7.71875 1.78125V7.125Z" fill="white" />
    <path d="M17.2188 0H11.875C10.8928 0 10.0938 0.799009 10.0938 1.78125V7.125C10.0938 8.10724 10.8928 8.90625 11.875 8.90625H17.2188C18.201 8.90625 19 8.10724 19 7.125V1.78125C19 0.799009 18.201 0 17.2188 0ZM17.8125 7.125C17.8125 7.45232 17.5464 7.71875 17.2188 7.71875H11.875C11.5474 7.71875 11.2812 7.45232 11.2812 7.125V1.78125C11.2812 1.45393 11.5474 1.1875 11.875 1.1875H17.2188C17.5464 1.1875 17.8125 1.45393 17.8125 1.78125V7.125Z" fill="white" />
    <path d="M17.2188 10.0938H11.875C10.8928 10.0938 10.0938 10.8928 10.0938 11.875V17.2188C10.0938 18.201 10.8928 19 11.875 19H17.2188C18.201 19 19 18.201 19 17.2188V11.875C19 10.8928 18.201 10.0938 17.2188 10.0938ZM17.8125 17.2188C17.8125 17.5461 17.5464 17.8125 17.2188 17.8125H11.875C11.5474 17.8125 11.2812 17.5461 11.2812 17.2188V11.875C11.2812 11.5477 11.5474 11.2812 11.875 11.2812H17.2188C17.5464 11.2812 17.8125 11.5477 17.8125 11.875V17.2188Z" fill="white" />
    <path d="M7.125 10.0938H1.78125C0.799009 10.0938 0 10.8928 0 11.875V17.2188C0 18.201 0.799009 19 1.78125 19H7.125C8.10724 19 8.90625 18.201 8.90625 17.2188V11.875C8.90625 10.8928 8.10724 10.0938 7.125 10.0938ZM7.71875 17.2188C7.71875 17.5461 7.45261 17.8125 7.125 17.8125H1.78125C1.45364 17.8125 1.1875 17.5461 1.1875 17.2188V11.875C1.1875 11.5477 1.45364 11.2812 1.78125 11.2812H7.125C7.45261 11.2812 7.71875 11.5477 7.71875 11.875V17.2188Z" fill="white" />
  </g>
  <defs>
    <clipPath id="clip0_1312_819">
      <rect width="19" height="19" fill="white" />
    </clipPath>
  </defs>
</svg>