<svg width="234" height="290" viewBox="0 0 234 290" fill="none" xmlns="http://www.w3.org/2000/svg">
<path d="M149.549 0H234V25.7258H149.549V0Z" fill="black"/>
<path d="M208.195 76.0081V0H234V76.0081H208.195Z" fill="black"/>
<path d="M208.195 153.185V127.46H234V153.185H208.195Z" fill="black"/>
<path d="M208.195 290V213.992H234V290H208.195Z" fill="black"/>
<path d="M234 290H143.684V264.274H234V290Z" fill="black"/>
<path d="M25.8045 290V213.992H1.43051e-06L2.38419e-06 290H25.8045Z" fill="black"/>
<path d="M2.38419e-06 290H90.3158V264.274H0L2.38419e-06 290Z" fill="black"/>
<path fill-rule="evenodd" clip-rule="evenodd" d="M84.4511 0H2.38419e-06V84.1935H84.4511V0ZM42.5586 20.4637C32.0076 20.4637 23.4586 28.9659 23.4586 39.4485V44.745C23.4586 55.2277 32.0076 63.7298 42.5586 63.7298H51.8824C56.9161 63.7298 60.9925 59.6739 60.9925 54.6759V46.0824C60.9925 43.9999 59.2991 42.3117 57.2103 42.3117C55.1214 42.3117 53.4281 43.9999 53.4281 46.0824V54.6759C53.4281 55.5283 52.7337 56.215 51.8824 56.215H42.5586C36.1901 56.215 31.0231 51.0821 31.0231 44.745V39.4485C31.0231 33.1115 36.1901 27.9785 42.5586 27.9785H57.2236C59.3051 27.9785 60.9925 26.2963 60.9925 24.2211C60.9925 22.146 59.3051 20.4637 57.2236 20.4637H42.5586Z" fill="black"/>
</svg>
