<svg width="66" height="80" viewBox="0 0 66 80" fill="none" xmlns="http://www.w3.org/2000/svg">
<path d="M65.5 73.4033V79.5H59.2217V73.4033H65.5ZM58.2217 73.4033V79.5H41.0264V73.4033H58.2217ZM24.9736 73.4033V79.5H7.77832V73.4033H24.9736ZM6.77832 73.4033V79.5H0.5V73.4033H6.77832ZM65.5 59.5322V72.4033H59.2217V59.5322H65.5ZM6.77832 59.5322V72.4033H0.5V59.5322H6.77832ZM65.5 35.6611V41.7578H59.2217V35.6611H65.5ZM23.3193 0.5V22.7256H0.5V0.5H23.3193ZM65.5 7.59668V20.4678H59.2217V7.59668H65.5ZM12.0039 5.14551C8.76517 5.14551 6.11621 7.70177 6.11621 10.8828V12.3438C6.11637 15.5247 8.76527 18.0811 12.0039 18.0811H14.6338C16.3163 18.0809 17.7031 16.7509 17.7031 15.083V12.7119C17.7029 11.8499 16.9897 11.1721 16.1367 11.1719C15.2835 11.1719 14.5696 11.8497 14.5693 12.7119V15.0078H12.0039C10.4705 15.0078 9.25016 13.8024 9.25 12.3438V10.8828C9.25 9.42398 10.4704 8.21777 12.0039 8.21777H16.1396C16.9909 8.21777 17.7031 7.54206 17.7031 6.68164C17.7031 5.82125 16.9909 5.14551 16.1396 5.14551H12.0039ZM65.5 0.5V6.59668H59.2217V0.5H65.5ZM58.2217 0.5V6.59668H42.6807V0.5H58.2217Z" fill="white" stroke="white"/>
</svg>
