<svg width="84" height="66" viewBox="0 0 84 66" fill="none" xmlns="http://www.w3.org/2000/svg">
<g clip-path="url(#clip0_1343_890)">
<path d="M82.7205 26.0132C81.921 23.9842 80.279 22.1727 78.2806 20.8666C72.5115 17.3254 63.7194 17.0732 57.775 20.2746C54.533 21.8724 52.4022 25.0343 51.739 28.2905C50.5362 33.6403 50.8469 40.0055 55.1105 44.0154C60.0821 48.2283 67.3179 49.1591 73.7522 47.4285C74.0578 47.3717 75.0267 47.1359 75.6948 46.7932L75.883 46.7152C77.8814 45.9125 79.7872 44.6054 81.21 42.8353C84.4939 38.194 84.7189 31.2397 82.7205 26.0132ZM72.2447 38.0265C72.0176 39.041 71.3117 40.0921 70.1985 40.4733C68.4261 41.2269 66.0285 41.018 64.3865 40.1364C63.0095 39.2056 62.8322 37.6473 62.655 36.1727C62.5206 33.2658 62.3035 30.1877 63.1459 27.5301C63.806 25.8842 65.6272 25.4607 67.2741 25.3365C69.0036 25.3365 70.6874 25.5916 71.7558 26.9401C72.4209 27.9074 72.3801 29.1732 72.5115 30.3128C72.4647 32.7143 72.6878 35.5788 72.2447 38.0265ZM19.6443 40.6446C18.1787 40.558 16.5367 40.6821 15.1179 40.5137L15.1617 25.7119L15.2513 25.5887L19.6443 25.5473C19.6901 23.1449 19.734 20.5682 19.5985 18.3784L2.86764 18.3332L0.112516 18.3794C0.0687049 20.6124 0.0687049 23.2238 0.112516 25.503C1.62301 25.5483 3.0409 25.503 4.50658 25.6349V39.9698L4.46376 40.5589L0.0687049 40.6455C-0.0229017 42.9637 -0.0229017 45.2845 0.0687049 47.6027H19.6433L19.6443 40.6446ZM68.912 50.7617C67.05 53.3365 64.6972 55.8237 62.1283 57.7583C62.0347 57.8902 61.7688 57.8401 61.6842 57.7189C60.571 57.0461 59.3731 56.4955 58.3057 55.8236C59.7276 54.1806 61.1047 52.5366 62.1701 50.7165H60.789C59.6858 52.2825 58.5288 53.9255 57.0651 55.3125C55.1105 54.555 53.3361 53.8813 51.3388 53.3711L51.1167 53.2104C51.4274 52.3585 52.0029 51.5587 52.1791 50.7146H50.9813L49.7835 52.9929C47.1677 52.4452 44.2812 52.1468 41.6176 51.9803C41.4832 51.602 41.6595 51.0534 41.4832 50.7146H40.3292C40.2376 51.2218 40.4626 51.6039 40.1958 52.0246C37.4436 52.1468 34.7811 52.4452 32.2092 52.9563L31.0064 50.7146C30.5673 50.7146 30.0734 50.6337 29.7667 50.7598L30.874 53.2479L30.7415 53.3711C28.7522 53.9275 26.7962 54.5901 24.8828 55.3559L24.7065 55.2692C23.4609 53.9621 22.2621 52.5347 21.2843 51.1005C21.0642 50.3796 20.1761 50.8012 19.6872 50.7165C20.7486 52.5742 22.1734 54.2162 23.5913 55.9055C22.3935 56.5821 21.1996 57.3367 19.951 57.8902C17.2359 55.8913 14.8691 53.4854 12.9402 50.7636C12.4065 50.6809 12.0551 50.7184 11.5184 50.7636C14.7146 55.5705 19.6872 59.7854 24.8808 62.2735C24.8808 62.2735 24.8808 62.236 24.9286 62.236C24.9664 62.236 25.055 62.314 24.9664 62.3582C28.4753 64.0032 32.2062 65.1833 36.1532 65.6915C49.7815 67.4183 62.7884 61.8135 70.3299 50.7636C69.8586 50.7167 69.3835 50.7161 68.912 50.7617ZM50.4068 54.556L50.5372 54.4713C52.451 54.8929 54.2671 55.4839 55.9549 56.2828C54.533 57.8392 52.7128 59.1915 51.0281 60.3292C50.0085 60.9173 48.9839 61.5565 47.9175 62.0589L46.0127 61.2581L46.1431 60.9664C47.7442 58.9018 49.1651 56.791 50.4068 54.556ZM41.6595 53.2903C44.1916 53.3365 46.7226 53.5887 49.0715 54.1344L49.1183 54.2624C47.8777 56.5369 46.3204 58.7343 44.6366 60.7961C43.8779 60.8827 43.171 60.591 42.4172 60.5458L41.6585 60.4592C41.5718 57.9711 41.525 55.7784 41.6595 53.2903ZM33.0964 54.0487C35.4044 53.6272 37.8001 53.2903 40.2844 53.2903L40.3302 60.4236C39.3962 60.6276 38.3756 60.6276 37.4874 60.8442C35.6673 58.7728 34.1598 56.5369 32.8743 54.2162L33.0964 54.0487ZM25.9462 56.328C27.6817 55.5243 29.4989 54.9304 31.3609 54.4703L31.5411 54.5146C32.8245 56.8343 34.4246 59.025 36.0218 61.2177C35.4054 61.5574 34.6467 61.7605 34.0274 62.1032C31.0256 60.6698 28.2943 58.7592 25.9472 56.4512V56.328H25.9462ZM31.6745 63.5373C27.9456 62.6066 24.4805 61.0049 21.2853 58.8161V58.6852C22.3507 58.0586 23.4201 57.382 24.5701 56.9132C27.1022 59.3234 29.7189 61.1368 32.5597 62.8617C32.3386 63.1148 31.9842 63.3689 31.6745 63.5373ZM48.1405 64.0821C43.4368 65.0581 38.1964 65.0957 33.4937 64.0013C33.404 63.7915 33.7157 63.7462 33.8481 63.623C37.9763 61.0482 44.4096 61.0482 48.4532 63.828C48.5846 64.0821 48.2302 64.0013 48.1405 64.0821ZM52.4032 62.9059L50.3172 63.5364C49.9607 63.3679 49.652 63.1148 49.3384 62.8607L49.428 62.7317C52.2697 61.1358 54.8427 59.1906 57.2851 56.8718C58.484 57.3348 59.639 57.971 60.7074 58.6843C58.2191 60.591 55.3325 61.85 52.4032 62.9059ZM12.8536 15.1299C13.9515 13.6611 15.1525 12.267 16.4481 10.9573C17.5982 9.90336 18.6676 8.89174 19.9122 8.12942C21.0672 8.84554 22.3527 9.44231 23.4619 10.1142C22.0868 11.7504 20.6659 13.4021 19.6453 15.1684C19.954 15.3003 20.5335 15.2589 20.9786 15.1684C22.0868 13.611 23.2817 12.0517 24.7075 10.6589C26.6113 11.3356 28.4783 12.0498 30.4338 12.558L30.6061 12.7255L29.5009 15.1684C29.9908 15.2589 30.3014 15.2146 30.7863 15.1684C31.1846 14.4561 31.4933 13.6572 31.9374 12.9363C34.5153 13.4868 37.2236 13.7804 39.9757 13.8622C40.3282 14.1616 40.0633 14.7911 40.1968 15.1684H41.3946C41.525 14.7545 41.3498 14.2848 41.525 13.9094C44.1019 13.7785 46.8083 13.5254 49.3025 12.9344L49.5186 12.9786L50.7174 15.1665C51.1177 15.1665 51.6494 15.2569 51.9601 15.0798L50.8479 12.6408L50.9405 12.5561C52.9787 12.0498 54.8905 11.2913 56.843 10.5338C58.2231 11.9247 59.5066 13.5687 60.6646 15.1655C61.1505 15.1655 61.6394 15.2117 61.9948 15.0789C61.4466 14.1375 60.8072 13.2486 60.0851 12.4242C59.4988 11.6167 58.8447 10.8573 58.1295 10.1536V9.93512L61.2371 8.20931L61.6852 8.04087C64.3877 10.0183 66.7527 12.3931 68.694 15.0789C69.2267 15.0789 69.6717 15.256 70.1168 15.0433C64.1625 6.44885 54.3548 0.919121 43.7515 0.12311L43.7047 0.204925L43.614 0.12311C42.4172 -0.00105575 40.9465 -0.0501447 39.6611 0.0740214C39.1742 0.0374454 38.5987 0.0740214 38.0201 0.12311C27.3691 0.919121 17.5603 6.19281 11.4317 15.1703C11.8758 15.1299 12.4085 15.3012 12.8536 15.1299ZM31.2772 11.4251L31.1 11.4617C29.2778 11.0026 27.5005 10.4491 25.8138 9.73492L25.8994 9.48177C28.3409 7.24774 30.9148 5.39103 33.7555 3.96071C34.4246 4.21385 35.0898 4.42272 35.7549 4.72207L35.6245 5.05125C33.9348 7.08026 32.6065 9.26809 31.2772 11.4251ZM40.1072 12.5599C38.8675 12.7284 37.7573 12.5224 36.5097 12.429C35.3168 12.2596 33.8043 12.1374 32.6065 11.7524C33.8939 9.44423 35.4054 7.20539 37.2236 5.14462L40.0653 5.51904C40.1968 7.70783 40.1072 10.2393 40.1072 12.5599ZM41.4822 12.6052C41.3946 10.3634 41.4404 7.87916 41.4822 5.55947C42.3734 5.43626 43.3452 5.30536 44.2354 5.1812C45.9659 7.28624 47.6566 9.44423 48.8116 11.7524C46.4116 12.3137 43.9515 12.5999 41.4822 12.6052ZM55.6462 9.64925C53.9117 10.3625 52.1343 11.0382 50.2285 11.4251C48.8535 9.19012 47.345 6.9561 45.6533 4.79715C46.2756 4.467 47.0343 4.21385 47.6984 3.87793C50.589 5.26782 53.382 7.24774 55.7318 9.51738L55.6462 9.64925ZM49.9607 2.43992C53.6896 3.36972 57.1965 4.96944 60.3927 7.16208L60.3041 7.33052L57.2443 8.97259H57.0183C54.6694 6.70391 51.9183 4.72207 49.1183 3.15796C49.2069 2.86247 49.653 2.64975 49.9607 2.43992ZM48.1873 2.0164V2.10592C44.323 4.79715 38.066 5.05125 33.9845 2.56312C33.7555 2.39468 33.3174 2.31286 33.2696 2.01737C37.9773 0.96821 43.5224 0.883508 48.1873 2.0164ZM21.109 7.24774C23.908 5.26782 27.0136 3.79227 30.2994 2.77969C30.4338 2.64782 30.5195 2.52366 30.6947 2.52366V2.61028C31.0492 2.69306 31.317 2.31094 31.6267 2.56119C31.8946 2.77969 32.2082 2.94621 32.4273 3.15604C29.6771 4.79715 26.9678 6.74049 24.4815 9.09676C23.2827 8.68287 22.1774 8.04664 21.108 7.33052L21.109 7.24774ZM40.153 40.9738C35.9809 42.072 31.4505 41.2346 28.4335 38.194C28.08 37.7724 27.856 37.27 27.4995 36.8503L21.5093 36.8907C21.4147 40.3048 21.3729 44.2271 21.5093 47.6017L28.1646 47.5603L28.2532 45.5352C29.011 45.8721 29.7667 46.2927 30.5195 46.671C35.1356 48.5286 41.078 48.9502 45.6513 46.671C48.9829 44.9047 50.7593 41.4906 50.2694 37.8147C49.7835 34.2351 46.2308 30.9866 42.6382 30.1039L31.8936 27.1076L31.099 26.7264C30.7435 26.4338 30.5205 26.0565 30.6071 25.5887C31.4505 24.2007 33.406 24.6223 34.8707 24.6599C37.9773 25.0824 41.1726 26.094 42.9937 28.8363C44.9443 28.8363 47.2076 28.8729 49.3364 28.792C49.427 25.3356 49.3015 22.3017 49.2488 18.801C47.2514 18.7567 44.8089 18.7567 42.8145 18.8452C42.7249 19.3467 42.9001 20.0609 42.6781 20.5691L40.6379 19.5142C35.7529 17.5333 28.9164 17.3264 24.4795 20.4045C21.5929 22.4249 20.7078 26.0546 21.4625 29.2579C22.037 32.2889 25.055 34.5258 27.9416 35.5769C31.8916 36.9244 36.0178 37.9004 40.0195 39.2056C40.4158 39.3769 40.9475 39.7591 40.8619 40.222C40.8639 40.5965 40.4616 40.813 40.153 40.9738Z" fill="white"/>
</g>
<defs>
<clipPath id="clip0_1343_890">
<rect width="84" height="66" fill="white"/>
</clipPath>
</defs>
</svg>
