<svg width="160" height="51" viewBox="0 0 160 51" fill="none" xmlns="http://www.w3.org/2000/svg">
<path d="M148.815 17.7584C148.752 16.6524 150.047 13.9033 150.047 13.9033L159.305 33.3364L160 35.1375L155.545 35.1691L153.397 29.4498L144.171 29.4814L145.182 26.7007L152.259 26.8271C152.259 26.8271 148.878 18.8643 148.815 17.7584Z" fill="white"/>
<path d="M145.245 15.1989C143.728 17.0316 136.967 35.1376 136.967 35.1376H141.074L149.226 13.8717C149.226 13.8717 146.761 13.3662 145.245 15.1989Z" fill="white"/>
<path d="M101.39 13.9665C103.012 13.9349 105.422 13.9665 105.624 13.9665L105.561 17.158C105.561 17.158 102.622 17.158 101.991 17.3476L101.984 17.3495C101.346 17.541 99.431 18.1154 99.3365 20.9182C99.2417 23.7305 99.3681 24.552 99.3681 27.5855C99.3681 30.619 102.085 32.0409 102.938 32.0409C103.792 32.0409 105.498 32.0725 105.498 32.0725L105.529 35.1375C105.529 35.1375 105.182 35.1691 101.675 35.1059C98.1675 35.0427 95.9558 30.4294 95.7346 27.3327C95.5135 24.2361 95.4818 26.8903 95.6714 21.4238C95.861 15.9572 99.7683 13.9981 101.39 13.9665Z" fill="white"/>
<path d="M106.54 17.158L106.603 13.9665C106.603 13.9665 106.983 13.9033 110.584 14.0297C114.186 14.1561 115.829 18.3271 115.956 20.5706C116.082 22.8141 116.398 23.6357 116.051 28.2175C115.703 32.7993 111.058 35.0111 110.016 35.106C108.973 35.2008 106.572 35.1692 106.572 35.1692L106.477 32.0409C106.477 32.0409 107.93 32.1357 109.257 31.8829C110.585 31.6301 112.512 29.197 112.575 27.9015C112.638 26.606 112.607 26.0056 112.67 21.9294C112.733 17.8532 110.079 17.2844 109.384 17.2528C108.689 17.2212 106.54 17.158 106.54 17.158Z" fill="white"/>
<path d="M119.368 33.1784C119.21 30.9665 119.242 13.9665 119.242 13.9665H123.223L123.381 31.3773H135.987L135.924 35.1375C135.924 35.1375 121.927 35.1691 121.422 35.1691C120.916 35.1691 119.526 35.3903 119.368 33.1784Z" fill="white"/>
<path d="M77.7567 35.1375L77.8199 13.9665C77.8199 13.9665 76.5876 13.9349 76.1137 13.9349C76.1137 13.9349 74.0916 13.7138 73.9336 16.5576C73.7756 19.4015 73.902 35.1375 73.902 35.1375H77.7567Z" fill="white"/>
<path d="M78.7994 17.1264L78.7678 13.9349C78.7678 13.9349 86.1927 13.9981 88.8152 13.9665C91.4376 13.9349 92.5751 16.4628 92.6698 17.3792C92.7646 18.2955 92.733 22.6245 92.7014 23.9833C92.6698 25.342 90.8689 27.2379 89.2891 27.3011C87.7093 27.3643 85.3713 27.3327 85.3713 27.3327C85.3713 27.3327 93.0174 33.5892 93.2386 34C93.4597 34.4108 93.1438 35.1059 92.7962 35.1375C92.4487 35.1692 88.3412 35.1375 88.3412 35.1375C88.3412 35.1375 80.8215 27.9015 80.4739 26.7955C80.1264 25.6896 80.1896 25.2788 80.1896 25.2788C80.1896 25.2788 80.316 24.1729 81.1691 24.0465C82.0221 23.9201 86.8563 24.0781 86.8563 24.0781C86.8563 24.0781 88.7836 24.2992 88.8152 23.2881C88.8468 22.2769 88.8468 21.329 88.8468 19.3067C88.8468 17.2844 87.7409 17.158 87.1722 17.158C86.6035 17.158 78.7994 17.1264 78.7994 17.1264Z" fill="white"/>
<path d="M67.8357 31.7565L67.8357 24.4888L71.8483 24.5204C71.8483 24.5204 72.0063 32.0409 71.8799 32.7045C71.7535 33.368 71.6903 34.8532 70.1105 35.0428C68.5308 35.2323 67.0458 35.1375 67.0458 35.1375C67.0458 35.1375 67.109 33.0731 67.0774 31.7565H67.8357Z" fill="white"/>
<path d="M26.2505 0H41.0743V4.52419H26.2505V0Z" fill="white"/>
<path d="M36.5448 13.3669V0H41.0743V13.3669H36.5448Z" fill="white"/>
<path d="M36.5448 26.9395V22.4153H41.0743V26.9395H36.5448Z" fill="white"/>
<path d="M36.5448 51V37.6331H41.0743V51H36.5448Z" fill="white"/>
<path d="M41.0743 51H25.221L25.221 46.4758H41.0743V51Z" fill="white"/>
<path d="M4.52949 51V37.6331H2.36395e-07L3.9598e-07 51H4.52949Z" fill="white"/>
<path d="M3.9598e-07 51H15.8532V46.4758H0L3.9598e-07 51Z" fill="white"/>
<path fill-rule="evenodd" clip-rule="evenodd" d="M14.8238 0H3.9598e-07V14.8065H14.8238V0ZM7.47035 3.59879C5.61833 3.59879 4.11772 5.094 4.11772 6.9375V7.86895C4.11772 9.71245 5.61833 11.2077 7.47035 11.2077H9.10696C9.99054 11.2077 10.7061 10.4944 10.7061 9.61543V8.10415C10.7061 7.73791 10.4088 7.44103 10.0422 7.44103C9.67552 7.44103 9.37828 7.73791 9.37828 8.10415V9.61543C9.37828 9.76532 9.25639 9.88609 9.10696 9.88609H7.47035C6.35248 9.88609 5.44551 8.9834 5.44551 7.86895V6.9375C5.44551 5.82305 6.35248 4.92037 7.47035 4.92037H10.0445C10.4099 4.92037 10.7061 4.62452 10.7061 4.25958C10.7061 3.89464 10.4099 3.59879 10.0445 3.59879H7.47035Z" fill="white"/>
<path d="M71.2796 17.2844L71.3428 13.9665C71.3428 13.9665 60 13.8086 56.8089 14.1877C53.6177 14.5669 52.8278 18.3903 52.5119 19.4647C52.1959 20.539 52.038 27.5855 52.5435 29.3866C53.049 31.1877 54.5655 33.9368 57.0616 34.632C59.5577 35.3271 66.0664 35.1375 66.0664 35.1375L66.098 31.7565C66.098 31.7565 60.9163 31.8197 59.2101 31.6301C57.504 31.4405 56.3981 29.6078 56.1453 28.8178C55.8926 28.0279 55.8926 23.3197 56.0506 21.7398C56.2085 20.1598 56.7141 17.8532 58.1675 17.5056C59.6209 17.158 71.2796 17.2844 71.2796 17.2844Z" fill="white"/>
</svg>
