<svg width="171" height="54" viewBox="0 0 171 54" fill="none" xmlns="http://www.w3.org/2000/svg">
<path d="M159.046 19.7182C158.979 18.5472 160.363 15.6364 160.363 15.6364L170.257 36.2126L171 38.1197L166.239 38.1532L163.943 32.0974L154.082 32.1309L155.163 29.1866L162.727 29.3205C162.727 29.3205 159.114 20.8892 159.046 19.7182Z" fill="#2B2E3A"/>
<path d="M155.23 17.0082C153.61 18.9487 146.383 38.1197 146.383 38.1197H150.773L159.485 15.603C159.485 15.603 156.851 15.0677 155.23 17.0082Z" fill="#2B2E3A"/>
<path d="M108.361 15.7034C110.094 15.6699 112.67 15.7034 112.886 15.7034L112.818 19.0825C112.818 19.0825 109.678 19.0825 109.002 19.2833L108.996 19.2853C108.313 19.4881 106.267 20.0963 106.166 23.0639C106.065 26.0416 106.2 26.9115 106.2 30.1234C106.2 33.3353 109.104 34.8409 110.015 34.8409C110.927 34.8409 112.751 34.8744 112.751 34.8744L112.784 38.1197C112.784 38.1197 112.413 38.1532 108.665 38.0863C104.917 38.0193 102.553 33.1346 102.316 29.8558C102.08 26.577 102.046 29.3874 102.249 23.5993C102.451 17.8112 106.627 15.7368 108.361 15.7034Z" fill="#2B2E3A"/>
<path d="M113.865 19.0825L113.932 15.7034C113.932 15.7034 114.338 15.6364 118.187 15.7703C122.037 15.9041 123.793 20.3205 123.928 22.6959C124.063 25.0714 124.4 25.9413 124.029 30.7926C123.658 35.6439 118.694 37.9859 117.579 38.0863C116.465 38.1866 113.899 38.1532 113.899 38.1532L113.797 34.8409C113.797 34.8409 115.351 34.9413 116.769 34.6736C118.187 34.406 120.247 31.8298 120.315 30.458C120.382 29.0863 120.348 28.4506 120.416 24.1346C120.483 19.8186 117.647 19.2164 116.904 19.1829C116.161 19.1495 113.865 19.0825 113.865 19.0825Z" fill="#2B2E3A"/>
<path d="M127.575 36.0454C127.406 33.7034 127.44 15.7034 127.44 15.7034H131.694L131.863 34.1383H145.336L145.269 38.1197C145.269 38.1197 130.31 38.1532 129.77 38.1532C129.229 38.1532 127.743 38.3874 127.575 36.0454Z" fill="#2B2E3A"/>
<path d="M83.1025 38.1197L83.17 15.7034C83.17 15.7034 81.853 15.6699 81.3465 15.6699C81.3465 15.6699 79.1854 15.4357 79.0166 18.4469C78.8477 21.458 78.9828 38.1197 78.9828 38.1197H83.1025Z" fill="#2B2E3A"/>
<path d="M84.2168 19.0491L84.1831 15.6699C84.1831 15.6699 92.1185 15.7368 94.9212 15.7034C97.724 15.6699 98.9396 18.3465 99.0409 19.3167C99.1422 20.287 99.1084 24.8706 99.0747 26.3093C99.0409 27.748 97.1161 29.7554 95.4277 29.8223C93.7394 29.8892 91.2405 29.8558 91.2405 29.8558C91.2405 29.8558 99.4123 36.4803 99.6487 36.9152C99.8851 37.3502 99.5474 38.0862 99.176 38.1197C98.8045 38.1532 94.4147 38.1197 94.4147 38.1197C94.4147 38.1197 86.378 30.458 86.0065 29.287C85.6351 28.116 85.7026 27.681 85.7026 27.681C85.7026 27.681 85.8377 26.51 86.7494 26.3762C87.6612 26.2424 92.8276 26.4097 92.8276 26.4097C92.8276 26.4097 94.8875 26.6439 94.9212 25.5732C94.955 24.5026 94.955 23.4989 94.955 21.3576C94.955 19.2164 93.7731 19.0825 93.1653 19.0825C92.5575 19.0825 84.2168 19.0491 84.2168 19.0491Z" fill="#2B2E3A"/>
<path d="M72.4994 34.5398L72.4994 26.8446L76.7879 26.8781C76.7879 26.8781 76.9567 34.8409 76.8216 35.5435C76.6866 36.2461 76.619 37.8186 74.9306 38.0193C73.2423 38.2201 71.6552 38.1197 71.6552 38.1197C71.6552 38.1197 71.7227 35.9338 71.6889 34.5398H72.4994Z" fill="#2B2E3A"/>
<path d="M28.0552 0H43.8981V4.79032H28.0552V0Z" fill="#2B2E3A"/>
<path d="M39.0572 14.1532V0H43.8981V14.1532H39.0572Z" fill="#2B2E3A"/>
<path d="M39.0572 28.5242V23.7339H43.8981V28.5242H39.0572Z" fill="#2B2E3A"/>
<path d="M39.0572 54V39.8468H43.8981V54H39.0572Z" fill="#2B2E3A"/>
<path d="M43.8981 54H26.955L26.955 49.2097H43.8981V54Z" fill="#2B2E3A"/>
<path d="M4.84089 54V39.8468H2.52647e-07L4.23204e-07 54H4.84089Z" fill="#2B2E3A"/>
<path d="M4.23204e-07 54H16.9431V49.2097H0L4.23204e-07 54Z" fill="#2B2E3A"/>
<path fill-rule="evenodd" clip-rule="evenodd" d="M15.8429 0H4.23204e-07V15.6774H15.8429V0ZM7.98393 3.81048C6.00459 3.81048 4.40081 5.39364 4.40081 7.34559V8.33183C4.40081 10.2838 6.00459 11.8669 7.98393 11.8669H9.73307C10.6774 11.8669 11.4421 11.1117 11.4421 10.181V8.58087C11.4421 8.19309 11.1244 7.87874 10.7326 7.87874C10.3407 7.87874 10.023 8.19309 10.023 8.58087V10.181C10.023 10.3398 9.89277 10.4676 9.73307 10.4676H7.98393C6.78921 10.4676 5.81989 9.51184 5.81989 8.33183V7.34559C5.81989 6.16558 6.78921 5.2098 7.98393 5.2098H10.7351C11.1256 5.2098 11.4421 4.89655 11.4421 4.51014C11.4421 4.12373 11.1256 3.81048 10.7351 3.81048H7.98393Z" fill="#2B2E3A"/>
<path d="M76.1801 19.2164L76.2477 15.7034C76.2477 15.7034 64.125 15.5361 60.7145 15.9376C57.3039 16.339 56.4597 20.3874 56.122 21.5249C55.7844 22.6625 55.6156 30.1234 56.1559 32.0305C56.6961 33.9376 58.3169 36.8483 60.9846 37.5844C63.6523 38.3205 70.6084 38.1197 70.6084 38.1197L70.6422 34.5398C70.6422 34.5398 65.1043 34.6067 63.2808 34.406C61.4574 34.2052 60.2755 32.2647 60.0053 31.4283C59.7352 30.5918 59.7352 25.6067 59.904 23.9338C60.0729 22.261 60.6132 19.8186 62.1665 19.4506C63.7198 19.0825 76.1801 19.2164 76.1801 19.2164Z" fill="#2B2E3A"/>
</svg>
