<svg width="53" height="69" viewBox="0 0 53 69" fill="none" xmlns="http://www.w3.org/2000/svg">
<rect width="53" height="60" fill="#2B2E3A"/>
<path d="M42.5 46.9512V49.5H39.8613V46.9512H42.5ZM38.8613 46.9512V49.5H30.7627V46.9512H38.8613ZM22.2373 46.9512V49.5H14.1387V46.9512H22.2373ZM13.1387 46.9512V49.5H10.5V46.9512H13.1387ZM42.5 40.0166V45.9512H39.8613V40.0166H42.5ZM13.1387 40.0166V45.9512H10.5V40.0166H13.1387ZM42.5 28.0811V30.6289H39.8613V28.0811H42.5ZM21.4102 10.5V21.1133H10.5V10.5H21.4102ZM42.5 14.0488V19.9834H39.8613V14.0488H42.5ZM16.002 12.3223C14.2512 12.3223 12.8086 13.7062 12.8086 15.4414V16.1719C12.8087 17.907 14.2512 19.29 16.002 19.29H17.3164C18.289 19.29 19.1013 18.5204 19.1016 17.542V16.3564C19.1016 15.7813 18.627 15.3361 18.0684 15.3359C17.5096 15.3359 17.0352 15.7812 17.0352 16.3564V17.2539H16.002C15.3667 17.2539 14.8751 16.7566 14.875 16.1719V15.4414C14.875 14.8567 15.3666 14.3594 16.002 14.3594H18.0703C18.6279 14.3592 19.1016 13.9149 19.1016 13.3408C19.1015 12.7668 18.6279 12.3224 18.0703 12.3223H16.002ZM42.5 10.5V13.0488H39.8613V10.5H42.5ZM38.8613 10.5V13.0488H31.5898V10.5H38.8613Z" fill="white" stroke="white"/>
<path d="M27 69L21.8038 60L32.1962 60L27 69Z" fill="#2B2E3A"/>
</svg>
