<svg width="40" height="40" viewBox="0 0 40 40" fill="none" xmlns="http://www.w3.org/2000/svg">
<path d="M34.7559 8.5775L26.4225 0.244141C26.2663 0.0878906 26.0547 0 25.8333 0H8.33328C6.49492 0 5 1.49492 5 3.33336V36.6667C5 38.5051 6.49492 40 8.33336 40H31.6667C33.5051 40 35 38.5051 35 36.6666V9.16664C35 8.94531 34.9121 8.73375 34.7559 8.5775ZM26.6666 2.84508L32.1549 8.33336H28.3333C27.4145 8.33336 26.6666 7.58547 26.6666 6.66672V2.84508ZM33.3334 36.6666C33.3334 37.5854 32.5855 38.3333 31.6667 38.3333H8.33336C7.41461 38.3333 6.66672 37.5854 6.66672 36.6666V3.33336C6.66672 2.41461 7.41461 1.66672 8.33336 1.66672H25V6.66672C25 8.50508 26.4949 10 28.3334 10H33.3334V36.6666Z" fill="#457FCA"/>
<path d="M24.2488 24.4636C23.4773 23.8565 22.7441 23.2324 22.2559 22.7441C21.6211 22.1093 21.0555 21.4941 20.564 20.9082C21.3306 18.5392 21.6667 17.3177 21.6667 16.6666C21.6667 13.9005 20.6673 13.3333 19.1667 13.3333C18.0266 13.3333 16.6667 13.9257 16.6667 16.7464C16.6667 17.9899 17.3479 19.4995 18.698 21.254C18.3676 22.2623 17.9794 23.4253 17.5432 24.7363C17.3332 25.3654 17.1054 25.948 16.8645 26.4868C16.6684 26.5739 16.4779 26.6625 16.294 26.7545C15.6316 27.0858 15.0025 27.3836 14.419 27.6603C11.7578 28.92 10 29.7534 10 31.3989C10 32.5936 11.298 33.3333 12.5 33.3333C14.0495 33.3333 16.3891 31.2637 18.0981 27.7774C19.8722 27.0775 22.0777 26.5591 23.8184 26.2344C25.2132 27.307 26.7537 28.3333 27.5 28.3333C29.5662 28.3333 30 27.1386 30 26.1368C30 24.1665 27.749 24.1665 26.6666 24.1665C26.3305 24.1666 25.4289 24.2659 24.2488 24.4636ZM12.5 31.6666C12.0239 31.6666 11.7016 31.442 11.6666 31.3989C11.6666 30.808 13.4285 29.9731 15.1327 29.1658C15.2409 29.1146 15.3508 29.0633 15.4623 29.0104C14.2106 30.8252 12.9728 31.6666 12.5 31.6666ZM18.3334 16.7464C18.3334 15 18.8754 15 19.1667 15C19.7559 15 20.0001 15 20.0001 16.6666C20.0001 17.0182 19.7657 17.8971 19.3368 19.2692C18.6824 18.2617 18.3334 17.3983 18.3334 16.7464ZM18.9722 25.7031C19.0243 25.5583 19.0748 25.4118 19.1236 25.2636C19.4328 24.3359 19.7112 23.5025 19.9594 22.7522C20.3052 23.1331 20.678 23.5229 21.0776 23.9225C21.2338 24.0787 21.6212 24.4303 22.1372 24.8705C21.11 25.0943 20.0171 25.3718 18.9722 25.7031ZM28.3334 26.1368C28.3334 26.5112 28.3334 26.6666 27.5602 26.6715C27.3332 26.6227 26.8083 26.3135 26.1605 25.8724C26.3956 25.8464 26.569 25.8333 26.6666 25.8333C27.898 25.8333 28.2471 25.9537 28.3334 26.1368Z" fill="#2B2E3A"/>
</svg>
