<svg width="117" height="117" viewBox="0 0 117 117" fill="none" xmlns="http://www.w3.org/2000/svg">
<mask id="mask0_1343_435" style="mask-type:luminance" maskUnits="userSpaceOnUse" x="0" y="0" width="117" height="117">
<path d="M117 0H0V117H117V0Z" fill="white"/>
</mask>
<g mask="url(#mask0_1343_435)">
<path d="M104.891 87.4686C104.769 87.4686 104.688 87.3873 104.688 87.2654V80.8467C104.688 80.7248 104.769 80.6436 104.891 80.6436C105.012 80.6436 105.094 80.7248 105.094 80.8467V87.2654C105.094 87.3873 104.972 87.4686 104.891 87.4686Z" fill="white"/>
<path d="M104.891 26.1902C104.769 26.1902 104.688 26.109 104.688 25.9871V19.5684C104.688 19.4465 104.769 19.3652 104.891 19.3652C105.012 19.3652 105.094 19.4465 105.094 19.5684V25.9871C105.094 26.0684 104.972 26.1902 104.891 26.1902Z" fill="white"/>
<path d="M29.4531 45.9505C29.3312 45.9505 29.25 45.8692 29.25 45.7474V39.3286C29.25 39.2067 29.3312 39.1255 29.4531 39.1255C29.575 39.1255 29.6562 39.2067 29.6562 39.3286V45.7474C29.6562 45.8692 29.5344 45.9505 29.4531 45.9505Z" fill="white"/>
<path d="M29.4531 108.229C29.3312 108.229 29.25 108.148 29.25 108.026V101.607C29.25 101.485 29.3312 101.404 29.4531 101.404C29.575 101.404 29.6562 101.485 29.6562 101.607V108.026C29.6562 108.148 29.5344 108.229 29.4531 108.229Z" fill="white"/>
<path d="M67.1523 108.229C67.0305 108.229 66.9492 108.148 66.9492 108.026V101.607C66.9492 101.485 67.0305 101.404 67.1523 101.404C67.2742 101.404 67.3555 101.485 67.3555 101.607V108.026C67.3555 108.148 67.2742 108.229 67.1523 108.229Z" fill="white"/>
<path d="M104.891 45.9505C104.769 45.9505 104.688 45.8692 104.688 45.7474V39.3286C104.688 39.2067 104.769 39.1255 104.891 39.1255C105.012 39.1255 105.094 39.2067 105.094 39.3286V45.7474C105.094 45.8692 104.972 45.9505 104.891 45.9505Z" fill="white"/>
<path d="M29.4531 66.7098C29.3312 66.7098 29.25 66.6285 29.25 66.5066V60.0879C29.25 59.966 29.3312 59.8848 29.4531 59.8848C29.575 59.8848 29.6562 59.966 29.6562 60.0879V66.5066C29.6562 66.6285 29.5344 66.7098 29.4531 66.7098Z" fill="white"/>
<path d="M104.891 108.228C104.769 108.228 104.688 108.147 104.688 108.025V101.606C104.688 101.484 104.769 101.403 104.891 101.403C105.012 101.403 105.094 101.484 105.094 101.606V108.025C105.094 108.147 104.972 108.228 104.891 108.228Z" fill="white"/>
<path d="M67.1523 87.4686C67.0305 87.4686 66.9492 87.3873 66.9492 87.2654V80.8467C66.9492 80.7248 67.0305 80.6436 67.1523 80.6436C67.2742 80.6436 67.3555 80.7248 67.3555 80.8467V87.2654C67.3555 87.3873 67.2742 87.4686 67.1523 87.4686Z" fill="white"/>
<path d="M29.4531 87.4686C29.3312 87.4686 29.25 87.3873 29.25 87.2654V80.8467C29.25 80.7248 29.3312 80.6436 29.4531 80.6436C29.575 80.6436 29.6562 80.7248 29.6562 80.8467V87.2654C29.6562 87.3873 29.5344 87.4686 29.4531 87.4686Z" fill="white"/>
<path d="M67.1523 66.7098C67.0305 66.7098 66.9492 66.6285 66.9492 66.5066V60.0879C66.9492 59.966 67.0305 59.8848 67.1523 59.8848C67.2742 59.8848 67.3555 59.966 67.3555 60.0879V66.5066C67.3555 66.6285 67.2742 66.7098 67.1523 66.7098Z" fill="white"/>
<path d="M104.891 66.7098C104.769 66.7098 104.688 66.6285 104.688 66.5066V60.0879C104.688 59.966 104.769 59.8848 104.891 59.8848C105.012 59.8848 105.094 59.966 105.094 60.0879V66.5066C105.094 66.6285 104.972 66.7098 104.891 66.7098Z" fill="white"/>
<path d="M67.1523 45.9505C67.0305 45.9505 66.9492 45.8692 66.9492 45.7474V39.3286C66.9492 39.2067 67.0305 39.1255 67.1523 39.1255C67.2742 39.1255 67.3555 39.2067 67.3555 39.3286V45.7474C67.3555 45.8692 67.2742 45.9505 67.1523 45.9505Z" fill="white"/>
<path d="M29.4531 26.1902C29.3312 26.1902 29.25 26.109 29.25 25.9871V19.5684C29.25 19.4465 29.3312 19.3652 29.4531 19.3652C29.575 19.3652 29.6562 19.4465 29.6562 19.5684V25.9871C29.6562 26.0684 29.5344 26.1902 29.4531 26.1902Z" fill="white"/>
<path d="M67.1523 26.1902C67.0305 26.1902 66.9492 26.109 66.9492 25.9871V19.5684C66.9492 19.4465 67.0305 19.3652 67.1523 19.3652C67.2742 19.3652 67.3555 19.4465 67.3555 19.5684V25.9871C67.3555 26.0684 67.2742 26.1902 67.1523 26.1902Z" fill="white"/>
<path d="M86 77.0279C85.8781 77.0279 85.7969 76.9467 85.7969 76.8248V70.4873C85.7969 70.3654 85.8781 70.2842 86 70.2842C86.1219 70.2842 86.2031 70.3654 86.2031 70.4873V76.8248C86.2031 76.9467 86.1219 77.0279 86 77.0279Z" fill="white"/>
<path d="M48.3047 77.0279C48.1828 77.0279 48.1016 76.9467 48.1016 76.8248V70.4873C48.1016 70.3654 48.1828 70.2842 48.3047 70.2842C48.4266 70.2842 48.5078 70.3654 48.5078 70.4873V76.8248C48.5078 76.9467 48.4266 77.0279 48.3047 77.0279Z" fill="white"/>
<path d="M10.6016 77.0279C10.4797 77.0279 10.3984 76.9467 10.3984 76.8248V70.4873C10.3984 70.3654 10.4797 70.2842 10.6016 70.2842C10.7234 70.2842 10.8047 70.3654 10.8047 70.4873V76.8248C10.8047 76.9467 10.6828 77.0279 10.6016 77.0279Z" fill="white"/>
<path d="M10.6016 36.5094C10.4797 36.5094 10.3984 36.4281 10.3984 36.3062V29.9688C10.3984 29.8469 10.4797 29.7656 10.6016 29.7656C10.7234 29.7656 10.8047 29.8469 10.8047 29.9688V36.3062C10.8047 36.4281 10.6828 36.5094 10.6016 36.5094Z" fill="white"/>
<path d="M10.6016 15.7501C10.4797 15.7501 10.3984 15.6688 10.3984 15.547V9.20947C10.3984 9.0876 10.4797 9.00635 10.6016 9.00635C10.7234 9.00635 10.8047 9.0876 10.8047 9.20947V15.547C10.8047 15.6688 10.6828 15.7501 10.6016 15.7501Z" fill="white"/>
<path d="M48.3047 15.7501C48.1828 15.7501 48.1016 15.6688 48.1016 15.547V9.20947C48.1016 9.0876 48.1828 9.00635 48.3047 9.00635C48.4266 9.00635 48.5078 9.0876 48.5078 9.20947V15.547C48.5078 15.6688 48.4266 15.7501 48.3047 15.7501Z" fill="white"/>
<path d="M86 15.7501C85.8781 15.7501 85.7969 15.6688 85.7969 15.547V9.20947C85.7969 9.0876 85.8781 9.00635 86 9.00635C86.1219 9.00635 86.2031 9.0876 86.2031 9.20947V15.547C86.2031 15.6688 86.1219 15.7501 86 15.7501Z" fill="white"/>
<path d="M10.6016 56.2687C10.4797 56.2687 10.3984 56.1874 10.3984 56.0655V49.728C10.3984 49.6062 10.4797 49.5249 10.6016 49.5249C10.7234 49.5249 10.8047 49.6062 10.8047 49.728V56.0655C10.8047 56.1874 10.6828 56.2687 10.6016 56.2687Z" fill="white"/>
<path d="M48.3047 56.2687C48.1828 56.2687 48.1016 56.1874 48.1016 56.0655V49.728C48.1016 49.6062 48.1828 49.5249 48.3047 49.5249C48.4266 49.5249 48.5078 49.6062 48.5078 49.728V56.0655C48.5078 56.1874 48.4266 56.2687 48.3047 56.2687Z" fill="white"/>
<path d="M86 56.2687C85.8781 56.2687 85.7969 56.1874 85.7969 56.0655V49.728C85.7969 49.6062 85.8781 49.5249 86 49.5249C86.1219 49.5249 86.2031 49.6062 86.2031 49.728V56.0655C86.2031 56.1874 86.1219 56.2687 86 56.2687Z" fill="white"/>
<path d="M86 118.588C85.8781 118.588 85.7969 118.507 85.7969 118.385V112.047C85.7969 111.925 85.8781 111.844 86 111.844C86.1219 111.844 86.2031 111.925 86.2031 112.047V118.385C86.2031 118.466 86.1219 118.588 86 118.588Z" fill="white"/>
<path d="M10.6016 97.8282C10.4797 97.8282 10.3984 97.747 10.3984 97.6251V91.2876C10.3984 91.1657 10.4797 91.0845 10.6016 91.0845C10.7234 91.0845 10.8047 91.1657 10.8047 91.2876V97.6251C10.8047 97.7064 10.6828 97.8282 10.6016 97.8282Z" fill="white"/>
<path d="M48.3047 97.8282C48.1828 97.8282 48.1016 97.747 48.1016 97.6251V91.2876C48.1016 91.1657 48.1828 91.0845 48.3047 91.0845C48.4266 91.0845 48.5078 91.1657 48.5078 91.2876V97.6251C48.5078 97.7064 48.4266 97.8282 48.3047 97.8282Z" fill="white"/>
<path d="M86 97.8282C85.8781 97.8282 85.7969 97.747 85.7969 97.6251V91.2876C85.7969 91.1657 85.8781 91.0845 86 91.0845C86.1219 91.0845 86.2031 91.1657 86.2031 91.2876V97.6251C86.2031 97.7064 86.1219 97.8282 86 97.8282Z" fill="white"/>
<path d="M10.6016 118.588C10.4797 118.588 10.3984 118.507 10.3984 118.385V112.047C10.3984 111.925 10.4797 111.844 10.6016 111.844C10.7234 111.844 10.8047 111.925 10.8047 112.047V118.385C10.8047 118.466 10.6828 118.588 10.6016 118.588Z" fill="white"/>
<path d="M48.3047 118.588C48.1828 118.588 48.1016 118.507 48.1016 118.385V112.047C48.1016 111.925 48.1828 111.844 48.3047 111.844C48.4266 111.844 48.5078 111.925 48.5078 112.047V118.385C48.5078 118.466 48.4266 118.588 48.3047 118.588Z" fill="white"/>
<path d="M86 36.5094C85.8781 36.5094 85.7969 36.4281 85.7969 36.3062V29.9688C85.7969 29.8469 85.8781 29.7656 86 29.7656C86.1219 29.7656 86.2031 29.8469 86.2031 29.9688V36.3062C86.2031 36.4281 86.1219 36.5094 86 36.5094Z" fill="white"/>
<path d="M48.3047 36.5094C48.1828 36.5094 48.1016 36.4281 48.1016 36.3062V29.9688C48.1016 29.8469 48.1828 29.7656 48.3047 29.7656C48.4266 29.7656 48.5078 29.8469 48.5078 29.9688V36.3062C48.5078 36.4281 48.4266 36.5094 48.3047 36.5094Z" fill="white"/>
<path d="M92.5852 59.9249C92.504 59.9249 92.4634 59.8843 92.4227 59.803C92.3821 59.7218 92.3821 59.5999 92.504 59.5187L94.0071 58.6655C94.9415 58.1374 95.8352 57.6093 96.7696 57.1218C97.1352 56.9187 97.4602 56.7562 97.8259 56.5937C97.9884 56.5124 98.1509 56.4312 98.3134 56.3499C98.3946 56.3093 98.5165 56.3499 98.5977 56.4312C98.6384 56.5124 98.5977 56.6343 98.5165 56.7155C98.354 56.7968 98.1915 56.878 98.029 56.9593C97.6634 57.1218 97.3384 57.2843 96.9727 57.4874C96.0384 58.0155 95.1446 58.503 94.2102 59.0312L92.7071 59.8843C92.6259 59.8843 92.5852 59.9249 92.5852 59.9249Z" fill="white"/>
<path d="M117.2 59.9253C117.159 59.9253 117.118 59.9253 117.118 59.8847L115.859 59.194C114.6 58.5034 113.34 57.7722 112.04 57.0815C111.878 57.0003 111.715 56.919 111.553 56.8378C111.471 56.7972 111.39 56.7565 111.309 56.7159C111.187 56.6753 111.146 56.5534 111.187 56.4315C111.228 56.3097 111.35 56.269 111.471 56.3097C111.553 56.3503 111.634 56.3909 111.715 56.3909C111.878 56.4722 112.081 56.5534 112.243 56.6347C113.503 57.3253 114.762 58.0565 116.062 58.7472L117.321 59.4378C117.403 59.4784 117.443 59.6003 117.403 59.7222C117.321 59.8847 117.24 59.9253 117.2 59.9253Z" fill="white"/>
<path d="M111.39 70.2438C111.309 70.2438 111.228 70.2031 111.187 70.1219C111.146 70 111.187 69.9188 111.309 69.8375C111.39 69.7969 111.471 69.7563 111.553 69.7156C111.715 69.6344 111.878 69.5938 112.04 69.4719C113.3 68.7813 114.559 68.05 115.859 67.3594L117.118 66.6688C117.2 66.6281 117.321 66.6688 117.403 66.75C117.443 66.8313 117.403 66.9531 117.321 67.0344L116.062 67.725C114.803 68.4156 113.543 69.1469 112.243 69.8375C112.081 69.9188 111.878 70 111.715 70.0813C111.634 70.1219 111.553 70.1625 111.471 70.1625C111.431 70.2438 111.39 70.2438 111.39 70.2438Z" fill="white"/>
<path d="M98.3917 70.2436C98.3511 70.2436 98.3511 70.2436 98.3105 70.2436C98.2292 70.2029 98.148 70.1623 98.0667 70.1623C97.9042 70.0811 97.7011 69.9998 97.5386 69.9186C96.2792 69.2279 95.0198 68.4967 93.7198 67.8061L92.4605 67.1154C92.3792 67.0748 92.3386 66.9529 92.3792 66.8311C92.4198 66.7498 92.5417 66.7092 92.6636 66.7498L93.923 67.4404C95.1823 68.1311 96.4417 68.8623 97.7417 69.5529C97.9042 69.6342 98.0667 69.7154 98.2292 69.7967C98.3105 69.8373 98.3917 69.8779 98.473 69.9186C98.5948 69.9592 98.6355 70.0811 98.5948 70.2029C98.5136 70.2029 98.4323 70.2436 98.3917 70.2436Z" fill="white"/>
<path d="M73.652 70.2439C73.5707 70.2439 73.4895 70.2032 73.4488 70.122C73.4082 70.0001 73.4488 69.9189 73.5707 69.8376C73.652 69.797 73.7332 69.7564 73.8145 69.7157C73.977 69.6345 74.1395 69.5939 74.302 69.472C75.602 68.7407 76.902 68.0095 78.2426 67.2782L79.3801 66.6282C79.4613 66.5876 79.5832 66.6282 79.6645 66.7095C79.7051 66.7907 79.6645 66.9126 79.5832 66.9939L78.4457 67.6439C77.1457 68.3751 75.8457 69.1064 74.5051 69.8376C74.3426 69.9189 74.1395 70.0001 73.977 70.0814C73.8957 70.122 73.8145 70.1626 73.7332 70.1626C73.7332 70.2439 73.6926 70.2439 73.652 70.2439Z" fill="white"/>
<path d="M22.9503 29.7252C22.9097 29.7252 22.9097 29.7252 22.8691 29.7252C22.7878 29.6846 22.7066 29.644 22.6253 29.644C22.4628 29.5627 22.2597 29.4815 22.0972 29.4002C20.8378 28.7096 19.5784 28.019 18.3191 27.2877L17.0191 26.5158C16.9378 26.4752 16.8972 26.3533 16.9378 26.2315C16.9784 26.1502 17.1003 26.1096 17.2222 26.1502L18.5222 26.8815C19.7816 27.5721 21.0409 28.3033 22.3003 28.994C22.4628 29.0752 22.6253 29.1565 22.7878 29.2377C22.8691 29.2783 22.9503 29.319 23.0316 29.3596C23.1534 29.4002 23.1941 29.5221 23.1534 29.644C23.0722 29.6846 23.0316 29.7252 22.9503 29.7252Z" fill="white"/>
<path d="M73.652 49.4846C73.5707 49.4846 73.4895 49.444 73.4488 49.3627C73.4082 49.2408 73.4488 49.1596 73.5707 49.0783C73.652 49.0377 73.7332 48.9971 73.8145 48.9565C73.977 48.8752 74.1395 48.8346 74.302 48.7127C75.602 47.9815 76.902 47.2502 78.202 46.519L79.3801 45.869C79.4613 45.8283 79.5832 45.869 79.6645 45.9502C79.7051 46.0315 79.6645 46.1533 79.5832 46.2346L78.4051 46.8846C77.1051 47.6158 75.8051 48.3471 74.5051 49.0783C74.3426 49.1596 74.1395 49.2408 73.977 49.3221C73.8957 49.3627 73.8145 49.4033 73.7332 49.4033C73.7332 49.4846 73.6926 49.4846 73.652 49.4846Z" fill="white"/>
<path d="M98.3917 49.4848C98.3511 49.4848 98.3511 49.4848 98.3105 49.4848C98.2292 49.4442 98.148 49.4035 98.0667 49.4035C97.9042 49.3223 97.7011 49.241 97.5386 49.1598C96.2792 48.4692 95.0198 47.7379 93.7198 47.0473L92.4605 46.3567C92.3792 46.316 92.3386 46.1942 92.3792 46.0723C92.4198 45.991 92.5417 45.9504 92.6636 45.991L93.923 46.6817C95.1823 47.3723 96.4417 48.1035 97.7417 48.7942C97.9042 48.8754 98.0667 48.9567 98.2292 49.0379C98.3105 49.0785 98.3917 49.1192 98.473 49.1598C98.5948 49.2004 98.6355 49.3223 98.5948 49.4442C98.5136 49.4442 98.4323 49.4848 98.3917 49.4848Z" fill="white"/>
<path d="M111.39 49.4845C111.309 49.4845 111.228 49.4439 111.187 49.3626C111.146 49.2407 111.187 49.1595 111.309 49.0782C111.39 49.0376 111.471 48.997 111.553 48.9564C111.715 48.8751 111.878 48.8345 112.04 48.7126C113.3 48.022 114.559 47.2907 115.859 46.6001L117.118 45.9095C117.2 45.8689 117.321 45.9095 117.403 45.9907C117.443 46.072 117.403 46.1939 117.321 46.2751L116.062 46.9657C114.803 47.6564 113.543 48.3876 112.243 49.0782C112.081 49.1595 111.878 49.2407 111.715 49.322C111.634 49.3626 111.553 49.4032 111.471 49.4032C111.431 49.4845 111.39 49.4845 111.39 49.4845Z" fill="white"/>
<path d="M22.9503 91.0029C22.9097 91.0029 22.9097 91.0029 22.8691 91.0029C22.7878 90.9623 22.7066 90.9217 22.6253 90.9217C22.4628 90.8404 22.2597 90.7592 22.0972 90.6779C20.8378 89.9873 19.5784 89.2967 18.3191 88.5654L17.0191 87.8342C16.9378 87.7936 16.8972 87.6717 16.9378 87.5498C16.9784 87.4686 17.1003 87.4279 17.2222 87.4686L18.5222 88.1998C19.7816 88.8904 21.0409 89.6217 22.3003 90.3123C22.4628 90.3936 22.6253 90.4748 22.7878 90.5561C22.8691 90.5967 22.9503 90.6373 23.0316 90.6779C23.1534 90.7186 23.1941 90.8404 23.1534 90.9623C23.0722 90.9623 23.0316 91.0029 22.9503 91.0029Z" fill="white"/>
<path d="M35.9527 29.7248C35.8715 29.7248 35.7902 29.6842 35.7496 29.603C35.709 29.4811 35.7496 29.3998 35.8715 29.3186C35.9527 29.2779 36.034 29.2373 36.1152 29.1967C36.2777 29.1154 36.4402 29.0748 36.6027 28.9529C37.8621 28.2623 39.1215 27.5717 40.3809 26.8405L41.6809 26.1092C41.7621 26.0686 41.884 26.1092 41.9652 26.1904C42.0059 26.2717 41.9652 26.3936 41.884 26.4748L40.584 27.2061C39.3246 27.8967 38.0652 28.6279 36.8059 29.3186C36.6434 29.3998 36.4402 29.4811 36.2777 29.5623C36.1965 29.6029 36.1152 29.6436 36.034 29.6436C35.9934 29.7248 35.9934 29.7248 35.9527 29.7248Z" fill="white"/>
<path d="M60.6534 49.4844C60.6128 49.4844 60.6128 49.4844 60.5722 49.4844C60.4909 49.4438 60.4097 49.4031 60.3284 49.4031C60.1659 49.3219 59.9628 49.2406 59.8003 49.1594C58.5409 48.4688 57.2409 47.7375 55.9816 47.0063L54.7222 46.3156C54.6409 46.275 54.6003 46.1531 54.6409 46.0313C54.6816 45.95 54.8034 45.9094 54.9253 45.95L56.1847 46.6406C57.4441 47.3719 58.7441 48.0625 60.0034 48.7938C60.1659 48.875 60.3284 48.9563 60.4909 49.0375C60.5722 49.0781 60.6534 49.1188 60.7347 49.1594C60.8566 49.2 60.8972 49.3219 60.8566 49.4438C60.8159 49.4438 60.7347 49.4844 60.6534 49.4844Z" fill="white"/>
<path d="M73.6515 29.7248C73.5702 29.7248 73.489 29.6842 73.4483 29.603C73.4077 29.4811 73.4483 29.3998 73.5702 29.3186C73.6515 29.2779 73.7327 29.2373 73.814 29.1967C73.9765 29.1154 74.139 29.0748 74.3015 28.9529C75.6015 28.2217 76.8608 27.5311 78.1608 26.7998L79.3796 26.1092C79.4608 26.0686 79.5827 26.1092 79.664 26.1904C79.7046 26.2717 79.664 26.3936 79.5827 26.4748L78.364 27.1654C77.064 27.8967 75.8046 28.5873 74.5046 29.3186C74.3421 29.3998 74.139 29.4811 73.9765 29.5623C73.8952 29.6029 73.814 29.6436 73.7327 29.6436C73.7327 29.7248 73.6921 29.7248 73.6515 29.7248Z" fill="white"/>
<path d="M98.3917 29.7251C98.3511 29.7251 98.3511 29.7251 98.3105 29.7251C98.2292 29.6845 98.148 29.6439 98.0667 29.6439C97.9042 29.5626 97.7011 29.4814 97.5386 29.4001C96.2792 28.7095 95.0198 28.0189 93.7605 27.2876L92.4605 26.5564C92.3792 26.5157 92.3386 26.3939 92.3792 26.272C92.4198 26.1907 92.5417 26.1501 92.6636 26.1907L93.9636 26.922C95.223 27.6126 96.4823 28.3439 97.7417 29.0345C97.9042 29.1157 98.0667 29.197 98.2292 29.2782C98.3105 29.3189 98.3917 29.3595 98.473 29.4001C98.5948 29.4407 98.6355 29.5626 98.5948 29.6845C98.5136 29.6845 98.4323 29.7251 98.3917 29.7251Z" fill="white"/>
<path d="M111.39 29.7248C111.309 29.7248 111.228 29.6842 111.187 29.603C111.146 29.4811 111.187 29.3998 111.309 29.3186C111.39 29.2779 111.471 29.2373 111.553 29.1967C111.715 29.1154 111.878 29.0748 112.04 28.9529C113.3 28.2623 114.559 27.5717 115.818 26.8405L117.118 26.1092C117.2 26.0686 117.321 26.1092 117.403 26.1904C117.443 26.2717 117.403 26.3936 117.321 26.4748L116.021 27.2061C114.762 27.8967 113.503 28.6279 112.243 29.3186C112.081 29.3998 111.878 29.4811 111.715 29.5623C111.634 29.6029 111.553 29.6436 111.471 29.6436C111.431 29.7248 111.39 29.7248 111.39 29.7248Z" fill="white"/>
<path d="M60.6534 70.2437C60.6128 70.2437 60.6128 70.2437 60.5722 70.2437C60.4909 70.203 60.4097 70.1624 60.3284 70.1624C60.1659 70.0812 59.9628 69.9999 59.8003 69.9187C58.5409 69.228 57.2409 68.4968 55.9816 67.7655L54.7222 67.0749C54.6409 67.0343 54.6003 66.9124 54.6409 66.7905C54.6816 66.7093 54.8034 66.6687 54.9253 66.7093L56.1847 67.3999C57.4441 68.1312 58.7441 68.8218 60.0034 69.553C60.1659 69.6343 60.3284 69.7155 60.4909 69.7968C60.5722 69.8374 60.6534 69.878 60.7347 69.9187C60.8566 69.9593 60.8972 70.0812 60.8566 70.203C60.8159 70.203 60.7347 70.2437 60.6534 70.2437Z" fill="white"/>
<path d="M17.1438 39.1657C17.0626 39.1657 17.022 39.1251 16.9813 39.0439C16.9407 38.9626 16.9407 38.8407 17.0626 38.7595L18.5657 37.9064C19.5001 37.3782 20.4345 36.8501 21.3688 36.322C21.7345 36.1189 22.0595 35.9564 22.4251 35.7939C22.5876 35.7126 22.7501 35.6314 22.9126 35.5501C23.0345 35.5095 23.1157 35.5501 23.197 35.6314C23.2376 35.7126 23.197 35.8345 23.1157 35.9157C22.9532 35.997 22.7907 36.0782 22.6282 36.1595C22.3032 36.322 21.9376 36.4845 21.6126 36.6876C20.6782 37.2157 19.7438 37.7439 18.8095 38.272L17.3063 39.1251C17.1845 39.1251 17.1845 39.1657 17.1438 39.1657Z" fill="white"/>
<path d="M41.7605 39.166C41.7199 39.166 41.6793 39.166 41.6793 39.1254L40.5824 38.516C39.2824 37.7848 37.9418 37.0535 36.6418 36.3223C36.4793 36.241 36.3168 36.1598 36.1543 36.0785C36.073 36.0379 35.9918 35.9973 35.9105 35.9566C35.7887 35.916 35.748 35.7941 35.7887 35.6723C35.8293 35.5504 35.9512 35.5098 36.073 35.5504C36.1543 35.591 36.2355 35.6316 36.3168 35.6316C36.4793 35.7129 36.6824 35.7941 36.8449 35.8754C38.1449 36.6066 39.4855 37.3379 40.7855 38.0691L41.8824 38.6785C41.9637 38.7191 42.0043 38.841 41.9637 38.9629C41.8824 39.1254 41.8418 39.166 41.7605 39.166Z" fill="white"/>
<path d="M117.2 19.3651C117.159 19.3651 117.118 19.3651 117.118 19.3245L115.859 18.6339C114.6 17.9433 113.34 17.212 112.04 16.5214C111.878 16.4401 111.715 16.3589 111.553 16.3183C111.471 16.2776 111.39 16.237 111.309 16.1964C111.187 16.1558 111.146 16.0339 111.187 15.912C111.228 15.7901 111.35 15.7495 111.471 15.7901C111.553 15.8308 111.634 15.8714 111.715 15.912C111.878 15.9933 112.081 16.0745 112.243 16.1558C113.503 16.8464 114.762 17.5776 116.062 18.2683L117.321 18.9589C117.403 18.9995 117.443 19.1214 117.403 19.2433C117.321 19.3245 117.24 19.3651 117.2 19.3651Z" fill="white"/>
<path d="M54.8431 39.1656C54.7618 39.1656 54.7212 39.125 54.6805 39.0438C54.6399 38.9625 54.6399 38.8406 54.7618 38.7594L56.2649 37.9063C57.1993 37.3781 58.093 36.85 59.0274 36.3625C59.3524 36.1594 59.718 35.9969 60.0837 35.8344C60.2462 35.7531 60.4087 35.6719 60.5712 35.5906C60.6524 35.55 60.7743 35.5906 60.8555 35.6719C60.8962 35.7531 60.8555 35.875 60.7743 35.9563C60.6118 36.0375 60.4493 36.1188 60.2868 36.2C59.9618 36.3625 59.5962 36.525 59.2712 36.7281C58.3368 37.2563 57.443 37.7438 56.5087 38.2719L55.0055 39.125C54.9243 39.125 54.8837 39.1656 54.8431 39.1656Z" fill="white"/>
<path d="M117.2 80.6845C117.159 80.6845 117.118 80.6845 117.118 80.6438L115.859 79.9532C114.6 79.2626 113.34 78.5313 112.04 77.8407C111.878 77.7595 111.715 77.6782 111.553 77.6376C111.471 77.597 111.39 77.5563 111.309 77.5157C111.187 77.4751 111.146 77.3532 111.187 77.2313C111.228 77.1095 111.35 77.0688 111.471 77.1095C111.553 77.1501 111.634 77.1907 111.715 77.2313C111.878 77.3126 112.081 77.3938 112.243 77.4751C113.503 78.1657 114.762 78.897 116.062 79.5876L117.321 80.2782C117.403 80.3188 117.443 80.4407 117.403 80.5626C117.321 80.6438 117.24 80.6845 117.2 80.6845Z" fill="white"/>
<path d="M79.4613 39.1656C79.4207 39.1656 79.3801 39.1656 79.3801 39.125L78.3645 38.5563C77.0238 37.7844 75.6426 37.0531 74.302 36.2813C74.1395 36.2 73.977 36.1188 73.8145 36.0375C73.7332 35.9969 73.652 35.9562 73.5707 35.9156C73.4488 35.875 73.4082 35.7531 73.4488 35.6313C73.4895 35.5094 73.6113 35.4687 73.7332 35.5094C73.8145 35.55 73.8957 35.5906 73.977 35.5906C74.1395 35.6719 74.3426 35.7531 74.5051 35.8344C75.8457 36.6063 77.227 37.3375 78.5676 38.1094L79.5832 38.6781C79.6645 38.7188 79.7051 38.8406 79.6645 38.9625C79.6238 39.125 79.5426 39.1656 79.4613 39.1656Z" fill="white"/>
<path d="M92.5852 39.1657C92.504 39.1657 92.4634 39.1251 92.4227 39.0439C92.3821 38.9626 92.3821 38.8407 92.504 38.7595L94.0071 37.9064C94.9415 37.3782 95.8759 36.8501 96.8102 36.322C97.1759 36.1189 97.5009 35.9564 97.8665 35.7939C98.029 35.7126 98.1915 35.6314 98.354 35.5501C98.4352 35.5095 98.5571 35.5501 98.6384 35.6314C98.679 35.7126 98.6384 35.8345 98.5571 35.9157C98.3946 35.997 98.2321 36.0782 98.0696 36.1595C97.7446 36.322 97.379 36.4845 97.054 36.6876C96.1196 37.2157 95.1852 37.7439 94.2509 38.272L92.7477 39.1251C92.6259 39.1251 92.5852 39.1657 92.5852 39.1657Z" fill="white"/>
<path d="M117.202 39.166C117.161 39.166 117.121 39.166 117.121 39.1254L116.024 38.516C114.724 37.7848 113.383 37.0535 112.083 36.3223C111.921 36.241 111.758 36.1598 111.596 36.0785C111.514 36.0379 111.433 35.9973 111.352 35.9566C111.23 35.916 111.189 35.7941 111.23 35.6723C111.271 35.5504 111.393 35.5098 111.514 35.5504C111.596 35.591 111.677 35.6316 111.758 35.6316C111.921 35.7129 112.124 35.7941 112.286 35.8754C113.586 36.6066 114.927 37.3379 116.227 38.0691L117.324 38.6785C117.405 38.7191 117.446 38.841 117.405 38.9629C117.324 39.1254 117.243 39.166 117.202 39.166Z" fill="white"/>
<path d="M111.39 111.762C111.309 111.762 111.228 111.722 111.187 111.64C111.146 111.519 111.187 111.437 111.309 111.356C111.39 111.315 111.471 111.275 111.553 111.234C111.715 111.153 111.878 111.112 112.04 110.99C113.3 110.3 114.559 109.569 115.859 108.878L117.118 108.187C117.2 108.147 117.321 108.187 117.403 108.269C117.443 108.35 117.403 108.472 117.321 108.553L116.062 109.244C114.803 109.934 113.543 110.665 112.243 111.356C112.081 111.437 111.878 111.519 111.715 111.6C111.634 111.64 111.553 111.681 111.471 111.681C111.431 111.762 111.39 111.762 111.39 111.762Z" fill="white"/>
<path d="M98.3917 111.763C98.3511 111.763 98.3511 111.763 98.3105 111.763C98.2292 111.722 98.148 111.681 98.0667 111.681C97.9042 111.6 97.7011 111.519 97.5386 111.438C96.2792 110.747 95.0198 110.016 93.7198 109.325L92.4605 108.634C92.3792 108.594 92.3386 108.472 92.3792 108.35C92.4198 108.269 92.5417 108.228 92.6636 108.269L93.923 108.959C95.1823 109.65 96.4417 110.381 97.7417 111.072C97.9042 111.153 98.0667 111.234 98.2292 111.316C98.3105 111.356 98.3917 111.397 98.473 111.438C98.5948 111.478 98.6355 111.6 98.5948 111.722C98.5136 111.722 98.4323 111.763 98.3917 111.763Z" fill="white"/>
<path d="M73.652 111.762C73.5707 111.762 73.4895 111.722 73.4488 111.641C73.4082 111.519 73.4488 111.437 73.5707 111.356C73.652 111.316 73.7332 111.275 73.8145 111.234C73.977 111.153 74.1395 111.112 74.302 110.991C75.602 110.259 76.902 109.528 78.202 108.797L79.3801 108.147C79.4613 108.106 79.5832 108.147 79.6645 108.228C79.7051 108.309 79.6645 108.431 79.5832 108.512L78.4051 109.162C77.1051 109.894 75.8051 110.625 74.5051 111.356C74.3426 111.437 74.1395 111.519 73.977 111.6C73.8957 111.641 73.8145 111.681 73.7332 111.681C73.7332 111.762 73.6926 111.762 73.652 111.762Z" fill="white"/>
<path d="M60.6534 111.763C60.6128 111.763 60.6128 111.763 60.5722 111.763C60.4909 111.722 60.4097 111.681 60.3284 111.681C60.1659 111.6 59.9628 111.519 59.8003 111.438C58.5409 110.747 57.2409 110.016 55.9816 109.285L54.7222 108.594C54.6409 108.553 54.6003 108.431 54.6409 108.31C54.6816 108.228 54.8034 108.188 54.9253 108.228L56.1847 108.919C57.4441 109.65 58.7441 110.341 60.0034 111.072C60.1659 111.153 60.3284 111.235 60.4909 111.316C60.5722 111.356 60.6534 111.397 60.7347 111.438C60.8566 111.478 60.8972 111.6 60.8566 111.722C60.8159 111.722 60.7347 111.763 60.6534 111.763Z" fill="white"/>
<path d="M35.9527 111.762C35.8715 111.762 35.7902 111.722 35.7496 111.64C35.709 111.519 35.7496 111.437 35.8715 111.356C35.9527 111.315 36.034 111.275 36.1152 111.234C36.2777 111.153 36.4402 111.112 36.6027 110.99C37.8621 110.3 39.1215 109.569 40.4215 108.878L41.6809 108.187C41.7621 108.147 41.884 108.187 41.9652 108.269C42.0059 108.35 41.9652 108.472 41.884 108.553L40.6246 109.244C39.3652 109.934 38.1059 110.665 36.8059 111.356C36.6434 111.437 36.4402 111.519 36.2777 111.6C36.1965 111.64 36.1152 111.681 36.034 111.681C35.9934 111.762 35.9934 111.762 35.9527 111.762Z" fill="white"/>
<path d="M22.9503 111.763C22.9097 111.763 22.9097 111.763 22.8691 111.763C22.7878 111.722 22.7066 111.681 22.6253 111.681C22.4628 111.6 22.2597 111.519 22.0972 111.438C20.8378 110.747 19.5784 110.016 18.2784 109.325L17.0191 108.634C16.9378 108.594 16.8972 108.472 16.9378 108.35C16.9784 108.269 17.1003 108.228 17.2222 108.269L18.4816 108.959C19.7409 109.65 21.0003 110.381 22.3003 111.072C22.4628 111.153 22.6253 111.234 22.7878 111.316C22.8691 111.356 22.9503 111.397 23.0316 111.438C23.1534 111.478 23.1941 111.6 23.1534 111.722C23.0722 111.722 23.0316 111.763 22.9503 111.763Z" fill="white"/>
<path d="M117.202 101.444C117.161 101.444 117.121 101.444 117.121 101.403L116.024 100.794C114.724 100.063 113.383 99.3313 112.083 98.6001C111.921 98.5188 111.758 98.4376 111.596 98.3563C111.514 98.3157 111.433 98.2751 111.352 98.2345C111.23 98.1938 111.189 98.072 111.23 97.9501C111.271 97.8282 111.393 97.7876 111.514 97.8282C111.596 97.8688 111.677 97.9095 111.758 97.9095C111.921 97.9907 112.124 98.072 112.286 98.1532C113.586 98.8845 114.927 99.6157 116.227 100.347L117.324 100.956C117.405 100.997 117.446 101.119 117.405 101.241C117.324 101.403 117.243 101.444 117.202 101.444Z" fill="white"/>
<path d="M92.5852 101.444C92.504 101.444 92.4634 101.403 92.4227 101.322C92.3821 101.24 92.3821 101.119 92.504 101.037L94.0071 100.184C94.9415 99.6561 95.8759 99.1279 96.8102 98.5998C97.1759 98.3967 97.5009 98.2342 97.8665 98.0717C98.029 97.9904 98.1915 97.9092 98.354 97.8279C98.4352 97.7873 98.5571 97.8279 98.6384 97.9092C98.679 97.9904 98.6384 98.1123 98.5571 98.1936C98.3946 98.2748 98.2321 98.3561 98.0696 98.4373C97.7446 98.5998 97.379 98.7623 97.054 98.9654C96.1196 99.4936 95.1852 100.022 94.2509 100.55L92.7477 101.403C92.6259 101.444 92.5852 101.444 92.5852 101.444Z" fill="white"/>
<path d="M35.9527 70.2443C35.8715 70.2443 35.7902 70.2036 35.7496 70.1224C35.709 70.0005 35.7496 69.9193 35.8715 69.838C35.9527 69.7974 36.034 69.7568 36.1152 69.7161C36.2777 69.6349 36.4402 69.5943 36.6027 69.4724C37.8621 68.7818 39.1215 68.0505 40.4215 67.3599L41.6809 66.6693C41.7621 66.6286 41.884 66.6693 41.9652 66.7505C42.0059 66.8318 41.9652 66.9536 41.884 67.0349L40.6246 67.7255C39.3652 68.4161 38.1059 69.1474 36.8059 69.838C36.6434 69.9193 36.4402 70.0005 36.2777 70.0818C36.1965 70.1224 36.1152 70.163 36.034 70.163C35.9934 70.2443 35.9934 70.2443 35.9527 70.2443Z" fill="white"/>
<path d="M79.4613 101.444C79.4207 101.444 79.3801 101.444 79.3801 101.403L78.3645 100.835C77.0238 100.063 75.6426 99.3314 74.302 98.5596C74.1395 98.4783 73.977 98.3971 73.8145 98.3158C73.7332 98.2752 73.652 98.2346 73.5707 98.1939C73.4488 98.1533 73.4082 98.0314 73.4488 97.9096C73.4895 97.7877 73.6113 97.7471 73.7332 97.7877C73.8145 97.8283 73.8957 97.8689 73.977 97.8689C74.1395 97.9502 74.3426 98.0314 74.5051 98.1127C75.8457 98.8846 77.227 99.6158 78.5676 100.388L79.5832 100.956C79.6645 100.997 79.7051 101.119 79.6645 101.241C79.6238 101.403 79.5426 101.444 79.4613 101.444Z" fill="white"/>
<path d="M22.9503 70.2436C22.9097 70.2436 22.9097 70.2436 22.8691 70.2436C22.7878 70.2029 22.7066 70.1623 22.6253 70.1623C22.4628 70.0811 22.2597 69.9998 22.0972 69.9186C20.8378 69.2279 19.5784 68.4967 18.2784 67.8061L17.0191 67.1154C16.9378 67.0748 16.8972 66.9529 16.9378 66.8311C16.9784 66.7498 17.1003 66.7092 17.2222 66.7498L18.4816 67.4404C19.7409 68.1311 21.0003 68.8623 22.3003 69.5529C22.4628 69.6342 22.6253 69.7154 22.7878 69.7967C22.8691 69.8373 22.9503 69.8779 23.0316 69.9186C23.1534 69.9592 23.1941 70.0811 23.1534 70.2029C23.0722 70.2029 23.0316 70.2436 22.9503 70.2436Z" fill="white"/>
<path d="M92.5852 80.6842C92.504 80.6842 92.4634 80.6436 92.4227 80.5623C92.3821 80.4811 92.3821 80.3592 92.504 80.2779L94.0071 79.4248C94.9415 78.8967 95.8352 78.3686 96.7696 77.8811C97.1352 77.6779 97.4602 77.5154 97.8259 77.3529C97.9884 77.2717 98.1509 77.1904 98.3134 77.1092C98.3946 77.0686 98.5165 77.1092 98.5977 77.1904C98.6384 77.2717 98.5977 77.3936 98.5165 77.4748C98.354 77.5561 98.1915 77.6373 98.029 77.7186C97.704 77.8811 97.3384 78.0436 96.9727 78.2467C96.0384 78.7748 95.1446 79.2623 94.2102 79.7904L92.7071 80.6436C92.6259 80.6842 92.5852 80.6842 92.5852 80.6842Z" fill="white"/>
<path d="M17.1438 19.3658C17.0626 19.3658 17.022 19.3252 16.9813 19.244C16.9407 19.1627 16.9407 19.0408 17.0626 18.9596L18.6063 18.1065C19.5407 17.5783 20.4345 17.0502 21.3688 16.5627C21.7345 16.3596 22.0595 16.1971 22.4251 16.0346C22.5876 15.9533 22.7501 15.8721 22.9126 15.7908C23.0345 15.7502 23.1157 15.7908 23.197 15.8721C23.2376 15.9533 23.197 16.0752 23.1157 16.1565C22.9532 16.2377 22.7907 16.319 22.6282 16.4002C22.3032 16.5627 21.9376 16.7252 21.6126 16.9283C20.6782 17.4565 19.7845 17.944 18.8501 18.4721L17.3063 19.3252C17.1845 19.3658 17.1845 19.3658 17.1438 19.3658Z" fill="white"/>
<path d="M41.7621 19.3651C41.7215 19.3651 41.6809 19.3651 41.6809 19.3245L40.4215 18.6339C39.1621 17.9433 37.9027 17.212 36.6027 16.5214C36.4402 16.4401 36.2777 16.3589 36.1152 16.3183C36.034 16.2776 35.9527 16.237 35.8715 16.1964C35.7496 16.1558 35.709 16.0339 35.7496 15.912C35.7902 15.7901 35.9121 15.7495 36.034 15.7901C36.1152 15.8308 36.1965 15.8714 36.2777 15.912C36.4402 15.9933 36.6434 16.0745 36.8059 16.1558C38.0652 16.8464 39.3246 17.5776 40.6246 18.2683L41.884 18.9589C41.9652 18.9995 42.0059 19.1214 41.9652 19.2433C41.884 19.3245 41.8434 19.3651 41.7621 19.3651Z" fill="white"/>
<path d="M54.8426 19.3658C54.7613 19.3658 54.7207 19.3252 54.6801 19.244C54.6394 19.1627 54.6394 19.0408 54.7613 18.9596L56.3051 18.1065C57.2394 17.5783 58.1332 17.0502 59.0676 16.5627C59.3926 16.3596 59.7582 16.1971 60.1238 16.0346C60.2863 15.9533 60.4488 15.8721 60.6113 15.7908C60.6926 15.7502 60.8144 15.7908 60.8957 15.8721C60.9363 15.9533 60.8957 16.0752 60.8144 16.1565C60.6519 16.2377 60.4894 16.319 60.3269 16.4002C60.0019 16.5627 59.6363 16.7252 59.3113 16.9283C58.3769 17.4565 57.4832 17.944 56.5488 18.4721L55.0051 19.3252C54.9238 19.3658 54.8832 19.3658 54.8426 19.3658Z" fill="white"/>
<path d="M79.4608 19.3657C79.4202 19.3657 79.3796 19.3657 79.3796 19.3251L78.2015 18.6751C76.9015 17.9438 75.6015 17.2126 74.3015 16.4813C74.139 16.4001 73.9765 16.3188 73.814 16.2782C73.7327 16.2376 73.6515 16.197 73.5702 16.1563C73.4483 16.1157 73.4077 15.9938 73.4483 15.872C73.489 15.7501 73.6108 15.7095 73.7327 15.7501C73.814 15.7907 73.8952 15.8313 73.9765 15.872C74.139 15.9532 74.3421 16.0345 74.5046 16.1157C75.8046 16.847 77.1046 17.5782 78.4046 18.3095L79.5827 18.9595C79.664 19.0001 79.7046 19.122 79.664 19.2438C79.6233 19.3251 79.5421 19.3657 79.4608 19.3657Z" fill="white"/>
<path d="M92.5852 19.3658C92.504 19.3658 92.4634 19.3252 92.4227 19.244C92.3821 19.1627 92.3821 19.0408 92.504 18.9596L94.0071 18.1065C94.9415 17.5783 95.8352 17.0502 96.7696 16.5627C97.1352 16.3596 97.4602 16.1971 97.8259 16.0346C97.9884 15.9533 98.1509 15.8721 98.3134 15.7908C98.3946 15.7502 98.5165 15.7908 98.5977 15.8721C98.6384 15.9533 98.5977 16.0752 98.5165 16.1565C98.354 16.2377 98.1915 16.319 98.029 16.4002C97.704 16.5627 97.3384 16.7252 97.0134 16.9283C96.079 17.4565 95.1446 17.944 94.2509 18.4721L92.7477 19.3252C92.6259 19.3658 92.5852 19.3658 92.5852 19.3658Z" fill="white"/>
<path d="M54.8431 101.443C54.7618 101.443 54.7212 101.403 54.6805 101.322C54.6399 101.24 54.6399 101.118 54.7618 101.037L56.2649 100.184C57.1993 99.656 58.093 99.1279 59.0274 98.6404C59.3524 98.4372 59.718 98.2747 60.0837 98.1122C60.2462 98.031 60.4087 97.9497 60.5712 97.8685C60.6524 97.8279 60.7743 97.8685 60.8555 97.9497C60.8962 98.031 60.8555 98.1529 60.7743 98.2341C60.6118 98.3154 60.4493 98.3966 60.2868 98.4779C59.9618 98.6404 59.5962 98.8029 59.2712 99.006C58.3368 99.5341 57.443 100.022 56.5087 100.55L55.0055 101.403C54.9243 101.443 54.8837 101.443 54.8431 101.443Z" fill="white"/>
<path d="M41.7605 101.444C41.7199 101.444 41.6793 101.444 41.6793 101.403L40.5824 100.794C39.2824 100.063 37.9418 99.3313 36.6418 98.6001C36.4793 98.5188 36.3168 98.4376 36.1543 98.3563C36.073 98.3157 35.9918 98.2751 35.9105 98.2345C35.7887 98.1938 35.748 98.072 35.7887 97.9501C35.8293 97.8282 35.9512 97.7876 36.073 97.8282C36.1543 97.8688 36.2355 97.9095 36.3168 97.9095C36.4793 97.9907 36.6824 98.072 36.8449 98.1532C38.1449 98.8845 39.4855 99.6157 40.7855 100.347L41.8824 100.956C41.9637 100.997 42.0043 101.119 41.9637 101.241C41.8824 101.403 41.8418 101.444 41.7605 101.444Z" fill="white"/>
<path d="M79.4613 80.6846C79.4207 80.6846 79.3801 80.6846 79.3801 80.6439L78.202 79.9939C76.902 79.2627 75.602 78.5314 74.302 77.8002C74.1395 77.7189 73.977 77.6377 73.8145 77.5971C73.7332 77.5564 73.652 77.5158 73.5707 77.4752C73.4488 77.4346 73.4082 77.3127 73.4488 77.1908C73.4895 77.0689 73.6113 77.0283 73.7332 77.0689C73.8145 77.1096 73.8957 77.1502 73.977 77.1908C74.1395 77.2721 74.3426 77.3533 74.5051 77.4346C75.8051 78.1658 77.1051 78.8971 78.4051 79.6283L79.5832 80.2783C79.6645 80.3189 79.7051 80.4408 79.6645 80.5627C79.6238 80.6439 79.5426 80.6846 79.4613 80.6846Z" fill="white"/>
<path d="M54.8431 80.6842C54.7618 80.6842 54.7212 80.6436 54.6805 80.5623C54.6399 80.4811 54.6399 80.3592 54.7618 80.2779L56.3055 79.4248C57.2399 78.8967 58.1337 78.3686 59.068 77.8811C59.4337 77.6779 59.7587 77.5154 60.1243 77.3529C60.2868 77.2717 60.4493 77.1904 60.6118 77.1092C60.693 77.0686 60.8149 77.1092 60.8962 77.1904C60.9368 77.2717 60.8962 77.3936 60.8149 77.4748C60.6524 77.5561 60.4899 77.6373 60.3274 77.7186C60.0024 77.8811 59.6368 78.0436 59.2712 78.2467C58.3368 78.7748 57.443 79.2623 56.5087 79.7904L54.9649 80.6436C54.9243 80.6842 54.8837 80.6842 54.8431 80.6842Z" fill="white"/>
<path d="M41.7621 80.6845C41.7215 80.6845 41.6809 80.6845 41.6809 80.6438L40.4215 79.9532C39.1621 79.2626 37.9027 78.5313 36.6027 77.8407C36.4402 77.7595 36.2777 77.6782 36.1152 77.6376C36.034 77.597 35.9527 77.5563 35.8715 77.5157C35.7496 77.4751 35.709 77.3532 35.7496 77.2313C35.7902 77.1095 35.9121 77.0688 36.034 77.1095C36.1152 77.1501 36.1965 77.1907 36.2777 77.2313C36.4402 77.3126 36.6434 77.3938 36.8059 77.4751C38.0652 78.1657 39.3246 78.897 40.6246 79.5876L41.884 80.2782C41.9652 80.3188 42.0059 80.4407 41.9652 80.5626C41.884 80.6438 41.8434 80.6845 41.7621 80.6845Z" fill="white"/>
<path d="M17.1438 80.6842C17.0626 80.6842 17.022 80.6436 16.9813 80.5623C16.9407 80.4811 16.9407 80.3592 17.0626 80.2779L18.6063 79.4248C19.5407 78.8967 20.4345 78.3686 21.3688 77.8811C21.7345 77.6779 22.0595 77.5154 22.4251 77.3529C22.5876 77.2717 22.7501 77.1904 22.9126 77.1092C23.0345 77.0686 23.1157 77.1092 23.197 77.1904C23.2376 77.2717 23.197 77.3936 23.1157 77.4748C22.9532 77.5561 22.7907 77.6373 22.6282 77.7186C22.3032 77.8811 21.9376 78.0436 21.6126 78.2467C20.6782 78.7748 19.7845 79.2623 18.8501 79.7904L17.3063 80.6436C17.1845 80.6842 17.1845 80.6842 17.1438 80.6842Z" fill="white"/>
<path d="M17.1438 101.444C17.0626 101.444 17.022 101.403 16.9813 101.322C16.9407 101.24 16.9407 101.119 17.0626 101.037L18.5657 100.184C19.5001 99.6561 20.4345 99.1279 21.3688 98.5998C21.7345 98.3967 22.0595 98.2342 22.4251 98.0717C22.5876 97.9904 22.7501 97.9092 22.9126 97.8279C23.0345 97.7873 23.1157 97.8279 23.197 97.9092C23.2376 97.9904 23.197 98.1123 23.1157 98.1936C22.9532 98.2748 22.7907 98.3561 22.6282 98.4373C22.3032 98.5998 21.9376 98.7623 21.6126 98.9654C20.6782 99.4936 19.7438 100.022 18.8095 100.55L17.3063 101.403C17.1845 101.444 17.1845 101.444 17.1438 101.444Z" fill="white"/>
<path d="M111.39 91.003C111.309 91.003 111.228 90.9624 111.187 90.8812C111.146 90.7593 111.187 90.678 111.309 90.5968C111.39 90.5562 111.471 90.5155 111.553 90.4749C111.715 90.3937 111.878 90.353 112.04 90.2312C113.34 89.4999 114.681 88.7687 115.981 88.0374L117.078 87.428C117.159 87.3874 117.281 87.428 117.362 87.5093C117.403 87.5905 117.362 87.7124 117.281 87.7937L116.184 88.403C114.884 89.1343 113.543 89.8655 112.243 90.5968C112.081 90.678 111.878 90.7593 111.715 90.8405C111.634 90.8812 111.553 90.9218 111.471 90.9218C111.431 91.003 111.39 91.003 111.39 91.003Z" fill="white"/>
<path d="M98.3941 91.0029C98.3534 91.0029 98.3534 91.0029 98.3128 91.0029C98.2316 90.9622 98.1503 90.9216 98.0691 90.9216C97.9066 90.8404 97.7034 90.7591 97.5409 90.6779C96.2409 89.9466 94.9003 89.2154 93.6003 88.4841L92.5034 87.8747C92.4222 87.8341 92.3816 87.7122 92.4222 87.5904C92.4628 87.5091 92.5847 87.4685 92.7066 87.5091L93.8034 88.1185C95.1034 88.8497 96.4441 89.581 97.7441 90.3122C97.9066 90.3935 98.0691 90.4747 98.2316 90.556C98.3128 90.5966 98.3941 90.6372 98.4753 90.6779C98.5972 90.7185 98.6378 90.8404 98.5972 90.9622C98.5159 90.9622 98.4347 91.0029 98.3941 91.0029Z" fill="white"/>
<path d="M73.652 91.0031C73.5707 91.0031 73.4895 90.9625 73.4488 90.8813C73.4082 90.7594 73.4488 90.6781 73.5707 90.5969C73.652 90.5563 73.7332 90.5156 73.8145 90.475C73.977 90.3938 74.1395 90.3531 74.302 90.2313C75.6426 89.4594 77.0238 88.7281 78.3645 87.9563L79.3801 87.3875C79.4613 87.3469 79.5832 87.3875 79.6645 87.4688C79.7051 87.55 79.6645 87.6719 79.5832 87.7531L78.5676 88.3219C77.227 89.0938 75.8457 89.825 74.5051 90.5969C74.3426 90.6781 74.1395 90.7594 73.977 90.8406C73.8957 90.8813 73.8145 90.9219 73.7332 90.9219C73.7332 91.0031 73.6926 91.0031 73.652 91.0031Z" fill="white"/>
<path d="M60.6534 91.0029C60.6128 91.0029 60.6128 91.0029 60.5722 91.0029C60.4909 90.9623 60.4097 90.9217 60.3284 90.9217C60.1659 90.8404 59.9628 90.7592 59.8003 90.6779C58.5409 89.9873 57.2816 89.2561 56.0222 88.5654L54.7222 87.8342C54.6409 87.7936 54.6003 87.6717 54.6409 87.5498C54.6816 87.4686 54.8034 87.4279 54.9253 87.4686L56.2253 88.1998C57.4847 88.8904 58.7441 89.6217 60.0034 90.3123C60.1659 90.3936 60.3284 90.4748 60.4909 90.5561C60.5722 90.5967 60.6534 90.6373 60.7347 90.6779C60.8566 90.7186 60.8972 90.8404 60.8566 90.9623C60.8159 90.9623 60.7347 91.0029 60.6534 91.0029Z" fill="white"/>
<path d="M35.9527 91.0035C35.8715 91.0035 35.7902 90.9629 35.7496 90.8817C35.709 90.7598 35.7496 90.6785 35.8715 90.5973C35.9527 90.5567 36.034 90.516 36.1152 90.4754C36.2777 90.3942 36.4402 90.3535 36.6027 90.2317C37.9027 89.5004 39.2434 88.7692 40.5434 88.0379L41.6402 87.4285C41.7215 87.3879 41.8434 87.4285 41.9246 87.5098C41.9652 87.591 41.9246 87.7129 41.8434 87.7942L40.7465 88.4035C39.4465 89.1348 38.1059 89.866 36.8059 90.5973C36.6434 90.6785 36.4402 90.7598 36.2777 90.841C36.1965 90.8817 36.1152 90.9223 36.034 90.9223C35.9934 91.0035 35.9934 91.0035 35.9527 91.0035Z" fill="white"/>
<path d="M22.9503 49.4848C22.9097 49.4848 22.9097 49.4848 22.8691 49.4848C22.7878 49.4442 22.7066 49.4035 22.6253 49.4035C22.4628 49.3223 22.2597 49.241 22.0972 49.1598C20.8378 48.4692 19.5784 47.7379 18.2784 47.0473L17.0191 46.3567C16.9378 46.316 16.8972 46.1942 16.9378 46.0723C16.9784 45.991 17.1003 45.9504 17.2222 45.991L18.4816 46.6817C19.7409 47.3723 21.0003 48.1035 22.3003 48.7942C22.4628 48.8754 22.6253 48.9567 22.7878 49.0379C22.8691 49.0785 22.9503 49.1192 23.0316 49.1598C23.1534 49.2004 23.1941 49.3223 23.1534 49.4442C23.0722 49.4442 23.0316 49.4848 22.9503 49.4848Z" fill="white"/>
<path d="M35.9527 49.484C35.8715 49.484 35.7902 49.4434 35.7496 49.3621C35.709 49.2403 35.7496 49.159 35.8715 49.0778C35.9527 49.0371 36.034 48.9965 36.1152 48.9559C36.2777 48.8746 36.4402 48.834 36.6027 48.7121C37.8621 48.0215 39.1215 47.2903 40.4215 46.5996L41.6809 45.909C41.7621 45.8684 41.884 45.909 41.9652 45.9903C42.0059 46.0715 41.9652 46.1934 41.884 46.2746L40.584 47.0059C39.3246 47.6965 38.0652 48.4278 36.7652 49.1184C36.6027 49.1996 36.3996 49.2809 36.2371 49.3621C36.1559 49.4028 36.0746 49.4434 35.9934 49.4434C35.9934 49.484 35.9934 49.484 35.9527 49.484Z" fill="white"/>
<path d="M60.6534 29.7251C60.6128 29.7251 60.6128 29.7251 60.5722 29.7251C60.4909 29.6845 60.4097 29.6439 60.3284 29.6439C60.1659 29.5626 59.9628 29.4814 59.8003 29.4001C58.5409 28.7095 57.2816 27.9782 56.0222 27.2876L54.7222 26.5564C54.6409 26.5157 54.6003 26.3939 54.6409 26.272C54.6816 26.1907 54.8034 26.1501 54.9253 26.1907L56.2253 26.922C57.4847 27.6126 58.7441 28.3439 60.0034 29.0345C60.1659 29.1157 60.3284 29.197 60.4909 29.2782C60.5722 29.3189 60.6534 29.3595 60.7347 29.4001C60.8566 29.4407 60.8972 29.5626 60.8566 29.6845C60.8159 29.6845 60.7347 29.7251 60.6534 29.7251Z" fill="white"/>
<path d="M17.1438 59.9249C17.0626 59.9249 17.022 59.8843 16.9813 59.803C16.9407 59.7218 16.9407 59.5999 17.0626 59.5187L18.5657 58.6655C19.5001 58.1374 20.3938 57.6093 21.3282 57.1218C21.6938 56.9187 22.0188 56.7562 22.3845 56.5937C22.547 56.5124 22.7095 56.4312 22.872 56.3499C22.9938 56.3093 23.0751 56.3499 23.1563 56.4312C23.197 56.5124 23.1563 56.6343 23.0751 56.7155C22.9126 56.7968 22.7501 56.878 22.5876 56.9593C22.222 57.1218 21.897 57.2843 21.5313 57.4874C20.597 58.0155 19.7032 58.503 18.7688 59.0312L17.2657 59.8843C17.1845 59.8843 17.1845 59.9249 17.1438 59.9249Z" fill="white"/>
<path d="M41.7621 59.9253C41.7215 59.9253 41.6809 59.9253 41.6809 59.8847L40.4215 59.194C39.1621 58.5034 37.9027 57.7722 36.6027 57.0815C36.4402 57.0003 36.2777 56.919 36.1152 56.8378C36.034 56.7972 35.9527 56.7565 35.8715 56.7159C35.7496 56.6753 35.709 56.5534 35.7496 56.4315C35.7902 56.3097 35.9121 56.269 36.034 56.3097C36.1152 56.3503 36.1965 56.3909 36.2777 56.3909C36.4402 56.4722 36.6434 56.5534 36.8059 56.6347C38.0652 57.3253 39.3246 58.0565 40.6246 58.7472L41.884 59.4378C41.9652 59.4784 42.0059 59.6003 41.9652 59.7222C41.884 59.8847 41.8434 59.9253 41.7621 59.9253Z" fill="white"/>
<path d="M54.8431 59.9249C54.7618 59.9249 54.7212 59.8843 54.6805 59.803C54.6399 59.7218 54.6399 59.5999 54.7618 59.5187L56.3055 58.6655C57.2399 58.1374 58.1337 57.6093 59.068 57.1218C59.4337 56.9187 59.7587 56.7562 60.1243 56.5937C60.2868 56.5124 60.4493 56.4312 60.6118 56.3499C60.693 56.3093 60.8149 56.3499 60.8962 56.4312C60.9368 56.5124 60.8962 56.6343 60.8149 56.7155C60.6524 56.7968 60.4899 56.878 60.3274 56.9593C60.0024 57.1218 59.6368 57.2843 59.2712 57.4874C58.3368 58.0155 57.443 58.503 56.5087 59.0312L54.9649 59.8843C54.9243 59.8843 54.8837 59.9249 54.8431 59.9249Z" fill="white"/>
<path d="M79.4613 59.9249C79.4207 59.9249 79.3801 59.9249 79.3801 59.8843L78.202 59.2343C76.902 58.503 75.602 57.7718 74.302 57.0405C74.1395 56.9593 73.977 56.878 73.8145 56.7968C73.7332 56.7562 73.652 56.7155 73.5707 56.6749C73.4488 56.6343 73.4082 56.5124 73.4488 56.3905C73.4895 56.2687 73.6113 56.228 73.7332 56.2687C73.8145 56.3093 73.8957 56.3499 73.977 56.3499C74.1395 56.4312 74.3426 56.5124 74.5051 56.5937C75.8051 57.3249 77.1051 58.0562 78.4051 58.7874L79.5832 59.4374C79.6645 59.478 79.7051 59.5999 79.6645 59.7218C79.6238 59.8843 79.5426 59.9249 79.4613 59.9249Z" fill="white"/>
<path d="M22.9496 3.96523C22.909 3.96523 22.8684 3.96523 22.8684 3.92461L22.3403 3.68086C21.9746 3.47773 21.609 3.31523 21.2434 3.11211C20.5934 2.74648 19.984 2.42148 19.334 2.05586C18.8059 1.77148 18.3184 1.48711 17.7903 1.20273C17.7903 1.20273 17.7496 1.20273 17.709 1.20273C17.6684 1.20273 17.6278 1.20273 17.5871 1.20273C17.4653 1.20273 17.384 1.08086 17.4246 0.958984C17.4246 0.796484 17.5465 0.755859 17.6278 0.755859C17.6684 0.755859 17.6684 0.755859 17.709 0.755859C17.7903 0.755859 17.8715 0.755859 17.9528 0.837109C18.4809 1.12148 18.9684 1.40586 19.4965 1.69023C20.1465 2.05586 20.7559 2.38086 21.4059 2.74648C21.7715 2.94961 22.1371 3.11211 22.5028 3.31523L23.0309 3.55898C23.1121 3.64023 23.1528 3.76211 23.1121 3.84336C23.0715 3.92461 22.9903 3.96523 22.9496 3.96523Z" fill="white"/>
<path d="M35.9527 3.96594C35.8715 3.96594 35.7902 3.92531 35.7496 3.84406C35.709 3.72219 35.7496 3.64094 35.8715 3.60031L35.9527 3.55969C35.9934 3.55969 36.034 3.51906 36.0746 3.51906L37.334 2.78781C38.1465 2.34094 38.9184 1.89406 39.7309 1.48781C40.0559 1.32531 40.3809 1.16281 40.7059 1.00031C40.8684 0.919062 40.9902 0.837812 41.1527 0.797187C41.234 0.756562 41.3559 0.797187 41.4371 0.878437C41.4777 0.959687 41.4371 1.08156 41.3559 1.16281C41.1934 1.24406 41.0309 1.32531 40.909 1.36594C40.584 1.52844 40.259 1.69094 39.934 1.85344C39.1215 2.30031 38.3496 2.70656 37.5371 3.15344L36.2777 3.84406C36.2371 3.88469 36.1559 3.88469 36.1152 3.92531L36.034 3.96594C35.9934 3.96594 35.9527 3.96594 35.9527 3.96594Z" fill="white"/>
<path d="M60.6512 3.96545C60.6106 3.96545 60.5699 3.96545 60.5699 3.92483L60.0824 3.68108C59.7168 3.47795 59.3512 3.31545 58.9856 3.11233C58.3356 2.7467 57.7262 2.4217 57.0762 2.05608C56.5481 1.7717 56.0199 1.48733 55.5324 1.20295C55.5324 1.20295 55.4918 1.20295 55.4512 1.20295C55.4106 1.20295 55.3699 1.20295 55.3293 1.20295C55.2074 1.20295 55.1262 1.08108 55.1668 0.959201C55.1668 0.837326 55.2887 0.756076 55.4106 0.796701C55.4512 0.796701 55.4512 0.796701 55.4918 0.796701C55.5731 0.796701 55.6543 0.796701 55.7356 0.877951C56.2637 1.16233 56.7918 1.4467 57.2793 1.73108C57.8887 2.0967 58.5387 2.4217 59.1887 2.78733C59.5543 2.99045 59.9199 3.15295 60.2856 3.35608L60.8137 3.59983C60.8949 3.64045 60.9356 3.76233 60.8949 3.8842C60.8137 3.92483 60.7324 3.96545 60.6512 3.96545Z" fill="white"/>
<path d="M73.652 3.96594C73.5707 3.96594 73.4895 3.92531 73.4488 3.84406C73.4082 3.72219 73.4488 3.64094 73.5707 3.60031L73.652 3.55969C73.6926 3.55969 73.7332 3.51906 73.7738 3.51906L75.0332 2.82844C75.8457 2.38156 76.6582 1.93469 77.4707 1.48781C77.7957 1.32531 78.1207 1.16281 78.4457 1.00031C78.6082 0.919062 78.7301 0.837812 78.8926 0.797187C78.9738 0.756562 79.0957 0.797187 79.177 0.878437C79.2176 0.959687 79.177 1.08156 79.0957 1.16281C78.9332 1.24406 78.7707 1.32531 78.6488 1.36594C78.3238 1.52844 77.9988 1.69094 77.6738 1.85344C76.8613 2.30031 76.0488 2.74719 75.2363 3.15344L73.977 3.84406C73.9363 3.88469 73.8551 3.88469 73.8145 3.92531L73.7332 3.96594C73.6926 3.96594 73.6926 3.96594 73.652 3.96594Z" fill="white"/>
<path d="M98.391 3.96545C98.3504 3.96545 98.3098 3.96545 98.3098 3.92483L97.7817 3.68108C97.416 3.47795 97.0504 3.31545 96.6848 3.11233C96.0348 2.7467 95.4254 2.4217 94.7754 2.05608C94.2473 1.7717 93.7598 1.48733 93.2317 1.20295C93.2317 1.20295 93.191 1.20295 93.1504 1.20295C93.1098 1.20295 93.0692 1.20295 93.0285 1.20295C92.9067 1.20295 92.8254 1.08108 92.866 0.959201C92.866 0.837326 92.9879 0.756076 93.1098 0.796701C93.1504 0.796701 93.1504 0.796701 93.191 0.796701C93.2723 0.796701 93.3535 0.796701 93.4348 0.877951C93.9629 1.16233 94.4504 1.4467 94.9785 1.73108C95.6285 2.0967 96.2379 2.4217 96.8879 2.78733C97.2535 2.99045 97.6192 3.15295 97.9848 3.35608L98.5129 3.59983C98.5942 3.64045 98.6348 3.76233 98.5942 3.8842C98.5129 3.92483 98.4317 3.96545 98.391 3.96545Z" fill="white"/>
<path d="M111.39 3.96584C111.309 3.96584 111.228 3.92521 111.187 3.84396C111.146 3.72209 111.187 3.64084 111.309 3.60021L111.39 3.55959C111.431 3.55959 111.471 3.51896 111.512 3.51896L112.771 2.82834C113.584 2.38146 114.356 1.93459 115.168 1.52834C115.493 1.36584 115.818 1.20334 116.143 1.04084C116.306 0.95959 116.428 0.87834 116.59 0.837715C116.671 0.79709 116.793 0.837715 116.875 0.918965C116.915 1.00021 116.875 1.12209 116.793 1.20334C116.631 1.28459 116.468 1.36584 116.346 1.40646C116.021 1.56896 115.696 1.73146 115.371 1.89396C114.559 2.34084 113.787 2.74709 112.975 3.19396L111.715 3.88459C111.675 3.92521 111.593 3.92521 111.553 3.96584L111.471 4.00646C111.431 3.96584 111.39 3.96584 111.39 3.96584Z" fill="white"/>
<path d="M-0.242431 48.7942C-0.283056 48.7942 -0.364306 48.7535 -0.404931 48.7129C-0.486181 48.6317 -0.445556 48.5098 -0.364306 48.4285C-0.323681 48.3879 -0.283056 48.3879 -0.242431 48.3473C-0.161181 48.266 -0.0799306 48.1848 0.0419444 48.1442C1.05757 47.5754 2.03257 47.0473 3.04819 46.4785L3.98257 45.991C4.06382 45.9504 4.18569 45.991 4.26694 46.0723C4.30757 46.1535 4.26694 46.2754 4.18569 46.3567L3.21069 46.8035C2.19507 47.3723 1.22007 47.9004 0.204444 48.4692C0.123194 48.5098 0.0825694 48.5504 0.00131935 48.6317C-0.0393057 48.6723 -0.0799306 48.7129 -0.120556 48.7535C-0.161181 48.7535 -0.201806 48.7942 -0.242431 48.7942Z" fill="white"/>
<path d="M-0.242431 28.9939C-0.283056 28.9939 -0.364306 28.9532 -0.404931 28.9126C-0.486181 28.8314 -0.445556 28.7095 -0.364306 28.6282C-0.323681 28.5876 -0.283056 28.5876 -0.283056 28.547C-0.201806 28.4657 -0.120556 28.3845 0.00131941 28.3439C1.01694 27.7751 2.03257 27.2064 3.04819 26.6782L3.94194 26.1907C4.02319 26.1501 4.14507 26.1907 4.22632 26.272C4.26694 26.3532 4.22632 26.4751 4.14507 26.5564L3.25132 27.0439C2.23569 27.6126 1.22007 28.1407 0.204444 28.7095C0.123194 28.7501 0.0825694 28.7907 0.00131941 28.872C-0.0393056 28.9126 -0.0799306 28.9126 -0.120556 28.9532C-0.161181 28.9939 -0.201806 28.9939 -0.242431 28.9939Z" fill="white"/>
<path d="M-0.242431 111.072C-0.283056 111.072 -0.364306 111.031 -0.404931 110.991C-0.486181 110.909 -0.445556 110.788 -0.364306 110.706C-0.323681 110.666 -0.283056 110.666 -0.242431 110.625C-0.161181 110.544 -0.0799306 110.463 0.0419444 110.422C1.05757 109.853 2.03257 109.325 3.04819 108.756L3.98257 108.269C4.06382 108.228 4.18569 108.269 4.26694 108.35C4.30757 108.431 4.26694 108.553 4.18569 108.634L3.21069 109.081C2.19507 109.65 1.22007 110.178 0.204444 110.747C0.123194 110.788 0.0825694 110.828 0.00131935 110.909C-0.0393057 110.95 -0.0799306 110.991 -0.120556 111.031C-0.161181 111.072 -0.201806 111.072 -0.242431 111.072Z" fill="white"/>
<path d="M4.02219 39.1654C3.98156 39.1654 3.94094 39.1654 3.94094 39.1248L3.08781 38.6373C2.43781 38.2717 1.78781 37.9061 1.13781 37.5404C0.812812 37.3373 0.487812 37.1342 0.122187 36.9311L-0.324688 36.6467C-0.405938 36.6061 -0.446563 36.4436 -0.405938 36.3623C-0.365313 36.2811 -0.202813 36.2404 -0.121563 36.2811L0.325312 36.5655C0.650312 36.7686 0.975313 36.9717 1.30031 37.1748C1.95031 37.5405 2.60031 37.9061 3.25031 38.2717L4.10344 38.7592C4.18469 38.7998 4.22531 38.9217 4.18469 39.0436C4.18469 39.1248 4.10344 39.1654 4.02219 39.1654Z" fill="white"/>
<path d="M4.02219 59.9252C3.98156 59.9252 3.94094 59.9252 3.94094 59.8846L3.08781 59.4377C2.43781 59.0721 1.74719 58.7065 1.09719 58.3002C0.772187 58.0971 0.447187 57.894 0.122187 57.6908C-0.0403127 57.6096 -0.162188 57.4877 -0.324688 57.4065C-0.405938 57.3658 -0.446563 57.2033 -0.405938 57.1221C-0.365313 57.0408 -0.202813 57.0002 -0.121563 57.0408C0.0409374 57.1221 0.203437 57.244 0.325312 57.3252C0.650312 57.5283 0.975312 57.7315 1.30031 57.894C1.95031 58.2596 2.64094 58.6252 3.29094 59.0315L4.14406 59.4783C4.22531 59.519 4.26594 59.6408 4.22531 59.7627C4.18469 59.8846 4.10344 59.9252 4.02219 59.9252Z" fill="white"/>
<path d="M4.02219 101.444C3.98156 101.444 3.94094 101.444 3.94094 101.403L3.08781 100.916C2.43781 100.55 1.78781 100.184 1.13781 99.8188C0.812812 99.6156 0.487812 99.4125 0.122187 99.2094L-0.324688 98.925C-0.405938 98.8844 -0.446563 98.7219 -0.405938 98.6406C-0.365313 98.5594 -0.202813 98.5188 -0.121563 98.5594L0.325312 98.8438C0.650312 99.0469 0.975313 99.25 1.30031 99.4531C1.95031 99.8188 2.60031 100.184 3.25031 100.55L4.10344 101.038C4.18469 101.078 4.22531 101.2 4.18469 101.322C4.18469 101.403 4.10344 101.444 4.02219 101.444Z" fill="white"/>
<path d="M4.02319 19.366C3.98257 19.366 3.94194 19.366 3.94194 19.3254L3.12944 18.8785C2.43882 18.5129 1.78882 18.1473 1.09819 17.741C0.773194 17.5379 0.448194 17.3348 0.0825694 17.1317L-0.364306 16.8473C-0.445556 16.8473 -0.486181 16.7254 -0.404931 16.6035C-0.364306 16.5223 -0.201806 16.4817 -0.120556 16.5223L0.326319 16.8067C0.651319 17.0098 0.976319 17.2129 1.30132 17.416C1.95132 17.7817 2.64194 18.1879 3.33257 18.5535L4.14507 19.0004C4.22632 19.041 4.26694 19.1629 4.22632 19.2848C4.18569 19.3254 4.10444 19.366 4.02319 19.366Z" fill="white"/>
<path d="M-0.242431 90.3122C-0.283056 90.3122 -0.364306 90.2716 -0.404931 90.231C-0.486181 90.1497 -0.445556 90.0279 -0.364306 89.9466C-0.323681 89.906 -0.283056 89.906 -0.283056 89.8654C-0.201806 89.7841 -0.120556 89.7029 0.00131941 89.6622C1.01694 89.0935 2.03257 88.5247 3.04819 87.9966L3.94194 87.5091C4.02319 87.4685 4.14507 87.5091 4.22632 87.5904C4.26694 87.6716 4.22632 87.7935 4.14507 87.8747L3.25132 88.3622C2.23569 88.931 1.22007 89.4591 0.204444 90.0279C0.123194 90.0685 0.0825694 90.1091 0.00131941 90.1904C-0.0393056 90.231 -0.0799306 90.2716 -0.120556 90.3122C-0.161181 90.2716 -0.201806 90.3122 -0.242431 90.3122Z" fill="white"/>
<path d="M4.01984 80.6845C3.97922 80.6845 3.93859 80.6845 3.93859 80.6439L3.12609 80.197C2.43547 79.8314 1.78547 79.4657 1.09484 79.0595C0.769844 78.8564 0.444844 78.6532 0.0792186 78.4501L-0.367656 78.1657C-0.448906 78.1251 -0.489531 77.9626 -0.448906 77.8814C-0.408281 77.8001 -0.245781 77.7595 -0.164531 77.8001L0.282344 78.0845C0.607344 78.2876 0.932343 78.4907 1.25734 78.6939C1.90734 79.0595 2.59797 79.4657 3.28859 79.8314L4.10109 80.2782C4.18234 80.3189 4.22297 80.4407 4.18234 80.5626C4.18234 80.6439 4.10109 80.6845 4.01984 80.6845Z" fill="white"/>
<path d="M-0.242431 69.5529C-0.283056 69.5529 -0.364306 69.5123 -0.404931 69.4717C-0.486181 69.3904 -0.445556 69.2686 -0.364306 69.1873C-0.323681 69.1467 -0.283056 69.1467 -0.283056 69.1061C-0.201806 69.0248 -0.120556 68.9436 0.00131941 68.9029C1.05757 68.2936 2.11382 67.7248 3.17007 67.1561L3.90132 66.7498C3.98257 66.7092 4.10444 66.7498 4.18569 66.8311C4.22632 66.9123 4.18569 67.0342 4.10444 67.1154L3.37319 67.5217C2.31694 68.0904 1.26069 68.6998 0.204444 69.2686C0.123194 69.3092 0.0825694 69.3498 0.00131941 69.4311C-0.0393056 69.4717 -0.0799306 69.5123 -0.120556 69.5529C-0.161181 69.5123 -0.201806 69.5529 -0.242431 69.5529Z" fill="white"/>
<path d="M-0.246337 3.2343C-0.286962 3.2343 -0.327587 3.2343 -0.368212 3.19367C-0.449462 3.11242 -0.490087 2.99055 -0.408837 2.9093L-0.368212 2.86867C-0.327587 2.78742 -0.246337 2.70617 -0.165087 2.66555C0.606788 2.2593 1.41929 1.81242 2.19116 1.40617C2.47554 1.24367 2.75991 1.1218 3.04429 0.959297L3.45054 0.756172C3.53179 0.715547 3.65366 0.756172 3.73491 0.837422C3.77554 0.918672 3.73491 1.04055 3.65366 1.1218L3.24741 1.32492C2.96304 1.48742 2.67866 1.6093 2.39429 1.7718C1.62241 2.17805 0.809913 2.5843 0.0380381 3.03117C0.0380381 3.03117 -0.00258687 3.0718 -0.00258687 3.11242C-0.0432119 3.11242 -0.0838369 3.15305 -0.0838369 3.19367C-0.124462 3.2343 -0.205712 3.2343 -0.246337 3.2343Z" fill="white"/>
</g>
</svg>
