<svg width="220" height="59" viewBox="0 0 220 59" fill="none" xmlns="http://www.w3.org/2000/svg">
<g clip-path="url(#clip0_1343_362)">
<mask id="mask0_1343_362" style="mask-type:luminance" maskUnits="userSpaceOnUse" x="0" y="0" width="220" height="59">
<path d="M220 0H0V59H220V0Z" fill="white"/>
</mask>
<g mask="url(#mask0_1343_362)">
<path d="M30.2994 23.9819L27.612 26.6828L24.9245 23.9819C23.4418 22.4918 23.4418 20.0703 24.9245 18.5336C26.4073 17.0435 28.8167 17.0435 30.2994 18.5336C31.7822 20.0703 31.7822 22.4918 30.2994 23.9819Z" fill="#ADADBA"/>
<path d="M24.9245 31.6188L27.612 28.918L30.2994 31.6188C31.7822 33.109 31.7822 35.5304 30.2994 37.0671C28.8167 38.5573 26.4073 38.5573 24.9245 37.0671C23.4418 35.5304 23.4418 33.109 24.9245 31.6188Z" fill="#ADADBA"/>
<path d="M31.414 30.5478L28.7266 27.8004L31.414 25.0995C32.8967 23.6094 35.3062 23.6094 36.7889 25.0995C38.2716 26.5897 38.2716 29.0111 36.7889 30.5478C35.3062 32.038 32.8967 32.038 31.414 30.5478Z" fill="#ADADBA"/>
<path d="M23.8619 25.0996L26.5494 27.8004L23.8619 30.5013C22.3792 31.9914 19.9698 31.9914 18.487 30.5013C17.0043 29.0112 17.0043 26.5897 18.487 25.053C19.9234 23.6094 22.3792 23.6094 23.8619 25.0996Z" fill="#ADADBA"/>
<path d="M174.404 26.9622H170.466V36.5084H167.222V26.9622H163.284V23.7957H174.404V26.9622ZM63.7557 31.5258H73.2081C73.3008 31.1067 73.3471 30.641 73.3471 30.1753C73.3471 26.45 70.706 23.4697 66.9992 23.4697C63.0607 23.4697 60.3732 26.4034 60.3732 30.1753C60.3732 33.9472 63.0143 36.8809 67.2308 36.8809C69.6403 36.8809 71.54 35.903 72.6984 34.1801L70.1036 32.6434C69.5476 33.3884 68.5282 33.9007 67.2772 33.9007C65.6091 33.9007 64.2191 33.2022 63.7557 31.5258ZM63.7094 28.9646C64.08 27.3348 65.2848 26.4034 66.9992 26.4034C68.3429 26.4034 69.733 27.1485 70.1036 28.9646H63.7094ZM82.8922 23.4697C81.0851 23.4697 79.7414 24.1682 78.8147 25.3324V23.8423H75.5712V41.5842H78.8147V35.0183C79.7414 36.1824 81.0388 36.8809 82.8922 36.8809C86.2747 36.8809 89.0084 33.9472 89.0084 30.1753C89.0548 26.4034 86.2747 23.4697 82.8922 23.4697ZM82.2898 33.7144C80.2974 33.7144 78.8147 32.2708 78.8147 30.1288C78.8147 27.9867 80.2974 26.5431 82.2898 26.5431C84.2822 26.5431 85.765 27.9867 85.765 30.1288C85.765 32.2708 84.3286 33.7144 82.2898 33.7144ZM94.059 31.5258H103.511C103.604 31.1067 103.65 30.641 103.65 30.1753C103.65 26.45 101.009 23.4697 97.3025 23.4697C93.364 23.4697 90.6765 26.4034 90.6765 30.1753C90.6765 33.9472 93.3176 36.8809 97.5341 36.8809C99.9436 36.8809 101.843 35.903 103.002 34.1801L100.407 32.6434C99.8509 33.3884 98.8315 33.9007 97.5805 33.9007C95.9124 33.9007 94.5223 33.2022 94.059 31.5258ZM94.0126 28.9646C94.3833 27.3348 95.588 26.4034 97.3025 26.4034C98.6462 26.4034 100.036 27.1485 100.407 28.9646H94.0126ZM127.328 23.4697C125.474 23.4697 124.177 24.1682 123.25 25.3324V23.8423H120.007V41.5842H123.25V35.0183C124.177 36.1824 125.474 36.8809 127.328 36.8809C130.71 36.8809 133.444 33.9472 133.444 30.1753C133.444 26.4034 130.664 23.4697 127.328 23.4697ZM126.725 33.7144C124.733 33.7144 123.25 32.2708 123.25 30.1288C123.25 27.9867 124.733 26.5431 126.725 26.5431C128.718 26.5431 130.201 27.9867 130.201 30.1288C130.201 32.2708 128.718 33.7144 126.725 33.7144ZM138.495 31.5258H147.947C148.04 31.1067 148.086 30.641 148.086 30.1753C148.086 26.45 145.445 23.4697 141.738 23.4697C137.8 23.4697 135.112 26.4034 135.112 30.1753C135.112 33.9472 137.753 36.8809 141.97 36.8809C144.379 36.8809 146.279 35.903 147.437 34.1801L144.842 32.6434C144.286 33.3884 143.267 33.9007 142.016 33.9007C140.302 33.9007 138.912 33.2022 138.495 31.5258ZM139.19 22.4918C140.116 22.4918 140.858 21.7468 140.858 20.8154C140.858 19.8841 140.116 19.0925 139.19 19.0925C138.263 19.0925 137.475 19.8841 137.475 20.8154C137.475 21.7468 138.263 22.4918 139.19 22.4918ZM138.402 28.9646C138.773 27.3348 139.977 26.4034 141.692 26.4034C143.035 26.4034 144.425 27.1485 144.796 28.9646H138.402ZM143.916 22.4918C144.842 22.4918 145.584 21.7468 145.584 20.8154C145.584 19.8841 144.842 19.0925 143.916 19.0925C142.989 19.0925 142.201 19.8841 142.201 20.8154C142.248 21.7468 142.989 22.4918 143.916 22.4918ZM156.195 36.8344C158.65 36.8344 160.782 35.5305 161.848 33.5281L159.021 31.8983C158.511 32.9228 157.446 33.5747 156.148 33.5747C154.202 33.5747 152.766 32.1311 152.766 30.1288C152.766 28.1264 154.202 26.6828 156.148 26.6828C157.446 26.6828 158.511 27.3348 159.021 28.3592L161.801 26.7294C160.782 24.7736 158.65 23.4697 156.195 23.4697C152.395 23.4697 149.569 26.4034 149.569 30.1753C149.569 33.9472 152.395 36.8344 156.195 36.8344ZM182.096 36.8344C185.803 36.8344 188.722 33.9007 188.722 30.1288C188.722 26.3569 185.803 23.4697 182.096 23.4697C178.389 23.4697 175.47 26.4034 175.47 30.1753C175.47 33.9472 178.389 36.8344 182.096 36.8344ZM182.096 33.6678C180.196 33.6678 178.714 32.2243 178.714 30.1753C178.714 28.1264 180.196 26.6828 182.096 26.6828C184.042 26.6828 185.525 28.1264 185.525 30.1753C185.525 32.2243 184.042 33.6678 182.096 33.6678ZM114.122 36.5084H117.875L113.056 30.0822L117.69 23.8423H113.844L110.276 28.9646H109.164V23.8423H105.921V36.5084H109.164V31.5258H110.508L114.122 36.5084ZM198.869 36.5084H202.623L197.85 30.0822L202.484 23.8423H198.638L195.024 29.0112H193.912V23.8423H190.668V36.5084H193.912V31.5258H195.255L198.869 36.5084ZM58.2418 19.0459H45.1289V36.4618H48.6041V22.3521H54.813V36.5084H58.2881V19.0459H58.2418Z" fill="#ADADBA"/>
</g>
</g>
<defs>
<clipPath id="clip0_1343_362">
<rect width="220" height="59" fill="white"/>
</clipPath>
</defs>
</svg>
