<svg width="53" height="65" viewBox="0 0 53 65" fill="none" xmlns="http://www.w3.org/2000/svg">
<g clip-path="url(#clip0_1343_383)">
<path fill-rule="evenodd" clip-rule="evenodd" d="M12.8587 3.76881C17.3661 1.048 22.7249 -0.274965 27.9836 0.037055C33.1672 0.311633 38.2506 2.15879 42.3949 5.26651C45.9132 7.88748 48.7554 11.3946 50.596 15.376C52.4991 19.4821 53.3004 24.0876 52.9123 28.5931C52.6243 32.1626 51.5976 35.6573 49.8948 38.8149C48.0167 42.3345 45.3248 45.4172 42.0944 47.7636C37.612 51.0211 32.0654 52.8683 26.4937 52.7934C21.1724 52.8558 15.8761 51.1834 11.5064 48.188C7.49981 45.4422 4.26948 41.5981 2.30373 37.1799C1.02662 34.3717 0.300425 31.3389 0.0625322 28.2686C-0.275526 23.1765 0.851334 17.9844 3.36799 13.5413C5.60919 9.53494 8.91465 6.12768 12.8587 3.76881ZM21.6732 9.08563C18.7309 12.1934 15.9513 15.5257 13.8854 19.2824C12.8712 21.167 12.0323 23.2139 11.832 25.3731C11.6442 27.6945 12.2201 30.0659 13.4722 32.0253C14.7868 34.1096 16.7526 35.6947 18.8811 36.9178C17.7042 37.105 16.5272 37.2423 15.3503 37.3546C13.9855 37.5044 12.6208 37.5793 11.256 37.6542C10.5799 37.6667 9.8537 37.6292 9.26523 38.0411C8.23853 38.6526 7.92551 40.1503 8.58911 41.1363C9.02733 41.8602 9.89126 42.2471 10.7301 42.1722C16.0389 41.9725 21.3602 41.3235 26.5062 39.9631C27.1823 40.0755 27.8334 40.3126 28.497 40.4374C33.0169 41.4733 37.6496 41.9975 42.2822 42.1722C42.9959 42.2346 43.7346 41.9725 44.2104 41.4234C44.9992 40.5747 44.9491 39.1144 44.0977 38.3157C43.5593 37.7665 42.7705 37.6292 42.0318 37.6667C39.4025 37.5543 36.7606 37.3297 34.1563 36.9303C35.5962 36.1315 36.9359 35.1331 38.0878 33.9349C39.6404 32.3124 40.7672 30.2531 41.1178 28.0315C41.4433 26.097 41.1929 24.0876 40.5168 22.2529C39.6028 19.7193 38.1504 17.3978 36.5728 15.2262C33.7306 11.3821 30.4252 7.88748 26.8693 4.70487C26.7566 4.61751 26.6439 4.50518 26.5187 4.45526C24.8284 5.90303 23.2007 7.45065 21.6732 9.08563ZM19.144 19.2824C18.0422 20.9798 17.003 22.7521 16.5147 24.7366C18.5931 23.8629 20.5839 22.7646 22.3118 21.3168C23.7892 20.1062 25.0162 18.6085 26.0179 16.9985C26.2433 17.2481 26.406 17.5351 26.5938 17.8097C27.5955 19.2575 28.9102 20.4432 30.3375 21.4416C32.2281 22.7646 34.3441 23.7631 36.5227 24.5369C36.2348 23.4885 35.784 22.49 35.2832 21.529C34.1688 19.4697 32.779 17.5726 31.3016 15.7504C29.7991 13.9407 28.2215 12.1934 26.5312 10.5459C23.8393 13.2542 21.2725 16.1123 19.144 19.2824ZM16.3144 26.0096C16.2768 26.8458 16.4145 27.6945 16.715 28.4808C17.2659 29.941 18.3678 31.1018 19.6073 32.0253C21.4478 33.3857 23.5889 34.2968 25.7549 35.0207C26.118 35.1331 26.5062 35.3078 26.8818 35.158C28.0087 34.8086 29.123 34.3967 30.1998 33.9099C32.153 33.0113 34.0687 31.8756 35.4084 30.1532C36.3725 28.9426 36.8483 27.37 36.7481 25.8349C32.7039 24.462 28.7474 22.3652 26.0304 19.0079C23.6515 22.2903 20.0831 24.5743 16.3144 26.0096ZM18.1925 27.2078C18.493 27.0205 18.7935 26.8583 19.1065 26.696C18.7809 27.5447 18.9562 28.6056 19.7325 29.1423C20.5589 29.8038 21.8735 29.5791 22.4745 28.7054C22.9253 28.1313 22.8877 27.345 22.6623 26.6836C22.9002 26.8208 23.1506 26.9706 23.4011 27.1079C22.75 26.2717 21.7358 25.5353 20.6215 25.6726C19.6198 25.7974 18.8185 26.4839 18.1925 27.2078ZM29.5988 27.1953C29.9369 26.9956 30.2749 26.7959 30.6255 26.6212C30.5128 26.9457 30.3876 27.2826 30.4126 27.6321C30.3751 28.4558 31.0011 29.2296 31.7899 29.4418C32.779 29.7913 33.9435 29.1048 34.2064 28.1189C34.294 27.6571 34.2189 27.1828 34.1563 26.721C34.3566 26.8708 34.557 27.0081 34.7824 27.1329C34.1188 26.2467 33.042 25.4979 31.8901 25.6976C30.951 25.8598 30.1873 26.4963 29.5988 27.1953ZM25.0914 29.7913C24.9912 29.8911 24.9035 30.0035 24.8034 30.1033C24.8034 30.2531 24.8034 30.4028 24.8284 30.5401C25.6297 31.7133 27.6831 31.6509 28.3342 30.3654C28.2215 30.1532 28.1464 29.8537 27.8835 29.7913C27.4703 29.6665 27.2199 30.0908 26.8693 30.2031C26.4311 30.3904 25.9428 30.1158 25.6423 29.8038C25.4419 29.8038 25.2666 29.8038 25.0914 29.7913ZM7.66258 54.0914C8.48894 53.9915 9.31531 53.8418 10.1542 53.8917C10.3796 54.2287 10.63 54.653 10.4547 55.0649C10.3044 55.5267 9.81613 55.7888 9.35287 55.7763C8.55155 55.7763 7.75022 55.7763 6.9489 55.7888C6.48564 57.4612 6.0975 59.1586 5.59667 60.831C5.39634 61.505 5.1334 62.2663 4.45729 62.5908C3.99402 62.8404 3.41807 62.7031 3.02993 62.3662C2.96733 62.1415 3.08001 61.9169 3.14262 61.7172C3.81873 59.7826 4.48233 57.8356 5.18349 55.9011C4.31956 55.9261 3.45563 55.9885 2.57919 56.0634C2.01576 56.1507 1.43981 56.1382 0.876376 56.1133C0.851335 55.3395 1.66518 54.8902 2.34129 54.7903C4.10671 54.5407 5.88464 54.3285 7.66258 54.0914ZM10.054 56.9121C8.98977 57.5735 8.20097 58.6594 7.96308 59.895C7.86291 60.6064 7.96307 61.4051 8.41382 62.0042C9.05237 62.7031 10.1417 62.8404 11.0056 62.491C11.8946 62.129 12.6208 61.48 13.2844 60.8061C13.1466 60.7561 13.0214 60.7062 12.8837 60.6563C12.2952 60.8809 11.7443 61.2054 11.1183 61.3552C10.4171 61.505 9.66589 60.9309 9.69093 60.207C9.71597 59.3957 9.96638 58.572 10.4171 57.8856C10.7427 57.4238 11.2936 57.0119 11.882 57.1617C12.433 57.3114 12.7209 57.9854 12.5331 58.5096C12.3829 58.7717 12.145 58.9963 11.8695 59.1087C11.4814 59.221 10.9806 59.0213 10.6801 59.3708C10.5423 59.5081 10.2544 59.8076 10.4923 59.9574C11.5815 60.207 12.6834 59.6329 13.397 58.8466C13.8728 58.3723 14.2735 57.6859 14.0606 56.9994C13.8353 56.4253 13.2218 56.1008 12.6208 56.0758C11.6817 56.0509 10.8178 56.4378 10.054 56.9121ZM15.3628 57.6859C15.6508 56.7997 16.5272 56.1133 17.4537 56.0883C17.3411 56.7623 17.1282 57.4238 16.9028 58.0728C17.5664 57.4612 18.205 56.7373 19.1065 56.4877C19.9579 56.2131 20.9345 56.6999 21.3352 57.4862C21.7108 58.2101 21.6106 59.0837 21.3602 59.8326C20.8719 61.3677 19.3569 62.5284 17.7417 62.6158C17.1532 62.6283 16.2392 62.3662 16.3269 61.6173C16.7275 61.6048 17.0781 61.9418 17.4913 61.842C18.6557 61.7047 19.3819 60.5814 19.6323 59.533C19.745 58.9589 19.8202 58.235 19.3318 57.8107C18.8811 57.5486 18.3427 57.7857 17.9295 58.0228C17.3786 58.3723 16.7401 58.7842 16.5773 59.4581C16.2267 60.7811 15.9137 62.1041 15.488 63.4021C15.3002 63.9512 15.0373 64.5503 14.4863 64.8374C14.0356 65.087 13.4471 65.0121 13.059 64.6751C12.9087 64.5378 13.0339 64.3257 13.0715 64.1759C13.8353 62.0167 14.5615 59.845 15.3628 57.6859ZM23.7016 57.3988C24.5655 56.6874 25.6172 56.1382 26.7441 56.0634C27.3701 56.0509 28.0713 56.3504 28.3217 56.962C28.5971 57.6609 28.1214 58.3598 27.6581 58.8466C26.9068 59.6578 25.7174 60.2694 24.603 59.8825C24.7658 59.558 24.9912 59.1836 25.3918 59.1586C25.7925 59.1461 26.2307 59.1836 26.5312 58.8591C27.1197 58.4097 26.8818 57.3614 26.1807 57.1617C25.6423 56.9994 25.1164 57.3489 24.7909 57.7483C24.2149 58.4722 24.0146 59.4207 23.9395 60.3193C24.0647 60.7686 24.3401 61.2179 24.8409 61.3178C25.7049 61.5424 26.406 60.8185 27.2199 60.6688C27.3826 60.6064 27.5704 60.831 27.3952 60.9433C26.7942 61.5799 26.1055 62.1415 25.2917 62.4785C24.4778 62.8279 23.4762 62.7031 22.8001 62.129C22.3618 61.6922 22.2366 61.0557 22.1991 60.4566C22.2241 59.2834 22.8502 58.1851 23.7016 57.3988ZM41.4809 56.1882C42.2447 56.0384 43.1336 56.0758 43.7221 56.6375C44.4608 57.3988 44.7112 58.572 44.3857 59.5705C44.1603 60.2694 43.8473 60.9558 43.334 61.48C42.8331 62.0042 42.1445 62.2788 41.4684 62.5159C40.8674 62.7406 40.2038 62.7031 39.5903 62.5659C38.814 62.3786 38.1629 61.7671 37.925 61.0182C37.5369 59.8575 37.9501 58.547 38.7639 57.6734C39.4526 56.8871 40.4667 56.4503 41.4809 56.1882ZM41.2305 57.1617C40.3666 57.5735 40.0911 58.5845 39.8157 59.4207C39.6529 60.0822 39.4275 60.9434 39.991 61.48C40.5293 61.9418 41.3682 61.7172 41.819 61.2429C42.3699 60.6563 42.6453 59.87 42.7956 59.0837C42.8707 58.5595 42.8582 57.9729 42.5702 57.5111C42.2697 57.1117 41.6812 56.9994 41.2305 57.1617ZM46.3139 56.7373C45.8757 58.0478 45.5126 59.3832 45.1119 60.6937C44.9491 61.2928 44.6987 61.8669 44.6862 62.5034C45.2997 62.8279 46.1636 62.6907 46.5393 62.0666C46.99 61.2678 47.0401 60.3193 47.2655 59.4457C48.0918 60.182 48.3047 61.3552 49.131 62.1041C49.707 62.5908 50.3831 63.0651 51.1594 63.09C51.51 63.0651 51.9357 62.9777 52.1235 62.6407C52.1736 62.3911 51.9482 62.2164 51.7854 62.0791C51.3597 61.7421 50.9215 61.4301 50.5459 61.0432C49.8698 60.3942 49.3314 59.5954 48.5927 58.9963C48.4925 58.8965 48.3673 58.8341 48.3047 58.7093C48.8431 58.2475 49.3815 57.7607 50.0701 57.5236C50.5834 57.3489 51.247 57.5985 51.6477 57.1242C51.8731 56.9121 51.9732 56.5127 51.7604 56.2506C51.5225 55.8262 50.934 55.9385 50.5459 56.0883C49.1936 56.5626 48.2671 57.7108 47.3155 58.7342C47.4533 57.8481 47.7162 56.9869 47.9917 56.1382C47.4157 55.976 46.5017 56.0259 46.3139 56.7373ZM34.7072 57.0244C34.0311 58.0603 33.5303 59.2085 32.7916 60.1945C32.7916 59.0463 32.8792 57.898 32.6789 56.7623C32.6038 56.625 32.5161 56.5002 32.4285 56.3879C31.9902 56.5251 31.6146 56.8247 31.4268 57.2366C30.7006 58.6344 29.9744 60.1446 28.5971 61.0182C28.0212 61.3427 27.608 61.9418 27.6957 62.6283C28.0588 62.7905 28.497 62.7406 28.785 62.4535C29.9243 61.4176 30.5629 59.9823 31.3642 58.6968C31.3767 59.4457 31.3392 60.207 31.3392 60.9558C31.3517 61.4925 31.2891 62.0541 31.4769 62.5659C31.9276 62.5534 32.1906 62.154 32.441 61.8295C33.2048 60.7811 33.7807 59.6079 34.4568 58.5096C34.6947 59.2959 34.557 60.1321 34.6822 60.9433C34.7197 61.5175 34.6071 62.1165 34.87 62.6532C35.5962 62.7905 36.5227 62.4286 36.7105 61.6548C36.9609 60.7936 36.7731 59.9074 36.673 59.0338C36.5352 58.235 36.4601 57.4238 36.1972 56.65C36.1095 56.4253 35.9468 56.0883 35.6463 56.1757C35.2331 56.3255 34.9326 56.6624 34.7072 57.0244Z" fill="#ADADBA"/>
</g>
<defs>
<clipPath id="clip0_1343_383">
<rect width="53" height="65" fill="white"/>
</clipPath>
</defs>
</svg>
