<svg width="98" height="59" viewBox="0 0 98 59" fill="none" xmlns="http://www.w3.org/2000/svg">
<g clip-path="url(#clip0_1343_351)">
<path d="M87.1814 59.0002C61.6038 59.0002 36.0059 59.0002 10.4283 59.0002C10.3673 58.9391 10.3266 58.878 10.2656 58.8169C10.4283 58.7355 10.6113 58.6948 10.7333 58.5726C16.0602 53.2997 21.3669 48.0267 26.6735 42.7741C32.8951 36.6054 39.0963 30.457 45.3179 24.2883C46.3955 23.2093 47.4934 22.171 48.571 21.0716C48.9167 20.7255 49.0997 20.7255 49.4453 21.0716C55.5042 27.1792 61.6038 33.2665 67.683 39.3539C74.0876 45.7669 80.4718 52.1799 86.8764 58.5726C86.9984 58.6948 87.1407 58.7966 87.2831 58.8984C87.2424 58.9391 87.2221 58.9798 87.1814 59.0002Z" fill="#D0D5DD"/>
<path d="M42.4938 10.7698C41.8025 10.098 41.1519 9.44652 40.5419 8.85611C43.429 5.90407 46.3162 2.95204 49.183 0C50.1589 0.956867 51.0942 1.85266 51.9888 2.78917C52.0701 2.8706 52.0295 3.13527 51.9481 3.27778C51.0535 5.049 50.1589 6.82022 49.2643 8.59144C49.183 8.75431 49.1017 8.89683 48.9797 9.16149C49.2237 9.0597 49.366 8.99862 49.5286 8.93754C51.3585 8.10283 53.2087 7.28848 55.0386 6.4334C55.3436 6.29089 55.5266 6.29089 55.7909 6.55556C56.6042 7.36991 57.4378 8.16391 58.1697 8.87647C55.2216 11.9099 52.3141 14.862 49.4473 17.7937C48.7154 17.0811 48.0241 16.3889 47.3531 15.7374C48.7764 14.2919 50.2403 12.8057 51.7042 11.3399C51.6838 11.2992 51.6635 11.2585 51.6432 11.2177C51.5008 11.2788 51.3382 11.3399 51.1959 11.401C49.4473 12.195 47.6988 12.989 45.9502 13.783C45.6656 13.9051 45.4622 13.9458 45.2386 13.6812C44.9336 13.3147 44.3847 13.0093 44.3237 12.6225C44.2627 12.2357 44.6286 11.7471 44.832 11.3195C45.5639 9.71118 46.3162 8.10283 46.9871 6.4334C45.4826 7.89924 43.978 9.34472 42.4938 10.7698ZM90.3145 53.1163C90.3552 52.9331 90.3755 52.872 90.3755 52.8109C91.1685 50.0217 91.9614 47.2326 92.734 44.4434C92.7747 44.2805 92.8154 44.0159 92.7137 43.9141C91.7581 42.9369 90.7822 42.0003 89.7656 41.0231C86.8988 43.9548 83.9913 46.9272 81.1245 49.8589C81.7344 50.4493 82.4257 51.1211 83.1373 51.8337C85.0282 49.981 86.9801 48.0877 88.8506 46.2757C88.8506 46.2146 88.8506 46.2757 88.8303 46.3368C88.1797 49.0649 87.5494 51.793 86.8581 54.5007C86.6751 55.2336 86.7158 55.7426 87.3257 56.2516C88.017 56.8216 88.627 57.5138 89.3183 58.206C92.2257 55.2336 95.1129 52.2816 98 49.3295C97.4104 48.7595 96.7394 48.108 95.9465 47.314C94.1369 49.187 92.2664 51.1008 90.3145 53.1163ZM57.8241 26.2019C58.3324 25.6725 58.922 25.0821 59.5929 24.3899C58.373 23.1888 57.0921 21.9672 55.8925 20.8068C56.5635 20.1349 57.1734 19.5038 57.8444 18.8116C58.8 19.7685 59.7963 20.766 60.7722 21.7229C61.3415 21.1325 61.9311 20.5421 62.6427 19.8295C61.6668 18.8727 60.6299 17.8954 59.7149 16.9997C60.1826 16.4907 60.6299 16.0224 61.0772 15.5338C62.3581 16.7961 63.639 18.038 64.8996 19.2799C65.4486 18.7302 66.0179 18.1398 66.5871 17.5493C64.5539 15.5542 62.4801 13.5386 60.3859 11.4824C57.5801 14.353 54.6929 17.305 51.7651 20.2978C53.7577 22.2115 55.8112 24.2271 57.8241 26.2019ZM13.0124 42.1836C12.3822 41.6135 11.8332 41.1046 11.3452 40.6567C12.5448 39.3741 13.7444 38.1118 14.9643 36.8088C14.4357 36.3202 13.8664 35.7705 13.2768 35.2208C11.2842 37.1753 9.25104 39.1705 7.25851 41.1046C10.2066 44.0566 13.1141 46.9679 16.0419 49.8996C18.0344 47.9451 20.0676 45.9703 22.1212 43.9548C21.5112 43.3848 20.9419 42.8554 20.3523 42.2854C19.112 43.4865 17.8311 44.7488 16.6112 45.95C15.9402 45.3188 15.31 44.7284 14.7203 44.1787C15.7369 43.0997 16.7129 42.0411 17.7295 40.962C17.1602 40.4327 16.5705 39.883 15.8183 39.1705C14.8627 40.1884 13.8867 41.2471 13.0124 42.1836ZM34.483 15.0045C34.1983 14.9027 34.0154 14.9231 33.812 15.147C33.2021 15.7781 32.5515 16.3889 31.9212 16.9997C31.8398 17.0811 31.7788 17.1829 31.6772 17.305C33.2224 17.814 34.7066 18.2823 36.2112 18.7709C37.2888 19.117 38.4681 19.3002 39.4237 19.8703C40.3589 20.4403 41.0909 21.3972 41.8838 22.2115C42.2905 22.6391 42.6768 23.087 43.0834 23.5552C43.8967 22.6798 44.6083 21.9265 45.3403 21.1529C44.3643 20.1553 43.3071 19.0966 42.2905 18.0176C42.1278 17.8344 41.9855 17.6104 41.9245 17.3661C41.5585 15.8799 41.2129 14.3734 40.8469 12.8872C40.5622 11.686 40.2573 10.4645 39.9523 9.18185C39.078 10.0369 38.2647 10.8309 37.4718 11.6249C37.3905 11.7063 37.3905 11.9303 37.4311 12.0728C37.5938 12.6836 37.7768 13.274 37.9394 13.8847C38.1834 14.7602 38.4274 15.6356 38.6917 16.6128C37.2075 16.0021 35.8452 15.5135 34.483 15.0045ZM80.1892 31.3527C79.4573 30.6401 78.705 29.9072 77.912 29.1335C75.0656 32.0449 72.1988 34.9969 69.271 37.9897C71.2228 39.9034 73.256 41.8782 75.2689 43.8326C75.8992 43.1812 76.5905 42.489 77.3427 41.7153C76.1432 40.5345 74.8826 39.313 73.622 38.0914C75.8585 35.7705 78.0544 33.5311 80.1892 31.3527ZM8.60042 57.2288C10.6336 55.254 12.6261 53.2995 14.639 51.3247C13.9274 50.6732 13.2361 50.0217 12.5245 49.3703C11.3452 50.5104 10.105 51.7319 8.82407 52.9738C6.58755 50.6732 4.37137 48.4134 2.15519 46.1332C1.42324 46.9068 0.711618 47.6398 0 48.4134C2.82614 51.3044 5.69295 54.2564 8.60042 57.2288ZM85.5365 36.8088C82.69 39.7202 79.8232 42.6722 76.9564 45.6039C77.6071 46.2554 78.339 46.9883 79.132 47.7619C81.9784 44.8506 84.8656 41.8986 87.7324 38.9465C87.0817 38.295 86.3295 37.5825 85.5365 36.8088ZM73.3983 29.6222C72.1988 30.5587 70.8975 30.8437 69.4133 30.2736C68.783 32.2281 68.1527 34.1418 67.5224 36.0963C66.7498 35.343 66.0179 34.6508 65.3062 33.8975C65.2046 33.7754 65.2452 33.47 65.2859 33.2868C65.7942 30.9455 66.3025 28.6042 66.8311 26.2426C66.8515 26.1611 66.8515 26.0797 66.7905 25.9372C65.2656 27.5252 63.7407 29.1132 62.2361 30.6605C61.3822 29.8257 60.6299 29.0928 59.9793 28.4617C62.8257 25.5097 65.6925 22.5373 68.4983 19.6259C70.4095 21.4786 72.2598 23.1888 73.988 25.021C75.1469 26.2019 74.7809 28.5228 73.3983 29.6222ZM71.1822 25.6522C70.5519 24.96 69.8199 24.3492 69.149 23.7181C68.5187 24.3696 67.8477 25.0414 67.1361 25.7743C67.5427 26.2019 67.9697 26.6701 68.3967 27.118C68.478 27.2198 68.5593 27.3216 68.661 27.3827C68.844 27.5252 69.027 27.6677 69.2303 27.7491C69.8809 28.0342 70.6129 27.8306 71.0398 27.2809C71.5075 26.7108 71.6091 26.1001 71.1822 25.6522ZM38.1631 25.9983C38.1631 29.3168 35.0523 32.3095 31.5958 32.3095C28.3021 32.3095 25.2726 29.2557 25.2726 25.9372C25.2726 22.2522 27.9564 19.5242 31.6162 19.5242C35.2556 19.5038 38.1427 22.3744 38.1631 25.9983ZM35.1133 25.9983C34.5237 24.5121 33.4664 23.3313 32.0432 22.578C31.1486 22.1097 30.2336 22.1912 29.4203 22.7816C28.5664 23.3923 28.0784 24.2271 28.1801 25.3264C28.3427 27.0773 30.8639 29.3778 32.6124 29.3575C34.239 29.3371 35.7029 27.4641 35.1133 25.9983ZM30.8436 35.3023C30.1523 36.0352 29.4813 36.7681 28.79 37.4807C28.6884 37.5825 28.4037 37.5418 28.2207 37.501C26.0249 36.931 23.829 36.3406 21.6332 35.7705C21.4909 35.7298 21.3485 35.7095 21.1656 35.7502C22.6905 37.3178 24.195 38.8651 25.6386 40.3513C24.9066 41.1453 24.1747 41.9189 23.5037 42.6315C20.5556 39.7405 17.6075 36.8496 14.6593 33.9586C14.7813 33.8161 14.8627 33.7143 14.944 33.6329C16.3266 32.2484 17.7295 30.8844 19.112 29.5204C20.027 28.6246 21.1249 28.1563 22.4261 28.3192C24.0934 28.5228 25.3133 29.8665 25.3539 31.597C25.3743 32.2077 25.2726 32.8389 25.2319 33.4903C27.1228 34.0807 29.0137 34.7119 30.8436 35.3023ZM22.4261 31.9227C21.8772 31.373 21.1859 31.2509 20.6166 31.6988C19.9863 32.1874 19.417 32.7574 18.8071 33.3071C19.5797 34.0197 20.2913 34.6915 21.0639 35.4041C21.3892 35.0987 21.8162 34.7119 22.2228 34.3251C22.3855 34.1622 22.5481 34.0197 22.6701 33.8364C23.0971 33.185 23.0158 32.5131 22.4261 31.9227Z" fill="#ADADBA"/>
</g>
<defs>
<clipPath id="clip0_1343_351">
<rect width="98" height="59" fill="white"/>
</clipPath>
</defs>
</svg>
