<svg width="121" height="27" viewBox="0 0 121 27" fill="none" xmlns="http://www.w3.org/2000/svg">
<g clip-path="url(#clip0_1343_375)">
<path fill-rule="evenodd" clip-rule="evenodd" d="M21.8276 8.20439C21.974 8.94081 22.1453 9.50717 22.3459 9.90547C22.544 10.2979 22.8816 10.4946 23.3567 10.4946L22.0969 13.6125C21.6008 14.8318 21.0749 16.684 20.5056 19.156C19.9455 21.6385 19.7675 23.4026 19.9736 24.4597C20.1768 25.503 20.6544 26.1851 21.399 26.5123C22.1403 26.8315 22.8516 26.9939 23.5397 26.9939C24.5885 26.9939 25.7967 26.8751 27.1627 26.6247C28.525 26.3807 29.5517 26.1249 30.2427 25.8599C30.567 25.7379 30.7689 25.5421 30.8666 25.2843C30.9561 25.0295 30.9235 24.4978 30.7667 23.6934C30.6826 23.2676 30.4958 23.0546 30.1908 23.0546C29.7707 23.0546 29.2882 23.1489 28.7494 23.3401C28.2086 23.5264 27.6608 23.6784 27.107 23.7896C26.5508 23.9101 25.6751 23.9652 24.4765 23.9652C24.1722 23.9652 23.9704 23.9293 23.8684 23.8568C23.7694 23.7896 23.7002 23.6628 23.6639 23.4808C23.5682 22.9924 23.6639 22.1412 23.9478 20.9207C24.2262 19.6969 24.5138 18.6897 24.7992 17.8896L27.2375 17.8277C28.272 17.8022 28.9614 17.774 29.3104 17.7313C29.6599 17.691 29.8826 17.6049 29.9763 17.473C30.0695 17.3354 30.1034 17.091 30.0663 16.7337C30.0388 16.4026 30.0351 16.1575 30.0473 15.9948C30.051 15.9539 30.06 15.8957 30.0741 15.8286C30.0857 15.7494 30.0914 15.6849 30.0799 15.6269C29.9883 15.1608 29.3747 14.9255 28.2431 14.9255C27.3682 14.9255 26.4002 14.9859 25.3359 15.1143C25.6347 14.1164 26.0562 12.9229 26.6028 11.5356C26.8695 10.8367 27.088 10.3698 27.2524 10.128C27.416 9.88254 27.6471 9.73497 27.946 9.67036C28.2453 9.60803 28.8207 9.57852 29.6821 9.57852C29.9171 9.57852 30.6758 9.62938 31.9675 9.73497C32.015 9.73497 32.1041 9.74242 32.2357 9.75202C32.3632 9.76205 32.4622 9.76735 32.5213 9.76735C32.8983 9.76735 33.0608 9.645 33.0113 9.39685C32.9783 9.23151 32.8169 8.90557 32.5271 8.4236C32.0105 7.55909 31.5759 7.01365 31.2142 6.7774C30.8532 6.542 30.3326 6.4248 29.6539 6.4248C28.1461 6.4248 26.4313 6.542 24.5088 6.7774C22.5813 7.0138 21.6894 7.48617 21.8276 8.20439Z" fill="#ADADBA"/>
<path fill-rule="evenodd" clip-rule="evenodd" d="M93.5947 25.1179C93.9153 24.6216 94.1829 24.2339 94.3953 23.9574C94.6175 23.6728 95.0396 23.1353 95.65 22.3388C96.2653 21.5458 96.872 20.7624 97.4704 19.9985C98.0642 19.2353 98.6355 18.5253 99.1723 17.8611C99.7184 17.2011 100.322 16.4837 100.989 15.7115L100.181 19.2619C99.8889 20.5932 99.6999 21.4776 99.6168 21.9137C99.5381 22.3484 99.4825 22.792 99.4524 23.238C99.423 23.69 99.44 24.0896 99.508 24.4403C99.5951 24.8922 99.848 25.3117 100.252 25.6923C100.66 26.0807 101.101 26.3851 101.585 26.6161C102.07 26.8466 102.439 26.9614 102.697 26.9614C103.045 26.9614 103.269 26.6677 103.358 26.0751C103.446 25.4841 103.55 24.2577 103.658 22.3951C103.777 20.5392 103.964 18.7236 104.229 16.9565C104.491 15.1855 104.926 13.3485 105.542 11.4458C106.833 10.3267 107.425 9.49816 107.321 8.95502C107.253 8.6083 107.024 8.18822 106.636 7.69178C106.241 7.19634 105.862 6.94906 105.494 6.94906C105.143 6.94906 104.435 7.46914 103.358 8.51374C102.281 9.5602 101.097 10.8055 99.7973 12.2573C98.5047 13.7117 97.3188 15.0771 96.2411 16.3608C95.16 17.6386 94.5076 18.4458 94.2713 18.768C94.6409 17.0183 94.9733 15.5798 95.2676 14.4574C95.5686 13.338 95.8794 12.2559 96.1978 11.2011C96.5205 10.1493 96.717 9.4622 96.8021 9.14027C96.8802 8.81547 96.9 8.55242 96.8616 8.35255C96.8299 8.18808 96.6375 7.9438 96.2952 7.62143C95.9541 7.29778 95.5827 7.00551 95.1857 6.74289C94.7919 6.48113 94.5163 6.34717 94.3571 6.34717C94.0778 6.34717 93.8241 6.6191 93.594 7.15766C93.3633 7.69766 93.1196 8.49353 92.876 9.54544C92.6273 10.5931 92.4948 11.1425 92.4826 11.1871C91.1488 16.3017 90.3224 19.7454 89.9987 21.5147C89.6771 23.282 89.5456 24.3316 89.6094 24.6742C89.6627 24.9232 89.9987 25.2788 90.6334 25.7229C91.26 26.1665 91.7763 26.389 92.1815 26.389C92.445 26.389 92.664 26.3029 92.8438 26.1272C93.0187 25.9516 93.2689 25.6165 93.5947 25.1179Z" fill="#ADADBA"/>
<path fill-rule="evenodd" clip-rule="evenodd" d="M120.416 8.64148C120.069 8.33129 119.703 8.04632 119.311 7.78829C118.919 7.52982 118.675 7.40074 118.574 7.40074C118.262 7.40074 117.892 7.88829 117.475 8.85037C117.057 9.81817 116.673 10.8633 116.33 11.9892C115.983 13.1154 115.741 13.9371 115.614 14.4437L114.65 14.7316C114.337 14.8384 113.881 14.9397 113.285 15.0525C112.695 15.1663 112.264 15.2227 112.004 15.2227C111.632 15.2227 111.401 14.9879 111.313 14.5331C111.256 14.2396 111.338 13.6904 111.546 12.8861C111.763 12.0777 111.99 11.3691 112.226 10.7529C112.415 10.3129 112.574 9.92792 112.72 9.61931C112.855 9.30282 112.957 9.06112 113.01 8.88533C113.068 8.70996 113.082 8.54563 113.054 8.40637C113.027 8.26897 112.854 8.02856 112.527 7.68757C112.206 7.34987 111.864 7.0374 111.499 6.76117C111.137 6.48623 110.878 6.34668 110.724 6.34668C110.465 6.34668 110.066 6.94857 109.528 8.14575C108.985 9.3428 108.521 10.6351 108.139 12.0322C107.749 13.4232 107.624 14.4336 107.742 15.0469C107.87 15.707 108.252 16.4051 108.884 17.1567C109.52 17.9076 110.137 18.2823 110.735 18.2823C111.056 18.2823 111.728 18.1452 112.756 17.8752C113.779 17.6085 114.561 17.3805 115.107 17.1951C115.011 17.5106 114.831 18.2658 114.567 19.4487C114.3 20.632 114.076 21.744 113.898 22.7775C113.715 23.813 113.653 24.491 113.715 24.8055C113.805 25.263 114.222 25.6623 114.962 26.0084C115.337 26.1845 115.699 26.3871 116.04 26.6139C116.388 26.8361 116.608 26.9508 116.705 26.9508C116.995 26.9508 117.203 26.7514 117.313 26.3588C117.422 25.9561 117.503 25.3161 117.557 24.4389C117.609 23.5597 117.638 23.0851 117.647 23.0001C117.892 21.0229 118.118 19.463 118.318 18.3145C118.518 17.1685 118.74 16.1689 118.991 15.3034C119.239 14.4437 119.622 13.2677 120.134 11.7852C120.311 11.2598 120.509 10.7586 120.712 10.286C120.92 9.81803 121.013 9.53363 120.997 9.43635C120.952 9.22374 120.759 8.95653 120.416 8.64148Z" fill="#ADADBA"/>
<path fill-rule="evenodd" clip-rule="evenodd" d="M20.5211 4.85341C20.5408 4.80742 20.562 4.7408 20.5796 4.70813C21.0093 3.47355 21.6877 4.31714 22.0577 4.25281C22.6408 4.07042 22.9744 3.54533 23.0974 2.80303C23.1734 2.3586 23.2182 1.44653 22.9826 1.06729C22.8407 0.838338 22.3406 0.455227 21.4605 0.284876C19.5227 -0.0939365 16.1028 -0.088922 13.1446 0.263958C10.9471 0.531448 8.06507 1.16027 4.24011 2.58211C2.93292 3.06809 0.889256 3.32856 0.283968 4.91072C-0.206352 6.18842 -0.0202411 6.87685 0.525571 7.2005C1.72861 7.91156 4.68077 6.85536 6.01457 6.42898C6.05142 6.45892 6.09041 6.48886 6.14633 6.53256C5.65686 9.32022 4.57548 12.6721 4.24481 15.7582C3.56638 17.7732 2.25976 22.7737 3.35025 24.7515C5.60023 26.1312 6.9733 22.2198 6.80341 22.088C7.37312 20.365 9.15669 12.8166 9.36756 10.7746C9.41793 10.2605 9.4609 9.84818 9.53987 9.31477C9.69197 8.27762 9.7109 7.24563 9.88463 6.27123C9.93229 5.99959 10.0871 5.77522 10.3081 5.59398C11.2874 4.78535 13.5854 4.77318 13.9765 4.77318C14.2809 4.69896 15.1276 4.56844 15.8023 4.35066C16.1004 4.25553 16.103 4.68936 16.0223 5.19239C15.9415 5.69213 15.7796 6.26163 15.743 6.438C15.6578 6.85679 15.575 7.2154 15.4768 7.65697C15.3541 8.21014 15.1004 9.33884 14.5189 11.8574C13.2015 17.9359 12.1828 23.3424 13.3043 26.2768C13.5738 26.6738 14.4873 27.0982 14.7515 26.9797C15.4277 26.8538 15.9139 26.5573 16.2649 26.1549C16.879 25.451 17.0707 24.4191 17.1219 23.3998C17.2144 21.5329 17.4765 18.6739 17.9004 15.8527C18.1817 13.9804 19.0704 9.81408 19.7989 7.1035C20.0762 6.07423 20.34 5.2689 20.5211 4.85341Z" fill="#ADADBA"/>
<path fill-rule="evenodd" clip-rule="evenodd" d="M38.7017 26.9937C38.9485 26.9937 39.1131 26.8067 39.1926 26.4342C39.2669 26.0618 39.4385 24.9703 39.7 23.1643C39.9624 21.3644 40.3188 19.425 40.7706 17.343C41.2221 15.2653 41.8807 12.8024 42.7521 9.94726C43.082 9.85585 43.7082 9.79009 44.6213 9.73909C45.5353 9.69095 46.2094 9.60198 46.6429 9.47618C47.0745 9.34251 47.2469 9.06671 47.162 8.64377C47.1051 8.34419 46.9305 8.00735 46.6399 7.65189C46.3482 7.28999 45.9522 6.98267 45.4457 6.73094C44.9439 6.47419 44.378 6.34668 43.7526 6.34668C43.5903 6.34668 43.3416 6.36573 43.0085 6.40642C42.6399 6.4464 42.0763 6.48494 41.3235 6.52892C40.5624 6.56832 39.9968 6.60801 39.6222 6.64168C37.47 6.80444 35.9624 6.98596 35.0911 7.18783C34.222 7.38555 33.8304 7.72367 33.9236 8.20421C34.2053 9.64224 34.7967 10.3587 35.7072 10.3587C35.8489 10.3587 36.8637 10.2795 38.7498 10.1221C38.5284 10.9699 38.212 12.2316 37.7991 13.9146C37.3923 15.6041 37.0259 17.1781 36.7046 18.6428C36.3736 20.1059 36.1034 21.4652 35.8859 22.7159C35.6616 23.9728 35.5871 24.7664 35.6535 25.1059C35.717 25.4273 35.9473 25.726 36.347 26.0223C36.75 26.3096 37.1912 26.5431 37.6771 26.7238C38.1642 26.9049 38.5091 26.9937 38.7017 26.9937Z" fill="#ADADBA"/>
<path fill-rule="evenodd" clip-rule="evenodd" d="M70.9778 16.2272C70.746 17.5952 70.363 18.8676 69.8354 20.063C69.3009 21.2585 68.716 22.2173 68.079 22.9438C67.4392 23.6752 66.8587 24.0413 66.3397 24.0413C66.1184 24.0413 65.8848 23.8778 65.6329 23.5478C65.3855 23.2183 65.2046 22.7704 65.0917 22.2098C64.8338 20.8801 64.8189 19.4846 65.0483 18.0475C65.2761 16.6047 65.6547 15.2865 66.1789 14.0795C66.7093 12.8815 67.2911 11.9127 67.9253 11.1742C68.56 10.4364 69.1167 10.0689 69.6004 10.0689C70.2111 10.0689 70.6682 10.8539 70.9775 12.428C71.2052 13.5984 71.2056 14.8645 70.9778 16.2272ZM73.7555 10.0252C73.4133 9.24222 73.0628 8.6399 72.7171 8.21653C72.3702 7.7986 72.1004 7.58699 71.9241 7.58699C71.8231 7.58699 71.6094 7.66851 71.2901 7.8413C70.9705 8.0075 70.7386 8.14088 70.6061 8.23473C70.2182 7.77812 69.7642 7.34944 69.2439 6.94599C68.7286 6.54526 68.3058 6.34668 67.9915 6.34668C67.5078 6.34668 66.8128 6.76962 65.9192 7.61951C65.0258 8.47012 64.1649 9.61759 63.3321 11.0536C62.5029 12.4975 61.8903 14.1492 61.4929 16.0144C61.0933 17.8824 61.0886 19.7942 61.4716 21.744C61.6968 22.9097 62.1271 23.8884 62.7472 24.6797C63.3693 25.473 64.0623 26.053 64.819 26.4272C65.576 26.8067 66.2732 26.9938 66.9094 26.9938C68.4081 26.9938 69.8483 26.3183 71.2291 24.97C72.6058 23.6175 73.6232 21.8342 74.2787 19.6242C74.9355 17.4192 75.0364 15.1261 74.5724 12.7553C74.37 11.7234 74.0996 10.8112 73.7555 10.0252ZM85.6282 12.4088C85.1927 12.9954 84.6 13.5403 83.8476 14.0486C83.0985 14.5626 82.3122 14.965 81.4875 15.2532C81.9366 12.7418 82.1112 11.2078 82.0044 10.658C81.9434 10.3493 81.7368 10.0447 81.3896 9.74382C82.0939 9.52661 82.8804 9.42031 83.7496 9.42031C84.4368 9.42031 84.9879 9.54939 85.4042 9.82276C85.8153 10.0917 86.0586 10.4277 86.1363 10.831C86.2302 11.3023 86.0585 11.828 85.6282 12.4088ZM84.1528 21.045C83.6756 21.72 83.0007 22.2739 82.1335 22.7058C81.2638 23.1465 80.3533 23.36 79.4046 23.36C79.8071 21.9872 80.119 20.9278 80.3455 20.196C80.5649 19.4581 80.7593 18.7332 80.9144 17.9967C81.5114 17.8208 82.0605 17.731 82.5642 17.731C83.8056 17.731 84.5118 18.1783 84.685 19.0551C84.8098 19.7033 84.6352 20.3689 84.1528 21.045ZM88.6645 13.9844C89.3269 12.9366 89.5509 11.8426 89.327 10.7122C89.0779 9.42331 88.3484 8.37642 87.1376 7.56636C85.935 6.75515 84.4519 6.34682 82.7028 6.34682C81.9404 6.34682 80.8979 6.46517 79.586 6.70071C78.3263 6.92006 77.3923 7.1427 76.7778 7.36406C76.169 7.58713 75.9103 7.93615 76.0066 8.41554C76.1049 8.92028 76.3497 9.42331 76.7468 9.93193C77.1405 10.4351 77.6628 10.7433 78.3174 10.8606C78.0479 13.2116 77.7254 15.2101 77.3347 16.8606C76.9449 18.5142 76.5748 19.8024 76.2196 20.7318C75.866 21.6543 75.5719 22.4581 75.3376 23.1308C75.101 23.8 75.0295 24.3795 75.1264 24.8708C75.153 25.0079 75.3517 25.2538 75.724 25.6032C76.0967 25.9469 76.4962 26.2676 76.9198 26.5574C77.3447 26.8448 77.6509 26.994 77.8425 26.994C78.1251 26.994 78.3373 26.866 78.485 26.6126C78.6356 26.355 78.7976 25.8961 78.9706 25.221C79.9871 26.4074 80.973 26.994 81.9351 26.994C82.8492 26.994 83.8422 26.5649 84.9089 25.6921C85.973 24.8201 86.8311 23.7775 87.4775 22.5709C88.1232 21.3559 88.357 20.2828 88.174 19.3564C88.0782 18.8653 87.848 18.3499 87.4859 17.8208C87.1249 17.286 86.6083 16.8198 85.9351 16.4083C87.0882 15.8329 87.9976 15.0303 88.6645 13.9844ZM56.6889 13.1013C56.124 13.8436 55.383 14.5419 54.4728 15.2015C53.5523 15.8545 52.6951 16.3097 51.8886 16.5536C51.995 15.7072 52.2107 14.4995 52.5407 12.923C52.735 11.9852 52.8856 11.3624 52.995 11.0483C53.0935 10.7305 53.2612 10.5085 53.4828 10.3792C53.7091 10.2467 54.0923 10.1629 54.642 10.1229C54.7845 10.1047 55.0032 10.0918 55.2963 10.0918C56.5422 10.0918 57.2356 10.4673 57.3833 11.2208C57.486 11.7357 57.2539 12.3653 56.6889 13.1013ZM59.8487 8.80337C59.2464 8.09962 58.4353 7.51149 57.3954 7.04427C56.3652 6.57735 55.1845 6.34682 53.8503 6.34682C53.0866 6.34682 52.2834 6.43021 51.4344 6.59726C50.583 6.75845 49.8754 7.00645 49.3061 7.32666C48.7359 7.65075 48.4905 8.0191 48.5716 8.44333C48.8304 9.75213 49.3035 10.5705 50.002 10.8878C49.3556 13.6307 48.8365 15.7522 48.457 17.249C48.0787 18.7498 47.6831 20.2586 47.2781 21.7895C46.8707 23.3113 46.6328 24.2653 46.5609 24.6341C46.4958 25.0075 46.481 25.3153 46.5258 25.5505C46.5971 25.9111 46.7478 26.1465 46.9858 26.2607C47.2164 26.3759 47.6087 26.4914 48.152 26.6122C48.4269 26.6758 48.7221 26.7541 49.0249 26.8516C49.3261 26.9448 49.5353 26.9935 49.6501 26.9935C49.9856 26.9935 50.2388 26.8064 50.4017 26.4391C50.5589 26.0714 50.6945 25.5051 50.8052 24.7483C50.9132 23.9894 51.0559 22.9716 51.2399 21.6998C51.4229 20.4318 51.6662 19.1972 51.9555 17.9963C52.8393 19.315 53.5677 19.9738 54.1397 19.9738C54.8137 19.9738 55.7491 19.4088 56.9348 18.2778C58.1254 17.1467 59.1357 15.8626 59.9682 14.4234C60.7999 12.9845 61.1302 11.8194 60.9517 10.9166C60.8189 10.2193 60.4481 9.51415 59.8487 8.80337Z" fill="#ADADBA"/>
</g>
<defs>
<clipPath id="clip0_1343_375">
<rect width="121" height="27" fill="white"/>
</clipPath>
</defs>
</svg>
