<svg width="54" height="71" viewBox="0 0 54 71" fill="none" xmlns="http://www.w3.org/2000/svg">
<g clip-path="url(#clip0_1343_339)">
<path d="M19.1114 0V5.90046H12.6844V11.8154H6.19769V17.8604H-0.289062V37.977C-0.289062 37.977 11.13 48.0714 12.7592 49.5176V70.9356H40.7837V49.6332C42.3979 48.1871 53.7423 37.948 53.7423 37.948V17.846H47.3004V11.8588H40.7688V5.91492H34.2372V0H19.1114Z" fill="white"/>
<path d="M22.9222 39.7412H17.4219V66.2499H22.9222V39.7412Z" fill="#D0D5DD"/>
<path d="M29.4417 34.2749H23.9414V66.2502H29.4417V34.2749Z" fill="#D0D5DD"/>
<path d="M35.9424 39.7412H30.457V66.2499H35.9424V39.7412Z" fill="#D0D5DD"/>
<path d="M9.90653 40.7829L4.40625 36.0683V22.4741H9.90653V40.7829Z" fill="#ADADBA"/>
<path d="M16.4072 46.6975L10.9219 41.4768V16.4722H16.4072V46.6975Z" fill="#ADADBA"/>
<path d="M22.9222 10.5718H17.4219V38.9171H22.9222V10.5718Z" fill="#ADADBA"/>
<path d="M29.4417 4.65674H23.9414V33.1033H29.4417V4.65674Z" fill="#ADADBA"/>
<path d="M43.4766 40.7829L48.9619 36.0683V22.4741H43.4766V40.7829Z" fill="#ADADBA"/>
<path d="M36.957 46.6975L42.4573 41.4768V16.4722H36.957V46.6975Z" fill="#ADADBA"/>
<path d="M35.9424 10.5718H30.457V38.9171H35.9424V10.5718Z" fill="#ADADBA"/>
</g>
<defs>
<clipPath id="clip0_1343_339">
<rect width="54" height="71" fill="white"/>
</clipPath>
</defs>
</svg>
