<svg width="114" height="57" viewBox="0 0 114 57" fill="none" xmlns="http://www.w3.org/2000/svg">
<g clip-path="url(#clip0_1343_394)">
<path d="M35.21 17.8059H42.445V20.2123H39.0033V37.1201H35.21V17.8059ZM46.7344 29.8694L47.3846 20.2123H47.6023L48.2524 29.8694H46.7344ZM42.5337 37.1201H46.2477L46.599 31.9907H48.3877L48.7406 37.1201H52.453L50.4748 17.8059H44.5119L42.5337 37.1201ZM57.8857 30.3602V34.0012C57.8857 34.4921 58.2589 34.6345 58.4766 34.6345C58.8343 34.6345 59.0832 34.3337 59.0832 34.0012V29.5055C59.0832 28.9037 58.9742 28.2389 57.559 28.2389H56.0192V26.1176H57.6212C58.6943 26.1176 59.0832 25.8643 59.0832 24.6769V20.8456C59.0832 20.5131 58.8343 20.2123 58.4764 20.2123C58.2589 20.2123 57.8857 20.3389 57.8857 20.8456V23.996H54.0906V21.2573C54.0906 19.9115 54.2462 17.8059 56.9055 17.8059H60.0472C62.7067 17.8059 62.8778 19.9115 62.8778 21.2573V24.3442C62.8778 26.4498 61.4314 27.0198 60.2961 26.9722V27.1622C62.8467 27.0989 62.8778 29.0935 62.8778 29.7743V33.6689C62.8778 35.0303 62.7067 37.1201 60.0472 37.1201H56.9055C54.2462 37.1201 54.0906 35.0302 54.0906 33.6687V30.3602H57.8857ZM65.3664 17.8059H74.1536V37.1201H70.3587V20.2123H69.1612V37.1201H65.3664V17.8059ZM80.4368 28.4288V20.2125H80.9346C81.3388 20.2125 81.6343 20.5605 81.6343 21.1781V27.463C81.6343 28.0806 81.3388 28.4286 80.9344 28.4286L80.4368 28.4288ZM76.642 37.1201H80.4368V30.5501H82.6139C85.258 30.5501 85.4291 28.4603 85.4291 27.0988V21.2573C85.4291 19.9115 85.258 17.8059 82.6141 17.8059H76.642V37.1201ZM92.9099 34.0012C92.9099 34.3337 92.661 34.6345 92.3033 34.6345C92.0854 34.6345 91.7124 34.4921 91.7124 34.0012V20.8456C91.7124 20.3389 92.0856 20.2123 92.3033 20.2123C92.661 20.2123 92.9099 20.5131 92.9099 20.8456V34.0012ZM87.9175 33.6689C87.9175 35.0303 88.0885 37.1201 90.7326 37.1201H93.8897C96.5336 37.1201 96.7047 35.0302 96.7047 33.6687V21.2573C96.7047 19.9115 96.5338 17.8059 93.8897 17.8059H90.7326C88.0887 17.8059 87.9175 19.9115 87.9175 21.2573V33.6689ZM109.053 17.8059H113.999V37.1201H110.204V25.0092H110.064L108.105 37.1201H105.072L103.128 25.0092H102.988V37.1201H99.1931V17.8059H104.123L106.596 31.3891L109.053 17.8059ZM30.2922 10.682C29.1306 5.50519 26.219 1.29416 25.8177 0.613281C25.1832 1.5789 22.8612 5.29944 21.6808 9.41544C20.3915 14.0223 20.2017 18.1067 20.6467 22.112C21.0884 26.1331 22.757 30.2652 22.757 30.2652C23.6436 32.4182 24.9717 34.7452 25.8365 35.8852C27.1039 34.2072 30.017 29.2044 30.9252 22.682C31.4307 19.0408 31.4525 15.8588 30.2922 10.682ZM25.8177 34.5871C25.2471 33.4947 24.3604 31.4207 24.2765 28.1911C24.2547 25.0884 25.4787 22.4128 25.8365 21.8588C26.1553 22.4129 27.2097 24.74 27.3357 27.9221C27.4212 31.025 26.4072 33.4787 25.8177 34.5871ZM29.9548 19.4681C29.9112 21.4471 29.6795 23.5369 29.384 24.7876C29.4897 22.6345 29.2363 19.6108 28.7509 17.2361C28.2657 14.8772 26.8924 10.9195 25.7961 9.0988C24.7836 10.8403 23.5362 14.2598 22.883 17.2203C22.2267 20.1806 22.2081 23.7744 22.2081 24.8509C22.0338 23.9484 21.5984 20.7031 21.7212 17.4577C21.824 14.7823 22.4397 12.0119 22.7773 10.7453C24.065 6.51841 25.5223 3.81126 25.796 3.38373C26.0698 3.81126 27.9049 7.15169 28.8567 10.6503C29.804 14.149 29.9952 17.505 29.9548 19.4681Z" fill="#ADADBA"/>
<path d="M27.7892 37.0885H18.9569V43.1203C18.9648 43.1203 18.971 43.1044 18.9787 43.1044C21.0597 40.9831 24.4347 40.9831 26.5171 43.1044C28.598 45.21 28.598 48.6453 26.5171 50.7667C26.5077 50.7824 26.4983 50.7824 26.4891 50.7983C26.4782 50.7983 26.4673 50.8142 26.4579 50.83C24.3817 52.9198 21.6694 53.9646 18.9569 53.9646C16.2322 53.9646 13.5074 52.9198 11.4296 50.7983C7.76532 47.0779 7.3314 41.2996 10.1247 37.0885C10.5081 36.5092 10.9451 35.9685 11.4296 35.4738C13.5074 33.3525 16.2322 32.3075 18.9569 32.3075V17.8062C8.48701 17.8062 0 26.4341 0 37.0885C0 47.7429 8.48701 56.3868 18.9569 56.3868C24.4159 56.3868 29.3337 54.0278 32.7924 50.2759V37.0885H27.7892ZM114 42.763H35.2109V56.3868H114V42.763ZM107.187 52.2739H108.187V50.2174H107.187V52.2739ZM107.187 48.6751H108.7L109.712 49.1893L109.962 49.7034L110.212 50.7316V51.2456C110.186 54.9288 107.858 53.5805 105.411 53.8163V45.3335H107.187V48.6751ZM94.0477 45.3335V46.8758H92.785V53.8163H90.7726V46.8758H89.51V45.3335H94.0477ZM75.6209 51.5027H75.8708L76.3706 51.2456V47.6469H75.6209V51.5027ZM73.5954 47.6471H72.8325V51.2456L73.3454 51.5027H73.5954V47.6471ZM75.6209 45.3335V46.1046H76.8836L77.6333 46.6187L78.1461 47.1329L78.396 48.1611V50.9887L78.1463 52.0169L77.6333 52.531L76.8836 53.045H75.6209V53.8161H73.5954V53.045H72.3327L71.57 52.531L71.0702 52.0169L70.8203 50.9887V48.1611L71.07 47.1329L71.57 46.6187L72.3327 46.1046H73.5954V45.3335H75.6209ZM59.2013 45.3335V46.8758H57.6862V48.6751H59.2013V50.2174H57.6862V52.2739H59.4539V53.8161H55.6659V45.3335H59.2013ZM41.0192 48.6751H42.0293V45.3335H43.797V53.8163H42.0293V50.2174H41.0192V53.8163H38.9989V45.3335H41.0192V48.6751Z" fill="#ADADBA"/>
</g>
<defs>
<clipPath id="clip0_1343_394">
<rect width="114" height="57" fill="white"/>
</clipPath>
</defs>
</svg>
