<svg width="94" height="33" viewBox="0 0 94 33" fill="none" xmlns="http://www.w3.org/2000/svg">
<g clip-path="url(#clip0_1343_354)">
<mask id="mask0_1343_354" style="mask-type:luminance" maskUnits="userSpaceOnUse" x="0" y="0" width="94" height="33">
<path d="M93.9906 0H0V32.9908H93.9906V0Z" fill="white"/>
</mask>
<g mask="url(#mask0_1343_354)">
<path fill-rule="evenodd" clip-rule="evenodd" d="M6.40076 0L4.79352 4.31439H26.9753L28.5731 0H6.40076ZM3.9946 6.4762L2.39676 10.7906H24.5785L26.1764 6.4762H3.9946ZM1.59784 12.9432L0 17.2668H22.1818L23.7796 12.9524H1.59784V12.9432Z" fill="#D0D5DD"/>
<path fill-rule="evenodd" clip-rule="evenodd" d="M47.1543 18.9115V19.0039C48.1694 19.3734 49.1375 20.0109 49.645 20.4266C51.2147 21.7107 51.9008 23.4014 51.9008 25.6002C51.9008 29.2124 49.9646 31.8177 46.7783 32.6492C45.8102 32.9263 44.7951 33.0187 42.9059 33.0187H33.2812V6.55957H41.8062C43.5544 6.55957 44.7575 6.65196 45.8196 6.92911C48.9119 7.75134 50.9421 9.85772 50.9421 13.1928C50.9421 14.9759 50.2936 16.491 49.2409 17.4887C48.7709 17.9507 48.1224 18.4957 47.1543 18.9115ZM38.6293 21.7015V28.6581H42.3137C43.4228 28.6581 44.4379 28.5657 45.1711 27.8821C45.9042 27.1984 46.2332 26.33 46.2332 25.1844C46.2332 24.316 45.9982 23.4938 45.5376 22.8933C44.7575 21.9325 43.7894 21.7015 42.1258 21.7015H38.6293ZM38.5823 17.1192H41.5806C42.5017 17.1192 42.9623 17.1192 43.4228 16.9806C44.6729 16.6111 45.453 15.5209 45.453 14.0058C45.453 12.2228 44.6259 11.4467 43.4228 11.0772C42.9153 10.9386 42.4077 10.8924 41.3926 10.8924H38.5823V17.1192ZM59.9276 33.0002V10.9941H52.2298V6.55957H73.622L72.0994 10.9941H65.2757V33.0002H59.9276ZM75.2763 33.0002V6.55957H92.6081L91.0855 10.9941H80.5773V16.8513H84.8633C88.3222 16.8513 90.1174 17.6735 91.3674 18.7267C92.3355 19.5489 93.9992 21.3782 93.9992 24.9904C93.9992 28.5565 92.2885 30.5243 90.8599 31.5313C89.1963 32.6769 87.448 32.991 83.8952 32.991H75.2763V33.0002ZM80.5773 28.5565H84.5907C86.1134 28.5565 87.0345 28.1869 87.683 27.3647C88.0026 26.949 88.4631 26.2191 88.4631 24.8518C88.4631 23.4845 88.0026 22.5145 87.0815 21.8308C86.5269 21.4151 85.7938 21.1934 84.5437 21.1934H80.5773V28.5565Z" fill="#ADADBA"/>
</g>
</g>
<defs>
<clipPath id="clip0_1343_354">
<rect width="94" height="33" fill="white"/>
</clipPath>
</defs>
</svg>
