<svg width="95" height="14" viewBox="0 0 95 14" fill="none" xmlns="http://www.w3.org/2000/svg">
<path d="M27.783 10.9326L25 3.06742H26.8592L28.8237 8.88764L30.835 3.06742H32.6475L29.8761 10.9326H27.783Z" fill="#B2B8C3"/>
<path d="M33.3525 10.9326V3.06742H35.1065V10.9326H33.3525Z" fill="#B2B8C3"/>
<path d="M36.1654 8.34831L37.8844 8.37079C37.9428 9.13483 38.5743 9.66292 39.5799 9.66292C40.3867 9.66292 40.9831 9.32584 40.9831 8.70787C40.9831 8.04494 40.3166 7.91011 38.9485 7.65169C37.5686 7.40449 36.3525 6.97753 36.3525 5.38202C36.3525 3.98876 37.5569 3 39.4045 3C41.3339 3 42.5617 3.96629 42.5851 5.47191H40.8662C40.7843 4.80899 40.2581 4.34831 39.4045 4.34831C38.6561 4.34831 38.1182 4.65169 38.1182 5.25843C38.1182 5.89888 38.7614 6.03371 40.1178 6.2809C41.521 6.52809 42.7605 6.93258 42.7488 8.51685C42.7371 9.98876 41.4742 11 39.5565 11C37.4751 11 36.1771 9.94382 36.1654 8.34831Z" fill="#B2B8C3"/>
<path d="M43.7427 7.53933V3.06742H45.4967V7.62921C45.4967 8.8764 45.9762 9.55056 47.0987 9.55056C48.233 9.55056 48.7124 8.8764 48.7124 7.62921V3.06742H50.4664V7.53933C50.4664 9.77528 49.3088 11 47.0987 11C44.9004 11 43.7427 9.77528 43.7427 7.53933Z" fill="#B2B8C3"/>
<path d="M52.4728 10.9326H50.6603L53.6538 3.06742H55.7586L58.7287 10.9326H56.8461L56.2146 9.21348H53.1042L52.4728 10.9326ZM54.6477 4.86517L53.5719 7.85393H55.7352L54.6477 4.86517Z" fill="#B2B8C3"/>
<path d="M64.4847 10.9326H59.4799V3.06742H61.2339V9.48315H64.4847V10.9326Z" fill="#B2B8C3"/>
<path d="M63.7055 4.51685V3.06742H70.1953V4.51685H67.8216V10.9326H66.0676V4.51685H63.7055Z" fill="#B2B8C3"/>
<path d="M71.1276 10.9326V3.06742H76.6235V4.51685H72.8816V6.2809H75.9219V7.66292H72.8816V9.48315H76.7521V10.9326H71.1276Z" fill="#B2B8C3"/>
<path d="M78.9656 10.9326H77.1531L80.1466 3.06742H82.2514L85.2215 10.9326H83.3389L82.7074 9.21348H79.597L78.9656 10.9326ZM81.1405 4.86517L80.0647 7.85393H82.228L81.1405 4.86517Z" fill="#B2B8C3"/>
<path d="M85.9727 10.9326V3.06742H88.2763L90.5448 8.8427L92.7432 3.06742H95V10.9326H93.3279V5.66292L91.1997 10.9326H89.7731L87.6449 5.66292V10.9326H85.9727Z" fill="#B2B8C3"/>
<path d="M11.1864 4.27778L9.15254 7.38889L4.40678 0H0L7.79661 12.4444C8.48339 13.5419 9.82169 13.5326 10.5085 12.4444L15.5932 4.27778H11.1864Z" fill="#B2B8C3"/>
<path d="M17.2879 3.5H7.7964L5.7625 0H19.3218" fill="#B2B8C3"/>
</svg>
