<!-- icon666.com - MILLIONS OF FREE VECTOR ICONS --><svg id="Layer_1" enable-background="new 0 0 30 30" viewBox="0 0 30 30" xmlns="http://www.w3.org/2000/svg"><g><path d="m19.885 9.541c-.199-6.46-9.577-6.46-9.776 0 .201 6.462 9.573 6.457 9.776 0zm-8.273.001c.112-4.469 6.663-4.469 6.776-.001-.117 4.465-6.661 4.468-6.776.001z" fill="#000000" style="fill: rgb(231, 65, 29);"></path><path d="m23.199 23.398c-.416-.003-.755.334-.755.75-.386 5.399-14.425 5.405-14.811 0 0-1.392 1.379-2.715 3.541-3.468l3.2 4.868c.54.812 1.79.003 1.254-.823 0 0-7.418-11.286-7.418-11.286-3.009-5.022.919-11.854 6.803-11.695 5.717-.197 9.821 6.78 6.78 11.654-.881 1.37-4.075 6.39-5.446 8.536-.605.849.754 1.714 1.265.8 1.366-2.139 4.557-7.163 5.446-8.539 3.569-5.635-.895-13.799-7.539-13.933-5.312-.316-9.842 3.961-9.84 9.28.007 1.64.438 3.251 1.25 4.676l3.4 5.175c-8.025 3.296-3.473 10.558 4.711 10.358 4.993 0 8.906-2.459 8.906-5.6.002-.414-.333-.752-.747-.753z" fill="#000000" style="fill: rgb(231, 65, 29);"></path></g></svg>