<svg width="42" height="44" viewBox="0 0 42 44" fill="none" xmlns="http://www.w3.org/2000/svg">
<path d="M22.6099 34.3709C23.54 34.55 24.506 34.6216 25.4361 34.6216C34.5588 34.6216 41.9642 27.2104 41.9642 18.0806C41.9642 13.9633 40.4259 9.98921 37.6712 6.94596C37.4566 6.73115 37.3135 6.55213 37.1346 6.37312C36.9557 6.1941 36.8126 6.05089 36.5622 5.83608C32.5554 2.07678 27.2964 0.000213623 21.7513 0.000213623C9.76661 0.000213623 0 9.77439 0 21.8041C0 33.8339 9.76661 43.5723 21.7513 43.5723H42V41.8537H22.6099V34.3709ZM20.8927 32.187C18.8535 31.5425 16.9574 30.4326 15.3833 28.9647C15.2402 28.8215 14.8467 28.4277 14.5963 28.177C13.0221 26.4227 12.1635 24.1313 12.1635 21.8041C12.1635 21.0523 12.2351 20.3362 12.414 19.656L20.8927 28.1412V32.187ZM20.8927 25.7067L13.0221 17.83C13.5945 16.5411 14.4532 15.4312 15.4906 14.5004L20.8927 19.9066V25.7067ZM20.8927 17.472L16.9216 13.4979C18.1022 12.7818 19.4617 12.3522 20.8927 12.209V17.472ZM10.4463 21.8041C10.4463 24.5968 11.4838 27.282 13.3441 29.3585C13.5945 29.6092 14.0596 30.0746 14.2385 30.2536C16.1704 32.0438 18.46 33.3327 20.9284 34.0129V41.8537C10.2675 41.4241 1.75298 32.5808 1.75298 21.8041C1.75298 10.7411 10.7325 1.71875 21.7871 1.71875C26.8671 1.71875 31.7325 3.6163 35.4532 7.08918C35.6678 7.30399 35.8109 7.4114 35.9898 7.59042C36.1687 7.76943 36.3118 7.91264 36.4906 8.09165C38.9591 10.8127 40.3543 14.3572 40.3543 18.0806C40.2828 26.2795 33.6286 32.9388 25.4361 32.9388C24.4702 32.9388 23.54 32.8314 22.6099 32.6524V28.6425H23.6116C28.4055 28.6425 32.3049 24.74 32.3049 19.9424C32.3049 17.9016 31.5894 15.9325 30.3015 14.393C30.0511 14.1065 29.7649 13.7843 29.4429 13.4979C27.3322 11.5645 24.6133 10.4546 21.7513 10.4546C15.5264 10.4546 10.4463 15.5386 10.4463 21.8041ZM29.8365 16.7917C30.3373 17.7584 30.5877 18.8325 30.5877 19.9424C30.5877 23.8091 27.4395 26.9239 23.6116 26.9239H22.6099V24.0239L29.8365 16.7917ZM22.6099 21.5893V12.209C24.7206 12.388 26.724 13.2831 28.2981 14.751C28.5128 14.93 28.6917 15.1448 28.8705 15.3238L22.6099 21.5893Z" fill="#5D6D63"/>
</svg>
