<svg width="32" height="32" viewBox="0 0 32 32" fill="none" xmlns="http://www.w3.org/2000/svg">
<circle cx="16" cy="16" r="16" fill="#2B2E3A"/>
<path d="M19.3004 19.9149L19.3004 15.464L21.9468 15.4834C21.9468 15.4834 22.051 20.089 21.9677 20.4954C21.8843 20.9018 21.8427 21.8113 20.8007 21.9274C19.7588 22.0435 18.7794 21.9855 18.7794 21.9855C18.7794 21.9855 18.8211 20.7212 18.8003 19.9149H19.3004Z" fill="white"/>
<path d="M21.5718 11.0519L21.6135 9.01999C21.6135 9.01999 14.1326 8.92323 12.0279 9.15545C9.92326 9.38767 9.40227 11.7292 9.19391 12.3871C8.98555 13.0451 8.88138 17.3605 9.21478 18.4635C9.54818 19.5666 10.5484 21.2501 12.1946 21.6759C13.8408 22.1016 18.1335 21.9855 18.1335 21.9855L18.1543 19.9149C18.1543 19.9149 14.7369 19.9536 13.6116 19.8375C12.4864 19.7214 11.757 18.599 11.5903 18.1152C11.4236 17.6314 11.4236 14.748 11.5278 13.7805C11.632 12.8129 11.9654 11.4002 12.924 11.1874C13.8825 10.9745 21.5718 11.0519 21.5718 11.0519Z" fill="white"/>
</svg>
