<svg width="42" height="42" viewBox="0 0 42 42" fill="none" xmlns="http://www.w3.org/2000/svg">
<rect y="20.5059" width="29" height="29" transform="rotate(-45 0 20.5059)" fill="#2B2E3A"/>
<path d="M24.3082 24.9207L24.3082 20.4699L26.9547 20.4892C26.9547 20.4892 27.0588 25.0949 26.9755 25.5013C26.8921 25.9077 26.8505 26.8172 25.8086 26.9333C24.7666 27.0494 23.7873 26.9913 23.7873 26.9913C23.7873 26.9913 23.8289 25.727 23.8081 24.9207H24.3082Z" fill="white"/>
<path d="M26.5796 16.0578L26.6213 14.0259C26.6213 14.0259 19.1404 13.9291 17.0357 14.1613C14.9311 14.3935 14.4101 16.7351 14.2017 17.393C13.9934 18.051 13.8892 22.3663 14.2226 23.4694C14.556 24.5724 15.5562 26.256 17.2024 26.6817C18.8487 27.1075 23.1413 26.9913 23.1413 26.9913L23.1622 24.9207C23.1622 24.9207 19.7447 24.9594 18.6194 24.8433C17.4942 24.7272 16.7648 23.6048 16.5981 23.1211C16.4314 22.6373 16.4314 19.7539 16.5356 18.7863C16.6398 17.8187 16.9732 16.4061 17.9318 16.1932C18.8903 15.9803 26.5796 16.0578 26.5796 16.0578Z" fill="white"/>
</svg>
