<svg width="29" height="29" viewBox="0 0 29 29" fill="none" xmlns="http://www.w3.org/2000/svg">
<rect width="29" height="29" fill="#2B2E3A"/>
<path d="M18.3004 18.9149L18.3004 14.464L20.9468 14.4834C20.9468 14.4834 21.051 19.089 20.9677 19.4954C20.8843 19.9018 20.8427 20.8113 19.8007 20.9274C18.7588 21.0435 17.7794 20.9855 17.7794 20.9855C17.7794 20.9855 17.8211 19.7212 17.8003 18.9149H18.3004Z" fill="white"/>
<path d="M20.5718 10.0519L20.6135 8.01999C20.6135 8.01999 13.1326 7.92323 11.0279 8.15545C8.92326 8.38767 8.40227 10.7292 8.19391 11.3871C7.98555 12.0451 7.88138 16.3605 8.21478 17.4635C8.54818 18.5666 9.54838 20.2501 11.1946 20.6759C12.8408 21.1016 17.1335 20.9855 17.1335 20.9855L17.1543 18.9149C17.1543 18.9149 13.7369 18.9536 12.6116 18.8375C11.4864 18.7214 10.757 17.599 10.5903 17.1152C10.4236 16.6314 10.4236 13.748 10.5278 12.7805C10.632 11.8129 10.9654 10.4002 11.924 10.1874C12.8825 9.97449 20.5718 10.0519 20.5718 10.0519Z" fill="white"/>
</svg>
