<svg width="50" height="50" viewBox="0 0 50 50" fill="none" xmlns="http://www.w3.org/2000/svg">
<path d="M1.18548 38.1355H27.748C29.8567 41.7315 32.8204 44.7717 36.3854 46.9957C36.533 47.0888 36.7046 47.1383 36.88 47.1383C37.0553 47.1383 37.227 47.0888 37.3746 46.9957C40.6477 44.9603 43.4212 42.2371 45.496 39.0221C47.5707 35.8071 48.8949 32.1801 49.3735 28.402L49.7307 25.6377C49.7526 25.4579 49.7189 25.2758 49.6339 25.1152C49.549 24.9546 49.4167 24.8229 49.2544 24.7372L42.4032 21.1175V1.21817C42.4032 0.979366 42.3067 0.750339 42.1349 0.581477C41.9631 0.412615 41.7301 0.317749 41.4872 0.317749H1.18548C0.942555 0.317749 0.70958 0.412615 0.537806 0.581477C0.366033 0.750339 0.269531 0.979366 0.269531 1.21817V37.2351C0.269531 37.4739 0.366033 37.703 0.537806 37.8718C0.70958 38.0407 0.942555 38.1355 1.18548 38.1355ZM47.5599 28.1769C47.128 31.5944 45.9532 34.8806 44.1152 37.8123C42.2771 40.744 39.8189 43.2526 36.9075 45.1679C33.9956 43.2539 31.5376 40.7454 29.701 37.8134C27.8643 34.8813 26.6921 31.5945 26.2641 28.1769L25.9894 26.0339L36.9075 20.2531L47.8256 26.0339L47.5599 28.1769ZM17.6725 2.1186H25.0001V17.4258L21.8859 15.1297C21.7274 15.0128 21.5345 14.9496 21.3363 14.9496C21.1382 14.9496 20.9453 15.0128 20.7868 15.1297L17.6725 17.4258V2.1186ZM2.10143 2.1186H15.8407V19.2266C15.8412 19.3929 15.8885 19.5558 15.9774 19.6973C16.0663 19.8387 16.1934 19.9532 16.3444 20.028C16.4965 20.1039 16.6671 20.1365 16.837 20.1222C17.007 20.1078 17.1694 20.0472 17.3062 19.947L21.3363 16.9756L25.3665 19.947C25.5251 20.0639 25.7179 20.1271 25.9161 20.1271C26.0599 20.1296 26.2019 20.0954 26.3283 20.028C26.4793 19.9532 26.6063 19.8387 26.6953 19.6973C26.7842 19.5558 26.8315 19.3929 26.832 19.2266V2.1186H40.5713V20.1271L37.338 18.4163C37.2054 18.3469 37.0576 18.3106 36.9075 18.3106C36.7573 18.3106 36.6095 18.3469 36.477 18.4163L24.5696 24.7192C24.4074 24.8048 24.2751 24.9366 24.1902 25.0972C24.1052 25.2578 24.0715 25.4399 24.0933 25.6197L24.4414 28.384C24.7995 31.1431 25.6067 33.8276 26.832 36.3347H2.10143V2.1186Z" fill="#457FCA"/>
<path d="M33.9203 33.6335C33.7586 33.4559 33.5318 33.3485 33.2897 33.335C33.0476 33.3215 32.8099 33.4029 32.6288 33.5614C32.5386 33.6409 32.4654 33.7372 32.4133 33.8446C32.3612 33.9521 32.3313 34.0687 32.3253 34.1876C32.3194 34.3065 32.3375 34.4254 32.3785 34.5374C32.4196 34.6494 32.4829 34.7522 32.5647 34.84L35.3125 37.8385C35.3982 37.9317 35.5027 38.0064 35.6194 38.0575C35.7362 38.1087 35.8625 38.1353 35.9903 38.1356H36.1094C36.2569 38.1162 36.3973 38.0618 36.5186 37.9771C36.6399 37.8924 36.7384 37.7799 36.8055 37.6494L41.3853 28.6451C41.4742 28.4352 41.479 28.2001 41.3988 27.9868C41.3187 27.7736 41.1594 27.598 40.953 27.4954C40.7466 27.3928 40.5084 27.3708 40.2861 27.4337C40.0639 27.4967 39.8741 27.6399 39.7549 27.8347L35.7705 35.6594L33.9203 33.6335Z" fill="#2B2E3A"/>
</svg>
