<svg width="44" height="48" viewBox="0 0 44 48" fill="none" xmlns="http://www.w3.org/2000/svg">
<g clip-path="url(#clip0_1343_813)">
<path d="M42.7928 37.3856L36.9308 29.0138C39.0845 26.0066 40.3538 22.3249 40.3538 18.3521C40.3538 8.2327 32.1206 0 22.0008 0C17.8645 0 13.9603 1.34296 10.71 3.88373C10.4041 4.12301 10.3499 4.56491 10.589 4.87086C10.8282 5.1769 11.2702 5.2309 11.5762 4.99181C14.5767 2.64625 18.1814 1.40643 22.0008 1.40643C31.3452 1.40643 38.9474 9.00821 38.9474 18.352C38.9474 27.6963 31.3451 35.2986 22.0008 35.2986C12.6564 35.2986 5.05417 27.6963 5.05417 18.352C5.05417 14.225 6.55549 10.2484 9.28163 7.15481C9.53844 6.8634 9.51031 6.41896 9.219 6.16224C8.92777 5.90571 8.48334 5.93365 8.22652 6.22488C2.66895 12.5317 2.03502 21.9822 7.07081 29.0137L1.20879 37.3855C0.226538 38.7882 1.23804 40.7296 2.97415 40.7048L8.79153 40.6007C9.09307 40.5971 9.36901 40.7856 9.4684 41.0753L11.3603 46.5758C11.9197 48.2061 14.0952 48.512 15.0834 47.1007L20.6914 39.0905C20.9141 38.7723 20.8368 38.3339 20.5186 38.1112C20.2005 37.8882 19.762 37.9656 19.5392 38.2839L13.9313 46.2941C13.6014 46.7649 12.8778 46.6649 12.6904 46.1189L10.7985 40.6184C10.5048 39.7623 9.70703 39.1943 8.8056 39.1943C8.77559 39.1943 9.08454 39.189 2.94892 39.2988C2.38644 39.3142 2.02574 38.6709 2.36085 38.1924L7.97505 30.1745C11.2713 34.0789 16.1637 36.5933 21.6363 36.7005L28.9184 47.1008C29.9083 48.5147 32.0833 48.2027 32.6413 46.5764L34.5336 41.0749C34.6328 40.7857 34.9039 40.5917 35.2107 40.6008L41.0277 40.7049C42.7677 40.7277 43.7736 38.7861 42.7928 37.3856ZM41.0527 39.2987L35.2361 39.1946C34.2868 39.1815 33.493 39.7733 33.2032 40.6179L31.3109 46.1195C31.1241 46.664 30.4004 46.7654 30.0702 46.2941L23.3226 36.6572C28.4068 36.2935 32.9239 33.8499 36.0267 30.1745L41.6408 38.1924C41.9688 38.6607 41.6327 39.3075 41.0527 39.2987Z" fill="#457FCA"/>
<path d="M21.9996 32.4693C29.7836 32.4693 36.1163 26.1366 36.1163 18.3525C36.1163 10.5685 29.7835 4.23584 21.9996 4.23584C14.2156 4.23584 7.88281 10.5685 7.88281 18.3526C7.88281 26.1366 14.2155 32.4693 21.9996 32.4693ZM21.9996 5.64227C29.008 5.64227 34.7099 11.3441 34.7099 18.3526C34.7099 25.361 29.008 31.0629 21.9996 31.0629C14.9911 31.0629 9.28925 25.361 9.28925 18.3526C9.28925 11.3441 14.9911 5.64227 21.9996 5.64227Z" fill="#2B2E3A"/>
<path d="M13.0887 17.9589L16.1774 20.2037C16.4247 20.3832 16.5273 20.699 16.4328 20.9898L15.2533 24.6212C14.6211 26.5664 16.8469 28.1796 18.4995 26.9797L21.5879 24.7351C21.8353 24.5554 22.1678 24.5553 22.4152 24.7349L25.5039 26.9798C27.1561 28.1797 29.382 26.5663 28.75 24.6212L27.5704 20.9896C27.4758 20.699 27.5785 20.3832 27.826 20.2036L30.9144 17.959C32.5701 16.7568 31.7166 14.143 29.6742 14.143H28.835C28.4467 14.143 28.1318 14.4578 28.1318 14.8463C28.1318 15.2347 28.4467 15.5495 28.835 15.5495H29.6742C30.1489 15.5495 30.3067 15.9214 30.3437 16.0355C30.3807 16.1493 30.4716 16.5425 30.0878 16.8212L26.9994 19.0658C26.2573 19.6046 25.9492 20.5525 26.2327 21.4243L27.4124 25.0558C27.5589 25.5068 27.2541 25.7715 27.1572 25.842C27.0601 25.9125 26.714 26.1205 26.3305 25.842L23.2418 23.5972C22.5001 23.0584 21.5033 23.0585 20.7613 23.5973L17.6729 25.8419C17.289 26.1205 16.943 25.9123 16.846 25.842C16.7492 25.7715 16.4443 25.5068 16.5909 25.0558L17.7703 21.4244C18.054 20.5525 17.7459 19.6045 17.004 19.0658L13.9153 16.821C13.5317 16.5424 13.6226 16.1492 13.6596 16.0354C13.6966 15.9213 13.8543 15.5494 14.3291 15.5494H18.1471C19.0632 15.5494 19.8692 14.9635 20.1529 14.0911L21.3325 10.4606C21.479 10.0097 21.8817 9.97466 22.0016 9.97466C22.1216 9.97466 22.5244 10.0097 22.6708 10.4606L23.8504 14.0915C24.0813 14.8006 24.6761 15.3399 25.4028 15.4993C25.7819 15.5824 26.1571 15.3425 26.2402 14.9629C26.3234 14.5835 26.0833 14.2086 25.7039 14.1254C25.4626 14.0725 25.2648 13.8927 25.188 13.6565L24.0084 10.026C23.3775 8.08385 20.6268 8.08076 19.9948 10.026L18.8153 13.6563C18.7207 13.9474 18.4521 14.1429 18.1471 14.1429H14.3291C12.2831 14.143 11.436 16.7588 13.0887 17.9589Z" fill="#2B2E3A"/>
</g>
<defs>
<clipPath id="clip0_1343_813">
<rect width="44" height="48" fill="white"/>
</clipPath>
</defs>
</svg>
