<svg width="48" height="48" viewBox="0 0 48 48" fill="none" xmlns="http://www.w3.org/2000/svg">
<g clip-path="url(#clip0_1343_789)">
<path d="M44.0923 10.8754H46.2759C46.7936 10.8754 47.2132 10.4558 47.2132 9.93813C47.2132 9.42047 46.7936 9.00085 46.2759 9.00085H42.1831C41.6655 9.00085 41.2458 9.42047 41.2458 9.93813V14.0309C41.2458 14.5486 41.6655 14.9682 42.1831 14.9682C42.7008 14.9682 43.1204 14.5486 43.1204 14.0309V12.8679C48.0828 21.4025 46.7638 32.5154 39.6409 39.6383C33.3594 45.9198 23.9746 47.8362 15.7322 44.5202C15.252 44.3271 14.7061 44.5595 14.5128 45.0399C14.3196 45.5202 14.5523 46.0661 15.0326 46.2593C17.9444 47.4307 20.987 48.0001 24.0026 48.0001C30.2462 48.0001 36.3719 45.5584 40.9665 40.9639C45.0694 36.861 47.5454 31.417 47.9387 25.6348C48.2943 20.4052 46.9336 15.2203 44.0923 10.8754Z" fill="#2B2E3A"/>
<path d="M12.5252 42.9142L12.4908 42.8932C12.049 42.6236 11.4721 42.7631 11.2024 43.2049C10.9326 43.6467 11.0722 44.2235 11.514 44.4933L11.5528 44.5169C11.7048 44.6091 11.8725 44.653 12.0381 44.653C12.3548 44.653 12.6641 44.4923 12.8404 44.2018C13.1088 43.7592 12.9678 43.1828 12.5252 42.9142Z" fill="#457FCA"/>
<path d="M35.5832 5.14679L35.6285 5.17482C35.7822 5.26977 35.9524 5.31504 36.1206 5.31504C36.4347 5.31504 36.7415 5.1572 36.9187 4.87058C37.191 4.43034 37.0547 3.8527 36.6145 3.58042L36.5669 3.55108C36.1265 3.27946 35.549 3.4163 35.2773 3.85701C35.0056 4.29762 35.1426 4.87508 35.5832 5.14679Z" fill="#457FCA"/>
<path d="M5.94244 33.0654C5.42478 33.0654 5.00516 33.4851 5.00516 34.0027V35.3367C-0.102528 26.7749 1.17817 15.5377 8.35958 8.3563C14.6843 2.03156 24.1197 0.135823 32.3969 3.52661C32.876 3.72297 33.4233 3.49352 33.6196 3.01467C33.8157 2.53563 33.5865 1.98826 33.1075 1.79208C28.7835 0.0206316 24.0643 -0.448944 19.4597 0.434252C14.7412 1.33929 10.4445 3.62034 7.03408 7.03071C2.93125 11.1336 0.455152 16.5776 0.0618703 22.3598C-0.2972 27.6397 1.09372 32.8738 3.99112 37.2441H1.76368C1.24603 37.2441 0.826407 37.6637 0.826407 38.1814C0.826407 38.699 1.24603 39.1187 1.76368 39.1187H5.94234C6.46 39.1187 6.87962 38.699 6.87962 38.1814V34.0027C6.87971 33.4851 6.4601 33.0654 5.94244 33.0654Z" fill="#457FCA"/>
<path d="M24 41.0478C28.3683 41.0478 32.7366 39.385 36.0622 36.0595C42.7132 29.4084 42.7132 18.5862 36.0622 11.9351C33.303 9.17595 29.7993 7.48585 25.9298 7.04767C22.1751 6.62234 18.3407 7.46523 15.1321 9.42058C14.6901 9.68995 14.5502 10.2667 14.8196 10.7087C15.089 11.1508 15.6658 11.2905 16.1078 11.0213C22.1038 7.36719 29.7643 8.28816 34.7367 13.2606C40.6569 19.1808 40.6569 28.8137 34.7367 34.7339C28.8166 40.6541 19.1836 40.6541 13.2634 34.7339C8.28637 29.7569 7.3684 22.0916 11.0312 16.0934C11.3009 15.6517 11.1616 15.0748 10.7197 14.805C10.2781 14.5353 9.70118 14.6748 9.43134 15.1165C7.47168 18.3257 6.62589 22.1624 7.04972 25.9198C7.48659 29.7921 9.17687 33.2984 11.938 36.0595C15.2634 39.3849 19.6317 41.0478 24 41.0478Z" fill="#457FCA"/>
<path d="M36.5383 24.9495C37.0559 24.9495 37.4756 24.5299 37.4756 24.0122C37.4756 23.4946 37.0559 23.075 36.5383 23.075H35.9705C35.4528 23.075 35.0332 23.4946 35.0332 24.0122C35.0332 24.5299 35.4528 24.9495 35.9705 24.9495H36.5383Z" fill="#457FCA"/>
<path d="M11.4617 23.045C10.944 23.045 10.5244 23.4647 10.5244 23.9823C10.5244 24.5 10.944 24.9196 11.4617 24.9196H12.0295C12.5472 24.9196 12.9668 24.5 12.9668 23.9823C12.9668 23.4647 12.5472 23.045 12.0295 23.045H11.4617Z" fill="#457FCA"/>
<path d="M24.9522 12.0268V11.459C24.9522 10.9413 24.5326 10.5217 24.0149 10.5217C23.4973 10.5217 23.0776 10.9413 23.0776 11.459V12.0268C23.0776 12.5445 23.4973 12.9641 24.0149 12.9641C24.5326 12.9641 24.9522 12.5445 24.9522 12.0268Z" fill="#457FCA"/>
<path d="M23.0479 35.9677V36.5355C23.0479 37.0531 23.4675 37.4727 23.9851 37.4727C24.5028 37.4727 24.9224 37.0531 24.9224 36.5355V35.9677C24.9224 35.45 24.5028 35.0304 23.9851 35.0304C23.4675 35.0304 23.0479 35.4501 23.0479 35.9677Z" fill="#457FCA"/>
<path d="M19.3964 18.068C19.0304 17.702 18.4369 17.702 18.0709 18.068C17.7049 18.434 17.7049 19.0275 18.0709 19.3935L21.1831 22.5056C20.9464 22.951 20.8116 23.4586 20.8116 23.9972C20.8116 25.7555 22.242 27.1858 24.0002 27.1858C25.7583 27.1858 27.1888 25.7555 27.1888 23.9972C27.1888 23.4586 27.054 22.951 26.8173 22.5056L33.1055 16.2176C33.4715 15.8515 33.4715 15.2581 33.1055 14.8921C32.7395 14.5261 32.1461 14.5261 31.7799 14.8921L25.4917 21.1802C25.0463 20.9435 24.5388 20.8087 24.0002 20.8087C23.4615 20.8087 22.954 20.9435 22.5086 21.1802L19.3964 18.068ZM25.3142 23.9973C25.3142 24.7218 24.7247 25.3114 24.0001 25.3114C23.2755 25.3114 22.686 24.7218 22.686 23.9973C22.686 23.2728 23.2756 22.6833 24.0001 22.6833C24.7246 22.6833 25.3142 23.2728 25.3142 23.9973Z" fill="#2B2E3A"/>
<path d="M12.5759 13.56C13.0936 13.56 13.5132 13.1403 13.5132 12.6227C13.5132 12.1051 13.0936 11.6854 12.5759 11.6854C12.0583 11.6854 11.6387 12.1051 11.6387 12.6227C11.6387 13.1403 12.0583 13.56 12.5759 13.56Z" fill="#457FCA"/>
</g>
<defs>
<clipPath id="clip0_1343_789">
<rect width="48" height="48" fill="white"/>
</clipPath>
</defs>
</svg>
