<svg width="48" height="48" viewBox="0 0 48 48" fill="none" xmlns="http://www.w3.org/2000/svg">
<g clip-path="url(#clip0_1343_821)">
<path d="M45.5848 19.1577H42.61C42.5585 19.1577 42.5143 19.122 42.5003 19.0689C42.0669 17.4394 41.4164 15.8712 40.567 14.4075C40.5392 14.3597 40.5452 14.303 40.5818 14.2666L42.6869 12.1614C43.6285 11.2198 43.6285 9.68754 42.6869 8.74583L39.2544 5.31327C38.3125 4.37155 36.7804 4.37174 35.8388 5.31327L33.7334 7.41842C33.6971 7.45499 33.6402 7.4608 33.5926 7.43305C32.1288 6.58358 30.5605 5.93315 28.9311 5.49974C28.878 5.48558 28.8424 5.44152 28.8424 5.38996V2.41528C28.8424 1.08347 27.7589 0 26.4271 0H21.5729C20.2411 0 19.1577 1.08347 19.1577 2.41528V5.39005C19.1577 5.44161 19.1221 5.48568 19.069 5.49983C17.4395 5.93324 15.8712 6.58377 14.4075 7.43314C14.3596 7.46089 14.3031 7.45489 14.2666 7.41842L12.1613 5.31318C11.2197 4.37155 9.68745 4.37146 8.74573 5.31318L5.31327 8.74573C4.85708 9.20192 4.60583 9.80839 4.60583 10.4536C4.60583 11.0988 4.85708 11.7052 5.31327 12.1614L7.41842 14.2666C7.45499 14.3031 7.46089 14.3598 7.43314 14.4075C6.58367 15.8713 5.93314 17.4396 5.49983 19.0689C5.48568 19.1221 5.44161 19.1577 5.39005 19.1577H2.41528C1.08347 19.1577 0 20.2411 0 21.5729V26.4271C0 27.7589 1.08347 28.8424 2.41518 28.8424H5.38996C5.44152 28.8424 5.48568 28.878 5.49974 28.9311C5.93305 30.5605 6.58358 32.1287 7.43305 33.5925C7.4608 33.6403 7.45489 33.697 7.41833 33.7334L5.31327 35.8387C4.85708 36.2948 4.60583 36.9013 4.60583 37.5465C4.60583 38.1917 4.85708 38.7982 5.31327 39.2544L8.74573 42.6869C9.68754 43.6286 11.2197 43.6286 12.1613 42.6869L14.2666 40.5817C14.3031 40.5451 14.3597 40.5392 14.4075 40.567C15.8712 41.4164 17.4395 42.0669 19.069 42.5003C19.1221 42.5144 19.1577 42.5585 19.1577 42.61V45.5848C19.1577 46.9166 20.2411 48.0001 21.5729 48.0001H26.4271C27.7589 48.0001 28.8424 46.9166 28.8424 45.5848V42.61C28.8424 42.5585 28.878 42.5144 28.9311 42.5003C30.5606 42.0669 32.1289 41.4163 33.5926 40.567C33.6402 40.5392 33.6971 40.5451 33.7334 40.5817L35.8387 42.6869C36.7805 43.6285 38.3125 43.6286 39.2545 42.6868L39.4993 42.4419C39.7734 42.1676 39.7733 41.7231 39.4991 41.449C39.2248 41.1748 38.7804 41.1748 38.5061 41.4491L38.2615 41.694C37.8671 42.0883 37.2257 42.0881 36.8315 41.694L34.7263 39.5889C34.2407 39.1031 33.4848 39.006 32.8877 39.3525C31.5317 40.1395 30.0791 40.742 28.5701 41.1433C27.9036 41.3205 27.4381 41.9237 27.4381 42.6101V45.5849C27.4381 46.1424 26.9846 46.596 26.427 46.596H21.5728C21.0153 46.596 20.5618 46.1424 20.5618 45.5849V42.6101C20.5618 41.9238 20.0963 41.3206 19.4298 41.1433C17.9208 40.742 16.4682 40.1395 15.1122 39.3525C14.5152 39.006 13.7592 39.1032 13.2736 39.5889L11.1683 41.6941C10.7741 42.0882 10.1327 42.0883 9.73845 41.6941L6.30599 38.2616C6.11502 38.0706 6.00983 37.8167 6.00983 37.5466C6.00983 37.2765 6.11502 37.0226 6.30599 36.8317L8.41114 34.7265C8.89676 34.241 8.99389 33.4848 8.64748 32.8879C7.86055 31.5319 7.25802 30.0793 6.85667 28.5703C6.67939 27.9038 6.07621 27.4383 5.38986 27.4383H2.41528C1.85784 27.4383 1.40428 26.9848 1.40428 26.4272V21.573C1.40428 21.0155 1.85784 20.562 2.41528 20.562H5.39005C6.07639 20.562 6.67958 20.0965 6.85686 19.4299C7.2582 17.921 7.86064 16.4684 8.64767 15.1124C8.99417 14.5155 8.89695 13.7593 8.41133 13.2738L6.30608 11.1684C6.11511 10.9774 6.00993 10.7236 6.00993 10.4535C6.00993 10.1834 6.11511 9.92951 6.30608 9.73854L9.73854 6.30599C10.1328 5.91177 10.7741 5.91186 11.1684 6.30599L13.2737 8.41123C13.7593 8.89686 14.5153 8.99398 15.1123 8.64758C16.4683 7.86064 17.9209 7.25811 19.4298 6.85677C20.0964 6.67949 20.5619 6.07639 20.5619 5.38996V2.41528C20.5619 1.85775 21.0154 1.40418 21.5729 1.40418H26.4271C26.9847 1.40418 27.4382 1.85775 27.4382 2.41528V5.39005C27.4382 6.07639 27.9037 6.67958 28.5702 6.85686C30.0792 7.2582 31.5318 7.86073 32.8878 8.64767C33.4845 8.99408 34.2408 8.89705 34.7264 8.41133L36.8317 6.30608C37.2259 5.91186 37.8672 5.91186 38.2615 6.30608L41.6939 9.73864C42.0881 10.1329 42.0881 10.7743 41.6939 11.1685L39.5888 13.2737C39.1032 13.7592 39.0061 14.5154 39.3525 15.1123C40.1394 16.4682 40.7419 17.9208 41.1432 19.4299C41.3206 20.0964 41.9237 20.5619 42.61 20.5619H45.5848C46.1423 20.5619 46.5958 21.0154 46.5958 21.5729V26.4271C46.5958 26.9847 46.1423 27.4382 45.5848 27.4382H42.61C41.9237 27.4382 41.3206 27.9037 41.1432 28.5702C40.7419 30.0792 40.1394 31.5318 39.3525 32.8877C39.006 33.4846 39.1032 34.2408 39.5888 34.7263L41.6939 36.8315C42.0881 37.2257 42.0881 37.8671 41.6939 38.2614L40.826 39.1293C40.5519 39.4034 40.5519 39.8481 40.826 40.1222C41.1002 40.3963 41.5447 40.3964 41.819 40.1222L42.6869 39.2543C43.6285 38.3126 43.6285 36.7803 42.6869 35.8387L40.5818 33.7335C40.5452 33.697 40.5393 33.6403 40.567 33.5926C41.4164 32.1289 42.0669 30.5606 42.5003 28.9312C42.5143 28.878 42.5585 28.8424 42.61 28.8424H45.5848C46.9165 28.8424 48 27.7589 48 26.4271V21.5729C47.9999 20.2411 46.9164 19.1577 45.5848 19.1577Z" fill="#457FCA"/>
<path d="M15.3565 12.4014C15.6672 12.1694 15.731 11.7295 15.4991 11.4187C15.2671 11.108 14.8272 11.0442 14.5164 11.2761C12.5783 12.7229 10.9721 14.6224 9.87137 16.7692C8.71712 19.0204 8.13184 21.4531 8.13184 23.9999C8.13184 32.7499 15.2505 39.8685 24.0004 39.8685C32.7505 39.8685 39.8691 32.7499 39.8691 23.9999C39.8691 15.25 32.7505 8.13135 24.0004 8.13135C21.7054 8.13135 19.4912 8.61078 17.4193 9.55635C17.0665 9.71732 16.9111 10.1338 17.072 10.4865C17.233 10.8393 17.6495 10.9947 18.0022 10.8338C19.8899 9.97232 21.908 9.53553 24.0004 9.53553C31.9762 9.53553 38.4649 16.0243 38.4649 23.9999C38.4649 31.9756 31.9762 38.4644 24.0004 38.4644C16.0247 38.4644 9.53602 31.9757 9.53602 24C9.53602 21.6781 10.0693 19.4609 11.1209 17.41C12.1245 15.4528 13.5891 13.7208 15.3565 12.4014Z" fill="#2B2E3A"/>
<path d="M29.2985 24.5071C29.6301 24.7084 30.0618 24.6029 30.2631 24.2714C30.9555 23.1309 31.3216 21.8193 31.3216 20.4787C31.3216 18.5437 30.5738 16.719 29.216 15.3407C27.8596 13.964 26.0494 13.1889 24.1185 13.1582C20.0783 13.0919 16.7444 16.3243 16.6797 20.3588C16.6458 22.4692 17.5242 24.4918 19.0899 25.9078C19.9935 26.7252 20.5268 27.8929 20.5268 29.1119V32.7417C20.5268 33.9002 21.4693 34.8428 22.6279 34.8428H25.3723C26.531 34.8428 27.4736 33.9002 27.4736 32.7417C27.4736 32.7417 27.4736 29.1605 27.4736 29.112C27.4736 28.2828 27.7302 27.4714 28.1873 26.7655C28.398 26.44 28.305 26.0054 27.9795 25.7946C27.6543 25.5839 27.2194 25.6769 27.0086 26.0024C26.5333 26.7362 26.2343 27.5576 26.1281 28.4099H24.7022V24.3577H25.2385C25.6262 24.3577 25.9406 24.0434 25.9406 23.6556C25.9406 23.2679 25.6263 22.9535 25.2385 22.9535H22.7618C22.374 22.9535 22.0597 23.2679 22.0597 23.6556C22.0597 24.0434 22.374 24.3577 22.7618 24.3577H23.298V28.4099H21.8726C21.7045 27.0549 21.0543 25.7914 20.0318 24.8665C18.7663 23.722 18.0563 22.0872 18.0837 20.3815C18.136 17.1209 20.8359 14.5103 24.0962 14.5624C25.6564 14.5872 27.1194 15.2137 28.2157 16.3264C29.313 17.4403 29.9174 18.915 29.9174 20.4789C29.9174 21.5625 29.6218 22.622 29.0628 23.5429C28.8615 23.874 28.9671 24.3059 29.2985 24.5071ZM21.9309 29.8141H26.0693V32.7417C26.0693 33.1259 25.7565 33.4386 25.3722 33.4386H22.6278C22.2435 33.4386 21.9309 33.1259 21.9309 32.7417V29.8141Z" fill="#2B2E3A"/>
</g>
<defs>
<clipPath id="clip0_1343_821">
<rect width="48" height="48" fill="white"/>
</clipPath>
</defs>
</svg>
