<svg width="50" height="50" viewBox="0 0 50 50" fill="none" xmlns="http://www.w3.org/2000/svg">
<g clip-path="url(#clip0_1343_776)">
<path d="M49.2104 48.4211H47.8946V29.2106C47.8946 28.7746 47.5411 28.4211 47.1052 28.4211H32.3684C31.9323 28.4211 31.5789 28.7747 31.5789 29.2106C31.5789 29.6465 31.9324 30 32.3684 30H46.3157V33.6842H24.9999C24.5639 33.6842 24.2104 34.0377 24.2104 34.4737V41.8421C24.2104 42.2782 24.564 42.6316 24.9999 42.6316H46.3157V48.421H39.7368C39.3008 48.421 38.9474 48.7746 38.9474 49.2105C38.9474 49.6465 39.3009 49.9999 39.7368 49.9999H49.2104C49.6465 49.9999 49.9999 49.6464 49.9999 49.2105C49.9999 48.7746 49.6464 48.4211 49.2104 48.4211ZM46.3157 41.0527H40.5263V37.6316C40.5263 37.1956 40.1728 36.8421 39.7368 36.8421C39.3008 36.8421 38.9474 37.1957 38.9474 37.6316V41.0527H33.1579V37.6316C33.1579 37.1956 32.8044 36.8421 32.3685 36.8421C31.9325 36.8421 31.579 37.1957 31.579 37.6316V41.0527H25.7896V35.2632H46.3158V41.0527H46.3157Z" fill="#2B2E3A"/>
<path d="M20.7896 15.2631C22.9663 15.2631 24.737 13.4924 24.737 11.3158C24.737 9.13911 22.9663 7.36841 20.7896 7.36841C18.613 7.36841 16.8423 9.13911 16.8423 11.3158C16.8423 13.4923 18.6131 15.2631 20.7896 15.2631ZM20.7896 8.94731C22.0956 8.94731 23.1581 10.0097 23.1581 11.3158C23.1581 12.6217 22.0957 13.6842 20.7896 13.6842C19.4836 13.6842 18.4212 12.6218 18.4212 11.3158C18.4213 10.0097 19.4837 8.94731 20.7896 8.94731Z" fill="#457FCA"/>
<path d="M36.5789 48.4211H20.2099C20.4961 47.8614 20.5938 47.2194 20.479 46.5875L19.1393 39.219C18.8889 37.8418 17.6911 36.8421 16.2912 36.8421H15.5947C14.1948 36.8421 12.9972 37.8418 12.7467 39.219L11.4069 46.5875C11.292 47.2194 11.3898 47.8614 11.6761 48.4211H3.68418V9.12653L7.46484 9.90485C7.8918 9.99293 8.30938 9.71793 8.39727 9.29088C8.48516 8.86383 8.21035 8.44635 7.7833 8.35846L3.054 7.38473C2.82168 7.33668 2.57998 7.39596 2.396 7.54596C2.21201 7.69586 2.10527 7.92057 2.10527 8.15788V48.4211H0.789453C0.353418 48.4211 0 48.7746 0 49.2105C0 49.6465 0.353516 50 0.789453 50H36.5789C37.0149 50 37.3684 49.6465 37.3684 49.2105C37.3685 48.7745 37.0149 48.4211 36.5789 48.4211ZM18.6411 47.9483C18.3903 48.2487 18.0222 48.4211 17.6309 48.4211H16.7323V43.9474C16.7323 43.5114 16.3788 43.158 15.9429 43.158C15.5069 43.158 15.1534 43.5115 15.1534 43.9474V48.4211H14.2549C13.8636 48.4211 13.4954 48.2488 13.2446 47.9483C12.9938 47.6479 12.8903 47.2548 12.9603 46.8699L14.3 39.5014C14.4139 38.8754 14.9582 38.421 15.5945 38.421H16.291C16.9273 38.421 17.4718 38.8753 17.5855 39.5014L18.9253 46.8699C18.9956 47.2548 18.8919 47.6478 18.6411 47.9483Z" fill="#457FCA"/>
<path d="M33.0998 15.1826L37.8947 16.1699V26.0527C37.8947 26.4887 38.2482 26.8421 38.6841 26.8421C39.1201 26.8421 39.4736 26.4886 39.4736 26.0527V15.5263C39.4736 15.1517 39.2102 14.8286 38.8433 14.7531L33.418 13.6361C32.9911 13.5479 32.5735 13.8229 32.4856 14.2501C32.3977 14.6772 32.6727 15.0947 33.0998 15.1826Z" fill="#457FCA"/>
<path d="M10.8773 13.6793L12.8043 14.0646C12.9164 14.3903 13.0484 14.709 13.1993 15.0183L12.1092 16.6534C11.6489 17.3438 11.7407 18.2705 12.3273 18.8571L13.2479 19.7776C13.8345 20.3643 14.7613 20.4561 15.4516 19.9958L17.0868 18.9057C17.3961 19.0567 17.7146 19.1886 18.0404 19.3007L18.4258 21.2277C18.5885 22.0412 19.3087 22.6316 20.1383 22.6316H21.44C22.2696 22.6316 22.9898 22.0412 23.1525 21.2277L23.5379 19.3008C23.8636 19.1887 24.1822 19.0566 24.4915 18.9058L26.1268 19.9959C26.8171 20.456 27.7438 20.3644 28.3305 19.7777L29.251 18.8572C29.8376 18.2706 29.9294 17.3438 29.4691 16.6535L28.379 15.0183C28.5301 14.709 28.662 14.3903 28.774 14.0646L30.7011 13.6793C31.5146 13.5166 32.105 12.7964 32.105 11.9668V10.665C32.105 9.83545 31.5146 9.11523 30.7011 8.95254L28.7741 8.56719C28.662 8.2415 28.53 7.92285 28.3791 7.61357L29.4692 5.97842C29.9295 5.28809 29.8377 4.36133 29.2511 3.77471L28.3306 2.8542C27.744 2.26758 26.8172 2.17588 26.1269 2.63604L24.4916 3.72617C24.1823 3.5751 23.8638 3.44326 23.538 3.33115L23.1526 1.4041C22.9899 0.59043 22.2697 0 21.4402 0H20.1385C19.3089 0 18.5887 0.59043 18.426 1.40391L18.0406 3.33086C17.7149 3.44297 17.3963 3.575 17.087 3.72588L15.4519 2.63574C14.7614 2.17549 13.8347 2.26729 13.2481 2.85391L12.3276 3.77441C11.741 4.36104 11.6492 5.28779 12.1095 5.97813L13.1996 7.61338C13.0485 7.92266 12.9167 8.24121 12.8046 8.56699L10.8775 8.95234C10.0641 9.11504 9.47363 9.83525 9.47363 10.6647V11.9665C9.47354 12.7962 10.0639 13.5164 10.8773 13.6793ZM11.0524 10.6648C11.0524 10.5853 11.1091 10.5162 11.1871 10.5006L13.5731 10.0234C13.8646 9.96514 14.0985 9.74814 14.1786 9.46211C14.3259 8.93584 14.5363 8.42793 14.8041 7.95264C14.95 7.69355 14.938 7.37451 14.7731 7.12725L13.4232 5.10234C13.3791 5.03623 13.388 4.94727 13.4441 4.89111L14.3646 3.97061C14.421 3.91426 14.5098 3.90557 14.576 3.94971L16.6008 5.29961C16.848 5.46445 17.1671 5.47646 17.4262 5.33057C17.9015 5.06289 18.4092 4.85244 18.9356 4.70508C19.2218 4.625 19.4387 4.39102 19.497 4.09961L19.9741 1.71357C19.9897 1.63555 20.0588 1.57891 20.1384 1.57891H21.4401C21.5197 1.57891 21.5888 1.63555 21.6044 1.71357L22.0815 4.09961C22.1398 4.39102 22.3568 4.625 22.6429 4.70508C23.1691 4.85234 23.6771 5.06279 24.1523 5.33057C24.4114 5.47646 24.7305 5.46445 24.9777 5.29961L27.0025 3.94971C27.0687 3.90547 27.1575 3.91426 27.2139 3.97051L28.1344 4.89102C28.1906 4.94736 28.1994 5.03613 28.1553 5.10234L26.8054 7.12715C26.6404 7.37451 26.6284 7.69346 26.7744 7.95254C27.0421 8.42783 27.2525 8.93555 27.3999 9.46201C27.48 9.74814 27.714 9.96504 28.0054 10.0233L30.3914 10.5005C30.4694 10.5161 30.5261 10.5852 30.5261 10.6647V11.9665C30.5261 12.0461 30.4694 12.1151 30.3914 12.1308L28.0054 12.6079C27.7139 12.6662 27.48 12.8832 27.3999 13.1693C27.2527 13.6954 27.0423 14.2032 26.7745 14.6787C26.6286 14.9377 26.6406 15.2567 26.8055 15.5041L28.1554 17.529C28.1995 17.5951 28.1906 17.6841 28.1345 17.7402L27.214 18.6607C27.1576 18.7171 27.0688 18.7258 27.0026 18.6816L24.9778 17.3317C24.7306 17.1668 24.4115 17.1549 24.1524 17.3008C23.6771 17.5685 23.1694 17.7789 22.643 17.9263C22.3568 18.0063 22.1399 18.2403 22.0816 18.5317L21.6045 20.9178C21.5889 20.9958 21.5198 21.0524 21.4402 21.0524H20.1385C20.0589 21.0524 19.9898 20.9958 19.9742 20.9178L19.4971 18.5317C19.4388 18.2403 19.2218 18.0063 18.9357 17.9263C18.4095 17.779 17.9016 17.5686 17.4263 17.3008C17.3057 17.2329 17.1721 17.1992 17.0388 17.1992C16.8857 17.1992 16.733 17.2437 16.6008 17.3318L14.5759 18.6817C14.5099 18.726 14.4208 18.7171 14.3646 18.6608L13.4441 17.7403C13.3879 17.684 13.3791 17.5952 13.4231 17.529L14.773 15.5042C14.938 15.2568 14.95 14.9379 14.804 14.6788C14.5363 14.2035 14.3259 13.6958 14.1785 13.1693C14.0984 12.8832 13.8645 12.6663 13.573 12.608L11.187 12.1309C11.109 12.1152 11.0523 12.0462 11.0523 11.9666L11.0524 10.6648Z" fill="#2B2E3A"/>
<path d="M15.5263 28.4211C15.0902 28.4211 14.7368 28.7747 14.7368 29.2106V34.4738C14.7368 34.9098 15.0903 35.2632 15.5263 35.2632C15.9623 35.2632 16.3157 34.9097 16.3157 34.4738V30H29.2104C29.6465 30 29.9999 29.6465 29.9999 29.2106C29.9999 28.7747 29.6464 28.4211 29.2104 28.4211H15.5263Z" fill="#2B2E3A"/>
</g>
<defs>
<clipPath id="clip0_1343_776">
<rect width="50" height="50" fill="white"/>
</clipPath>
</defs>
</svg>
